<svg xmlns="http://www.w3.org/2000/svg" width="80" height="80" viewBox="0 0 80 80" fill="none"><rect width="80" height="80" rx="40" fill="white"></rect><path d="M40.5 47H28.5V36H32C32.5625 36 33.125 35.6875 33.375 35.125C33.5625 34.5625 33.4375 33.875 33 33.5L28 28.4375C27.75 28.1875 27.375 28 27 28C26.5625 28 26.1875 28.1875 25.9375 28.5L20.9375 33.5C20.5 33.875 20.375 34.5625 20.5625 35.125C20.8125 35.6875 21.375 36 22 36H25.5V48.5C25.5 49.375 26.125 50 27 50H40.5C41.3125 50 42 49.375 42 48.5C42 47.6875 41.3125 47 40.5 47ZM57.375 44.9375C57.125 44.375 56.5625 44 56 44H52.5V31.5C52.5 30.6875 51.8125 30 51 30H37.5C36.625 30 36 30.6875 36 31.5C36 32.375 36.625 33 37.5 33H49.5V44H46C45.375 44 44.8125 44.3125 44.5625 44.875C44.375 45.4375 44.5 46.125 44.9375 46.5625L49.9375 51.5625C50.1875 51.875 50.5625 52 51 52C51.375 52 51.75 51.875 52 51.5625L57 46.5625C57.4375 46.1875 57.5625 45.5 57.375 44.9375Z" fill="#375BD2"></path></svg>