<svg xmlns="http://www.w3.org/2000/svg" width="278" height="210" viewBox="0 0 278 210" fill="none"><path d="M18.6051 285.801C16.5629 285.801 14.5207 285.801 12.9891 285.29C8.90468 284.779 4.82027 282.223 2.26752 278.645C-4.36964 268.421 1.24641 251.552 50.7698 203.5C53.8331 200.433 59.4492 200.433 62.5125 203.5C65.5758 206.568 65.5758 212.191 62.5125 215.258C25.2423 252.063 18.6051 265.865 17.0735 269.954C33.4111 273.533 115.61 241.328 198.319 183.053C279.497 126.312 339.742 57.8129 343.315 40.9438C338.21 40.9438 322.893 43.4997 278.986 64.4583C274.902 66.503 269.796 64.4583 268.264 60.3688C266.222 56.2794 268.264 51.1675 272.349 49.634C334.126 19.9853 350.974 19.9853 357.611 30.2089C360.674 34.8096 368.843 47.5892 317.277 101.775C283.581 136.535 246.821 168.229 207.509 195.833C144.201 240.306 54.3437 285.801 18.6051 285.801Z" fill="#C1CAEE"></path><path d="M341.273 114.553C329.02 192.253 263.67 250.017 185.555 253.084C184.024 253.084 182.492 253.084 181.471 253.084H179.939C170.749 253.084 161.559 252.061 152.88 249.505L151.348 250.017C132.969 260.24 114.078 269.953 96.209 278.132C173.302 324.65 273.881 299.602 320.341 221.901C331.573 203.499 338.721 183.051 341.784 162.093C342.805 153.914 343.826 145.735 343.316 137.556C343.316 130.399 342.805 122.732 341.273 114.553Z" fill="#C1CAEE"></path><path d="M101.315 221.902C55.3649 178.451 53.3227 105.863 96.7196 59.8563C117.142 38.3865 144.711 25.6069 173.813 24.0734C95.1879 27.1405 29.8374 85.4155 18.0947 163.116C22.6897 192.764 34.9429 220.368 53.8333 242.86C67.6182 237.748 83.9558 230.592 101.315 221.902Z" fill="#C1CAEE"></path><path d="M329.021 113.531L326.978 115.576C316.767 126.311 305.535 136.534 294.303 147.269C289.708 204.522 243.248 249.506 186.066 252.573C264.691 250.017 330.042 191.742 341.784 114.042C341.274 109.953 340.253 105.863 339.742 101.774C336.168 105.863 332.594 109.442 329.021 113.531Z" fill="#B8BCCF"></path><path d="M179.939 -25C89.5717 -25 16.563 48.0994 16.563 138.579C16.563 146.758 17.0735 154.937 18.6052 163.116C30.3479 85.4158 95.6984 27.1408 173.813 24.0737C175.855 24.0737 177.897 24.0737 179.939 24.0737C224.357 24.0737 264.691 49.6329 283.581 89.5053C288.687 84.3935 293.792 79.2816 298.387 74.1698C306.556 64.9685 313.704 57.3007 318.298 50.6553C288.176 3.62633 236.1 -25 179.939 -25Z" fill="#B8BCCF"></path></svg>