<svg xmlns="http://www.w3.org/2000/svg" width="98" height="32" viewBox="0 0 98 32" fill="none"><path d="M1.82345 30.4608C1.6233 30.4608 1.42314 30.4608 1.27303 30.4107C0.872727 30.3606 0.472424 30.1101 0.222234 29.7594C-0.428259 28.7574 0.122158 27.1041 4.97584 22.3947C5.27606 22.0941 5.82648 22.0941 6.12671 22.3947C6.42694 22.6953 6.42694 23.2464 6.12671 23.547C2.47394 27.1542 1.82345 28.5069 1.67333 28.9077C3.27455 29.2584 11.3307 26.1021 19.4368 20.3907C27.3928 14.8296 33.2973 8.11618 33.6476 6.46288C33.1472 6.46288 31.646 6.71338 27.3428 8.76749C26.9425 8.96789 26.4421 8.76749 26.292 8.36669C26.0918 7.96589 26.292 7.46488 26.6923 7.31458C32.7469 4.40878 34.3981 4.40878 35.0486 5.41078C35.3488 5.86168 36.1495 7.11418 31.0956 12.4248C27.7931 15.8316 24.1904 18.9378 20.3375 21.6432C14.1328 26.0019 5.3261 30.4608 1.82345 30.4608Z" fill="#375BD2"></path><path d="M33.4474 13.6774C32.2465 21.2926 25.8416 26.9539 18.1858 27.2545C18.0357 27.2545 17.8856 27.2545 17.7855 27.2545H17.6354C16.7347 27.2545 15.8341 27.1543 14.9834 26.9038L14.8333 26.9539C13.0319 27.9559 11.1805 28.9078 9.4292 29.7094C16.9849 34.2685 26.8424 31.8136 31.3958 24.1984C32.4967 22.3948 33.1972 20.3908 33.4974 18.3367C33.5975 17.5351 33.6976 16.7335 33.6475 15.9319C33.6475 15.2305 33.5975 14.479 33.4474 13.6774Z" fill="#375BD2"></path><path d="M9.92962 24.1984C5.4262 19.9399 5.22605 12.8257 9.47928 8.31669C11.4808 6.21249 14.1828 4.95999 17.035 4.80969C9.32916 5.11029 2.92431 10.8217 1.77344 18.4369C2.22378 21.3427 3.42469 24.0481 5.27609 26.2525C6.62712 25.7515 8.22833 25.0501 9.92962 24.1984Z" fill="#375BD2"></path><path d="M32.2465 13.5771L32.0463 13.7775C31.0455 14.8296 29.9447 15.8316 28.8439 16.8837C28.3935 22.4949 23.8401 26.9037 18.2358 27.2043C25.9417 26.9538 32.3465 21.2424 33.4974 13.6272C33.4474 13.2264 33.3473 12.8256 33.2973 12.4248C32.947 12.8256 32.5967 13.1763 32.2465 13.5771Z" fill="#1A2B6B"></path><path d="M17.6357 0C8.77896 0 1.62354 7.1643 1.62354 16.032C1.62354 16.8336 1.67357 17.6352 1.82369 18.4368C2.97456 10.8216 9.37941 5.1102 17.0352 4.8096C17.2354 4.8096 17.4355 4.8096 17.6357 4.8096C21.989 4.8096 25.942 7.3146 27.7934 11.2224C28.2937 10.7214 28.7941 10.2204 29.2445 9.7194C30.0451 8.8176 30.7456 8.0661 31.1959 7.4148C28.2437 2.8056 23.1398 0 17.6357 0Z" fill="#1A2B6B"></path><path d="M44 16C44 12.15 47.15 9 51 9C54.85 9 58 12.15 58 16C58 19.85 54.85 23 51 23C47.15 23 44 19.85 44 16ZM54.4417 16C54.4417 13.6667 52.925 12.15 51.0583 12.15C49.1917 12.15 47.6167 13.6667 47.6167 16C47.6167 18.3333 49.1333 19.85 51 19.85C52.8667 19.85 54.4417 18.3333 54.4417 16Z" fill="#1A2B6B"></path><path d="M71 17.0605C71 20.3165 68.8657 22.3159 66.1841 22.3159C65.1443 22.373 64.1592 21.9731 63.4478 21.2305V27H60V11.0054H63.2836V12.205C63.995 11.3481 65.0896 10.9482 66.1841 11.0054C68.8657 11.0054 71 13.8044 71 17.0605ZM67.7164 17.0605C67.7164 15.2325 67.0597 13.8615 65.4726 13.8615C63.7761 13.8615 63.393 15.5181 63.393 17.0605C63.393 18.6028 64.3234 19.4597 65.4726 19.4597C66.6766 19.4597 67.6617 18.4886 67.7164 17.2318C67.7164 17.1747 67.7164 17.1176 67.7164 17.0605Z" fill="#1A2B6B"></path><path d="M84.9589 18.08H77.6164C77.8904 19.28 78.7671 19.94 80.0822 19.94C80.9589 20 81.7808 19.58 82.3836 18.92L84.2466 21.14C83.2603 22.4 81.8356 23 79.9178 23C76.3014 23 74 20.48 74 17C74 13.52 76.3562 11 79.5342 11C82.4932 11 84.9589 13.16 84.9589 17C85.0137 17.36 85.0137 17.78 84.9589 18.08ZM77.5616 15.92H81.726C81.5616 14.66 80.5205 13.76 79.3699 13.94C78.4384 14.12 77.6712 14.9 77.5616 15.92Z" fill="#1A2B6B"></path><path d="M98 16.3134V23H94.407V16.9702C94.407 15.2985 93.7437 14.5821 92.6935 14.5821C91.5327 14.5821 90.6482 15.4179 90.6482 17.3881V23H87V11.2388H90.4824V12.4925C91.3668 11.5373 92.5276 11 93.799 11C96.1759 11.0597 98 12.6119 98 16.3134Z" fill="#1A2B6B"></path></svg>