<svg width="80" height="80" viewBox="0 0 80 80" fill="none" xmlns="http://www.w3.org/2000/svg">
<rect width="80" height="80" rx="40" fill="white"/>
<path d="M53.125 29.25L41.125 24.25C40.8125 24.125 40.3125 24 40 24C39.625 24 39.125 24.125 38.8125 24.25L26.8125 29.25C25.6875 29.75 25 30.8125 25 32C25 48.125 36.8125 56 39.9375 56C43.1875 56 55 48 55 32C55 30.8125 54.25 29.75 53.125 29.25ZM39.9375 53C34.1875 50.625 28 43 28 32.0625L39.875 27.0625C39.9375 27.0625 39.9375 27.0625 40 27.0625L52 32C52 44.6875 44.125 51.3125 39.9375 53ZM38.5 35V38.5H35C34.125 38.5 33.5 39.1875 33.5 40C33.5 40.8125 34.1875 41.4375 35 41.4375H38.5V45C38.5 45.875 39.125 46.5 39.9375 46.5C40.75 46.5 41.375 45.8125 41.375 45V41.5H44.875C45.6875 41.5 46.3125 40.8125 46.3125 40C46.3125 39.25 45.8125 38.5 45 38.5H41.5V35C41.5 34.125 40.8125 33.5 40 33.5C39.25 33.5 38.5 34.1875 38.5 35Z" fill="#375BD2"/>
</svg>
