<svg xmlns="http://www.w3.org/2000/svg" width="33" height="25" viewBox="0 0 33 25" fill="none"><path d="M16.5 4.89062C22.1719 4.89062 26.8125 6.75977 26.8125 9.01562C26.8125 11.3359 22.1719 13.1406 16.5 13.1406C10.7637 13.1406 6.1875 11.3359 6.1875 9.01562C6.1875 6.75977 10.7637 4.89062 16.5 4.89062ZM16.5 18.8125C7.34766 18.8125 0 14.6875 0 9.53125C0 4.43945 7.34766 0.25 16.5 0.25C25.5879 0.25 33 4.43945 33 9.53125C33 14.6875 25.5879 18.8125 16.5 18.8125ZM8.37891 13.8496C10.5703 14.752 13.4062 15.2031 16.4355 15.2031C19.5293 15.2031 22.3652 14.752 24.5566 13.8496C25.5879 13.4629 26.6191 12.8828 27.3926 12.1738C28.166 11.4004 28.875 10.3691 28.875 9.01562C28.875 7.72656 28.166 6.69531 27.3926 5.92188C26.6191 5.21289 25.5879 4.63281 24.5566 4.18164C22.3652 3.34375 19.5293 2.82812 16.4355 2.82812C13.4062 2.82812 10.5703 3.34375 8.37891 4.18164C7.34766 4.63281 6.31641 5.21289 5.54297 5.92188C4.76953 6.69531 4.06055 7.72656 4.06055 9.01562C4.06055 10.3691 4.76953 11.4004 5.54297 12.1738C6.31641 12.8828 7.34766 13.4629 8.37891 13.8496ZM0 14.8809C0.837891 15.8477 1.86914 16.75 3.09375 17.459V21.584C1.0957 20.2305 0 18.5547 0 16.75V14.8809ZM5.15625 22.7441V18.6191C6.96094 19.457 9.02344 20.1016 11.3438 20.4883V24.6133C8.95898 24.2266 6.89648 23.582 5.15625 22.7441ZM13.4062 20.7461C14.373 20.875 15.4043 20.875 16.5 20.875C17.5312 20.875 18.5625 20.875 19.5938 20.7461V24.8711C18.5625 25 17.5312 25 16.5 25C15.4043 25 14.373 25 13.4062 24.8711V20.7461ZM21.6562 24.6133V20.4883C23.9121 20.1016 25.9746 19.457 27.8438 18.6191V22.7441C26.0391 23.582 23.9766 24.2266 21.6562 24.6133ZM29.9062 17.459C31.0664 16.75 32.0977 15.8477 33 14.8809V16.75C33 18.5547 31.8398 20.2305 29.9062 21.584V17.459Z" fill="#375BD2" fill-opacity="0.5"></path></svg>