<svg xmlns="http://www.w3.org/2000/svg" width="33" height="34" viewBox="0 0 33 34" fill="none"><path d="M20.1094 22.8125C20.1094 24.8105 18.4336 26.4219 16.5 26.4219C14.502 26.4219 12.8906 24.8105 12.8906 22.8125C12.8906 22.6191 12.8906 22.4902 12.8906 22.2969L5.80078 17.3984C5.0918 16.9473 4.89844 15.9805 5.41406 15.2715C5.86523 14.5625 6.83203 14.3691 7.54102 14.8848L14.6309 19.7188C15.2109 19.3965 15.791 19.2031 16.5 19.2031C18.4336 19.2031 20.1094 20.8789 20.1094 22.8125ZM0 16.625C0 7.53711 7.34766 0.125 16.5 0.125C25.5879 0.125 33 7.53711 33 16.625C33 25.7773 25.5879 33.125 16.5 33.125C7.34766 33.125 0 25.7773 0 16.625ZM16.5 30.0312C23.8477 30.0312 29.9062 24.0371 29.9062 16.625C29.9062 9.27734 23.8477 3.21875 16.5 3.21875C9.08789 3.21875 3.09375 9.27734 3.09375 16.625C3.09375 24.0371 9.08789 30.0312 16.5 30.0312Z" fill="#375BD2" fill-opacity="0.5"></path></svg>