<svg xmlns="http://www.w3.org/2000/svg" xmlns:xlink="http://www.w3.org/1999/xlink" id="Layer_1" x="0px" y="0px" viewBox="0 0 971 369" style="enable-background:new 0 0 971 369;" xml:space="preserve"><style type="text/css">	.st0{fill:url(#SVGID_1_);}	.st1{fill:url(#SVGID_00000015344242511996910490000011632290083829464212_);}	.st2{fill:url(#SVGID_00000150789822647429039110000016727242729940836788_);}	.st3{fill:#1A2B6B;}</style><linearGradient id="SVGID_1_" gradientUnits="userSpaceOnUse" x1="195.6123" y1="45.5212" x2="195.6123" y2="271.5885" gradientTransform="matrix(1 0 0 -1 0 369.8898)">	<stop offset="0" style="stop-color:#375BD2"></stop>	<stop offset="1" style="stop-color:#1A2B6B"></stop></linearGradient><path class="st0" d="M378.9,273.7c0.1-0.9-0.1-1.7-0.5-2.5c-0.4-0.8-1-1.4-1.8-1.8c-5.4-2.6-10.6-5.8-15.3-9.5 c-13.2-10-23.3-23.5-29-39.1c-0.3-0.8-0.8-1.5-1.5-2c-0.7-0.5-1.5-0.8-2.4-0.8c-0.9,0-1.7,0.2-2.5,0.6c-0.7,0.4-1.3,1.1-1.7,1.9 c-4.9,10.2-11.8,19.3-20.2,26.8c-5.6,5-11.8,9.3-18.5,12.8c-93.3-9.8-179.1-55.7-239.1-127.8c-9-10.8-17.4-22.2-25.1-33.9 c-3.4,6.4-6.4,13-9,19.8c8.6,12.3,17.9,24.1,27.9,35.3c63,70.9,150.3,115.6,244.7,125.1c15.8,10.2,27.8,25.3,34.2,42.9 c0.3,0.8,0.8,1.5,1.5,2.1c0.7,0.5,1.5,0.8,2.4,0.9c0.9,0,1.7-0.2,2.5-0.6c0.7-0.4,1.3-1.1,1.7-1.9c9.9-20.5,27.3-36.4,48.7-44.3 c0.6-0.2,1.2-0.6,1.6-1.1C378.4,275.7,378.8,274.7,378.9,273.7z"></path><linearGradient id="SVGID_00000111160463855382775650000015724094522505808787_" gradientUnits="userSpaceOnUse" x1="31.8799" y1="249.9389" x2="369.1798" y2="249.9389" gradientTransform="matrix(1 0 0 -1 0 369.8898)">	<stop offset="0" style="stop-color:#375BD2"></stop>	<stop offset="1" style="stop-color:#1A2B6B"></stop></linearGradient><path style="fill:url(#SVGID_00000111160463855382775650000015724094522505808787_);" d="M368.9,174.8 c-2.1-38.6-16.2-75.5-40.3-105.6C304.4,39,271.4,17.2,234.2,6.8C197-3.5,157.4-2,121.1,11.3C84.8,24.5,53.6,48.8,31.9,80.8l4.9,7.4 c5.7,8.7,11.9,17.2,18.5,25.4C71,84.9,95.9,62.3,126,49.4c30-13,63.6-15.6,95.3-7.5s59.8,26.5,79.9,52.3 c20.1,25.8,31,57.6,31.1,90.3c0,3.3,0,6.6-0.4,9.9c1.5,0.8,2.7,2.1,3.2,3.7l0.9,2.3c5.7,14.6,14.1,27.9,24.7,39.5 c0.4-1.4,0.8-2.9,1.3-4.4C367.6,215.8,370,195.3,368.9,174.8z"></path><linearGradient id="SVGID_00000097491188258660655800000009433466263909293705_" gradientUnits="userSpaceOnUse" x1="-1.016927e-06" y1="115.563" x2="306.113" y2="115.563" gradientTransform="matrix(1 0 0 -1 0 369.8898)">	<stop offset="0" style="stop-color:#375BD2"></stop>	<stop offset="1" style="stop-color:#1A2B6B"></stop></linearGradient><path style="fill:url(#SVGID_00000097491188258660655800000009433466263909293705_);" d="M290.9,302.6c-2.6-2.8-5.3-5.5-8.1-8.1 l-3.3,2.8c-21.5,18-47.8,29.6-75.6,33.3c-27.9,3.7-56.2-0.7-81.7-12.5c-25.5-11.8-47-30.7-62.2-54.4c-15.1-23.7-23.2-51.1-23.2-79.2 c0-2.5,0-5.1,0.2-7.4c-3.7-3.7-7.2-7.4-10.6-11.4C19,157.5,12,148.9,5.4,139.9C-3.9,177.5-1.2,217,13.3,253s39.8,66.5,72.6,87.2 c32.8,20.7,71.2,30.6,109.9,28.3c38.7-2.3,75.7-16.8,105.7-41.3l4.6-3.7C301.7,316,296.6,309,290.9,302.6z"></path><g>	<path class="st3" d="M580.4,144.5c-7.4-7-16.1-12.5-26.1-16.3s-21.1-5.8-33.1-5.8c-11.9,0-22.9,1.9-33,5.8  c-10.1,3.8-18.9,9.3-26.3,16.3s-13.2,15.2-17.4,24.6c-4.1,9.4-6.2,19.7-6.2,30.9c0,11.2,2.1,21.5,6.2,30.9  c4.1,9.4,9.9,17.6,17.4,24.6c7.5,7,16.2,12.5,26.3,16.3c10.1,3.8,21.1,5.8,33,5.8c12.1,0,23.1-1.9,33.1-5.8  c10-3.8,18.7-9.2,26.1-16.2c7.4-7,13.2-15.2,17.4-24.6c4.2-9.4,6.3-19.8,6.3-31c0-11.2-2.1-21.5-6.3-30.9  C593.6,159.8,587.8,151.6,580.4,144.5z M558.4,217.5c-2.1,5.3-4.9,9.8-8.5,13.5c-3.6,3.8-7.9,6.6-12.8,8.6c-4.9,2-10.2,3-15.9,3  c-5.7,0-11-1-15.9-3c-4.9-2-9.2-4.9-12.8-8.6c-3.6-3.8-6.5-8.3-8.5-13.5c-2.1-5.3-3.1-11.1-3.1-17.5c0-6.5,1-12.4,3.1-17.6  c2.1-5.2,4.9-9.7,8.5-13.4c3.6-3.8,7.9-6.6,12.8-8.6c4.9-2,10.2-3,15.9-3c5.7,0,11,1,15.9,3c4.9,2,9.2,4.9,12.8,8.6  c3.6,3.8,6.5,8.2,8.5,13.4c2.1,5.2,3.1,11,3.1,17.6C561.4,206.4,560.4,212.3,558.4,217.5z"></path>	<path class="st3" d="M693.4,125.5l-65.9,149.2h43.1l11.6-29h63.3l11.6,29H801l-66.1-149.2H693.4z M694.7,214.5l19.1-47.7l19.1,47.7  H694.7z"></path>	<path class="st3" d="M960.6,151.1c-5.4-8.3-13-14.7-22.9-19.1c-9.9-4.4-21.6-6.6-35.3-6.6h-68.2v149.2h42.2v-39h26  c13.6,0,25.4-2.2,35.3-6.7c9.9-4.5,17.5-10.8,22.9-19.1c5.4-8.2,8.1-18,8.1-29.2C968.7,169.3,966,159.4,960.6,151.1z M919.6,196.6  c-4.3,3.8-10.9,5.8-19.7,5.8h-23.4v-43.7h23.4c8.8,0,15.4,1.9,19.7,5.8c4.3,3.8,6.5,9.2,6.5,16.2  C926.1,187.5,923.9,192.8,919.6,196.6z"></path></g></svg>