<svg version="1.1" viewBox="0 0 187.72 85.014" xml:space="preserve" xmlns="http://www.w3.org/2000/svg"><g transform="matrix(1.25 0 0 -1.25 -13.851 118.73)"><g transform="translate(28.022 30.006)"><path d="m0 0v24.1 0.843h16.72v12.208h-16.72v9.875s0.157 3.111 3.422 3.111h19.751v12.443h-25.194c-3.112 0-12.521-2.88-12.521-12.523v-50.057h14.542z"/></g><g transform="translate(91.027 30.006)"><path d="m0 0v24.1 0.843h16.72v12.208h-16.72v9.875s0.157 3.111 3.422 3.111h19.751v12.443h-25.194c-3.112 0-12.521-2.88-12.521-12.523v-50.057h14.542z"/></g><path d="m55.321 92.585h14.962v-63.21h-14.962v63.21z"/><g transform="translate(156.26 87.622)"><path d="m0 0c-3.021 3.679-7.854 4.963-9.922 4.963h-15.272c-2.068 0-6.9-1.284-9.922-4.963-1.526-1.861-2.599-4.321-2.599-7.559v-50.057h14.542v24.099 0.844 12.208 9.875s0.156 3.111 3.422 3.111h4.386c3.265 0 3.423-3.111 3.423-3.111v-9.875-3.177h-8.195v-12.523h8.195v-21.451h14.541v50.057c0 3.238-1.073 5.698-2.599 7.559"/></g></g></svg>