<svg xmlns="http://www.w3.org/2000/svg" width="608.3" height="395" viewBox="0 0 608.3 395"><g transform="translate(-143.5 -198.5)"><path d="M143.5,405.5h2.9c9.6-.2,19.2-.5,28.7-.7,6.9-.2,13.8-.3,20.7-.5l27.6-.6,11.7-.3h2.3c.2,2.8-.4,5.5-.5,8.1-.2,2.7-.5,5.4-.8,8.2a5.889,5.889,0,0,0,1.3-.5c1.9-.9,3.8-1.7,5.7-2.7a27.935,27.935,0,0,0,3.4-1.8c2.1-1.4,4-2.8,6.1-4.3a6.47,6.47,0,0,0,.9-.8c-1.3-1.7-2.5-3.4-3.8-5-.7.2-1.2.3-1.8.5-.9-1.3-.9-1.3.2-2.5a12.048,12.048,0,0,0-1.9-2.7,11.315,11.315,0,0,0-1.5.4c-.3-.4-.5-.8-.9-1.3,1.4-1.2.9-3,1.5-4.5,1.4-.1,2.2,1.2,3.5,1.2.1-2.4,0-2.6-.8-4.1-.8-1.3-1.5-2.7-2.5-4.1a35.361,35.361,0,0,1-4.1,2.6c-.3-.7-.6-1.3-.9-2.1-1.4.9-2,2.4-3.4,3.4-.2-1.1-.3-2-.5-3.1-1.4.3-2.2,1.3-3.5,1.8a5.273,5.273,0,0,1-.3-1.2,20.025,20.025,0,0,1,.4-2.4c.2-.7.6-1.3.9-2.1-1.3-.3-2.4.7-3.7.3.1-2.4,1.4-4.3,2.8-6.4-1.4.1-2,1.2-3,1.5-.5-.3-.2-.6-.1-.9.5-1.2,1-2.3,1.5-3.5.1-.3.2-.7.4-1.2-1.4.5-2.5,1.5-4,.7,1-2.8,2.4-5.3,2.7-8.3-.7-.3-1.2.2-1.7.4a11.8,11.8,0,0,0-1.6.8c-.1-.9.4-1.5.6-2.2a20.942,20.942,0,0,0,.8-2.3c.2-.7.4-1.4.6-2.3-1.3.1-1.9,1.2-3.1,1.4.1-2.6.8-5,.9-7.5-.9-.1-1,.9-1.8,1,0-.2-.2-.4-.2-.7a49.308,49.308,0,0,1,3-14.2c0-.1.2-.2.4-.5a19.281,19.281,0,0,0,4.3,4.7c1.7,1.2,3.5,2.3,5.3,3.5-.7.4-1.7.4-2.5.9,2.3,1.3,4.8,1.9,7.3,3.3-1.6.2-2.8.4-4.2.6a6.754,6.754,0,0,0,2.5,2.3c.8.6,1.7,1.2,2.6,1.8s1.8,1.2,2.9,2c-1.5,1-3,.6-4.4.8-.3.5.1.6.4.8a26.144,26.144,0,0,0,6.1,2.2c.8.2,1.7.5,2.6.7a2.685,2.685,0,0,1-1.7,1.6,16.475,16.475,0,0,1-2.2.9c1.9,1.4,4.2,1.1,6.1,1.9a7.493,7.493,0,0,1-3.3,3c1.5,1.1,3.4,1,5.1,2.1-1.3.3-2.3.5-3.6.8,1.2,1.1,2.8.9,4,1.9-1.4.7-2.7,1.4-4,2,.1.7.6.7,1,.7,1,0,2.1,0,3.1-.1.3,0,.7-.1,1.1-.1-.3,1.2-1.5,1.2-2,2,1,.7,2,1.5,3.1,2.3-1.6,1.9-3.7,1.3-5.7,1.4-.4.2-.3,1.2-1.2.9a8.533,8.533,0,0,0-1.6,0,34.248,34.248,0,0,0,4.2,7.2,11.974,11.974,0,0,1-.4-2.4,3.144,3.144,0,0,1,.5-2.1c2.4.4,2.4.4,3.8,2a1.268,1.268,0,0,0,.6-.1,2.187,2.187,0,0,0,.5-.3c0-.2.2-.4.1-.5a3.723,3.723,0,0,1-.3-3.4c.2-.6.3-1.3.5-2.1a9.57,9.57,0,0,1,3.6,3.6c1.3-.5,2.4-1.4,3.6-2-.1-.7-.2-1.3-.3-2,0-.7.1-1.3.1-2.1,1.6,0,3.1.2,4.1,1.6.8-.5,1.6-.9,2.3-1.4.3-1.3.5-2.5.8-3.8a11.065,11.065,0,0,1,2.9,1.3c.5.3.5.3,1.7-.5-1-3.5-2-7-3.1-10.7-.4.5-.7.9-1,1.3a2.847,2.847,0,0,1-4.1.8c-.8-.5-1.4-1.1-2.2-1.7-.9,1.8-1.9,3.6-4.2,4.3.2-1.3,1.2-2.3.5-3.7a11.334,11.334,0,0,1-5.8.5c.6-1,1.6-1.6,1.7-2.8-.5-.2-1-.3-1.5-.5.8-1.7,2.4-3,2.5-5.3-.8.3-1,1-1.5,1.4a13.447,13.447,0,0,1-1.4,1.1c-.6.3-1.2.5-2,.9-.1-2,1-3.6,1-5.4-1.2,0-1.9,1-2.9,1.2-.4-.4,0-.6.1-.9.7-1.4,1.5-2.8,2.2-4.2a2.693,2.693,0,0,0,.3-2.5c-1,.1-2.1.1-3.1.2-.4-.5-.1-.8,0-1.1.5-1.1,1.1-2.3,1.6-3.3-.4-.7-1-.5-1.5-.6-.4-.1-.9-.1-1.3-.2-.3-.6.2-.7.4-1a17.118,17.118,0,0,0,2-1.8,4.072,4.072,0,0,0,1.3-2.5,7.386,7.386,0,0,0-.2-1.2c-.7.2-.8.7-1.2,1-.4.2-.7.5-1.1.7-.5.2-1,.3-1.5.5a5.7,5.7,0,0,1-1.3.1c-.5,0-1,.2-1.5-.4.4-.6,1.1-1,1.5-1.5a23.126,23.126,0,0,0,2-2.4c.4-.6.4-.6.1-2-1.2.1-2.4,1.3-3.9.3,1.9-1.6,3.9-3,5-5.2.3-.7.6-1.5.9-2.2-.6-.4-.8.1-1,.3a7.318,7.318,0,0,1-4.6,2.1c-.4-.5,0-.8.2-1.2a24.008,24.008,0,0,0,2.6-6.2,6.079,6.079,0,0,0,0-3c-1.2,1-2.1,2.2-3.8,2-.1-.6.4-.9.7-1.3a13.073,13.073,0,0,0,2.7-6.8c0-.3-.1-.5-.1-.9-.5.1-.9.2-1.5.3.5-2,1.5-3.7,1.5-5.9-.9.6-1.6,1-2.3,1.5-.1-.2-.2-.3-.2-.4l3.9-15.9a.664.664,0,0,1,.4-.5c1.5,1,14.7,12.2,16.4,14-.2.5-.6.2-.9.2-1.4-.3-2.9-.7-4.2-1-.5.5-.2.8,0,1.1a8.855,8.855,0,0,0,3,2.4,32.073,32.073,0,0,0,6.7,2.6,15.57,15.57,0,0,1,1.5.6,7.3,7.3,0,0,1-7,1.3c.4.6.5,1,.8,1.2a24.416,24.416,0,0,0,3.3,2.3,33.947,33.947,0,0,0,6.6,2.7,5.7,5.7,0,0,1,2.2.9,6.063,6.063,0,0,1-3.3,2c-1.2.3-2.4.3-3.8.5,2,3.4,5.2,4.5,9.2,4.6-.5.4-.7.7-.9.8-1.3.7-2.7,1.3-4,2a10,10,0,0,0-1.4.8c1.2,1,1.6,1.1,5.2,1.5,1.8.2,3.7.4,5.6.5-1.2,1.9-4.6,3.2-8.3,3.1-.1.5.2.7.5.9a24.3,24.3,0,0,0,3.7,1.6c1.8.6,3.8,1,5.6,1.5.8.2,1.6.4,2.5.6-1,2.8-3.2,3.3-5.6,3.1-.3.5,0,.8.3,1a10.193,10.193,0,0,0,3.5,1.6,22.916,22.916,0,0,0,2.8.7,6.108,6.108,0,0,1-4.1,1.4,31.676,31.676,0,0,1-4.3-.2,13.849,13.849,0,0,0,2.6,2.3c.8.7,1.6,1.3,2.3,1.9v.4c0,.1-.1.1-.2.1-1.2.2-2.4.3-3.8.5a2.974,2.974,0,0,0,.7.8,17.026,17.026,0,0,0,5.8,1.8,7.719,7.719,0,0,0,1.5.2c.2.6-.2.8-.5.9-1.2.4-2.4.8-3.6,1.1-.6.2-1.3.3-2.1.6,1.7,1.4,3.7,2.1,5.5,3.4a4.366,4.366,0,0,1-1.3.9,6.236,6.236,0,0,1-3.3.3c-1.4-.3-2.8-.6-4.3-.8-.2.8-.3,1.5-.5,2.3-1.3.6-2.8,0-4.2.6a16.9,16.9,0,0,0,1,3.4c.3,1.1.8,2.1,1.2,3.2a15.3,15.3,0,0,0,1.3,3.2c.6.1,1.1,0,1.1-.5-.2-1.6.6-2.7,1.4-4.1a5.3,5.3,0,0,1,2.8,2.9,12.128,12.128,0,0,1,1.4-.5c-.3-2.4-.3-2.4.7-4.3,1.9.5,2.1.7,3.4,2.5.1.1.5.1.8.2-.1-2.3-.1-2.3,1.7-4.6a5.659,5.659,0,0,1,2.6,2.9c.6,0,.8-.3.7-.7-.5-1.7.4-3,.7-4.6a7.836,7.836,0,0,1,3.6,3.6c.3-.1.6-.2,1.1-.4-.2-1.5.5-2.7,1.3-4,1.4.4,2.2,1.7,3.4,2.4.7-2.1.7-2.1,2.7-3.7.3.2.5.4.8.6a6.471,6.471,0,0,1,.9.8c1.2.1,2.2,0,2.8-1.2.2-.4.8-.6,1.3-.9.8-.5,1.7-1,2.5-1.5-.1-.4-.3-.8-.2-1.1a3.38,3.38,0,0,1,.6-1.2c.7-.8,1.5-1.6,2.6-2.7-.7.2-1,.2-1.2.3-.7.3-1.4.6-2,.9-.5.2-1.2.6-1.7,0-.4-.5-.2-1.1.1-1.7a.6.6,0,0,0,.1-.4c-.3-.4-.5,0-.7,0-.8.1-1.1-.2-1.1-1,0-.2.1-.4.1-.7v-.6a3.08,3.08,0,0,1-1.2.5c-.4,0-.8-.3-1.4-.4-2.4,2.4-4.3,5.2-6.8,7.7a9.8,9.8,0,0,1-1.8-2.7c.5-.5,1-1.1,1.5-1.6a83.9,83.9,0,0,0,7.4-8.4c3.3-4.2,6.6-8.3,9.9-12.5.5-.6.9-1.1,1.4-1.7a9.246,9.246,0,0,1,3.6,1,20.932,20.932,0,0,1-2.2,2.8c-.7.9-1.5,1.7-2.2,2.6-.8.9-1.6,1.8-2.4,2.8a5.079,5.079,0,0,1,.3,1.7,11.5,11.5,0,0,1-.6,1.7l-1.5,3a1.311,1.311,0,0,0-.2,1.1c.9-.8,1.9-1.6,2.8-2.4a20.281,20.281,0,0,1,1.8-1.3.783.783,0,0,1,.8.1.829.829,0,0,1,.3.8,3.38,3.38,0,0,1-.6,1.2c-.8,1.1-1.7,2.2-2.6,3.4-.3.4-.7.9-1.1,1.5a4.442,4.442,0,0,0,2.2-.9c1.2-.6,2.4-1.2,3.6-1.7.3-.1.9-.1,1,.1.2.3.4.9.2,1.2a19.587,19.587,0,0,1-1.6,2.2,5.889,5.889,0,0,0,1.3-.5c.9-.5,1.7-.7,2.4.3,2.2-1.3,4.2-2.5,6.3-3.7a11.416,11.416,0,0,0,.1-3.7,2.482,2.482,0,0,1-1.8-2,34.836,34.836,0,0,0-1-4.4,4.964,4.964,0,0,1-.1-2.7c.9-5.1,1.8-10.2,2.8-15.2a3.647,3.647,0,0,0-.8-3.5c-.2-.2-.3-.4-.4-.5-3.3-4.4-3.4-4.4-7.8-7.6a4.452,4.452,0,0,0-3.1-1c-.6,0-1.2-.1-1.9-.1.2-.5.2-.8.4-1.2.3-.6.6-1.2.9-1.9.6,0,1.2-.1,1.8-.1,2.7,0,5.4.1,8.1.1a15.483,15.483,0,0,0,2.1-.1c0-.6.1-1.1.1-1.6-.1-2.1-.2-4.2-.4-6.3a7.91,7.91,0,0,1,.7-4,6.906,6.906,0,0,1,3.2,0c.3.9.5,1.9.8,2.8a11.5,11.5,0,0,0,3.7.1c.3-1.1.6-2,.8-3h3.2c.3,1,.5,1.9.8,2.9h4.6a6.752,6.752,0,0,0,.2-1.4c.1-1.1.3-2.2.3-3.4a56.125,56.125,0,0,0,.1-5.8c-.1-2.9-.5-5.8-.7-8.7a2.091,2.091,0,0,0-.9-1.7c-.4-.3-.4-1.1-.5-1.7-.4-2.8-.7-5.6-1.1-8.5-.1-.9-.2-1.8-.3-2.8.9-.1,1.7-.2,2.7-.3.7-.8,1.5-1.7,2.2-2.6.8-.9,1.6-1.8,2.3-2.7s1.6-1.8,2.3-2.7c.8-.9,1.5-1.8,2.3-2.7a15.71,15.71,0,0,1,2.5-2.7,20.363,20.363,0,0,1,1.5,1.7c2.7,3.3,5.4,6.6,8.2,9.9a4.114,4.114,0,0,0,2.8,1.9,102.438,102.438,0,0,1,.3,12.6c-.6.2-1.2.3-1.9.5a30.551,30.551,0,0,0-.2,5.2c1.6,1.3,3.6,1.8,5.3,3,0,.5.1,1.1.1,1.7v8.8c0,.7.1,1.5.1,2.3a5.739,5.739,0,0,0,1.2.1h2.3c.3-1.1.5-2,.8-2.9a8.552,8.552,0,0,1,3.2-.1,10.875,10.875,0,0,1,.8,3.9c0,2.4.1,4.8,0,7.2-.1,1.9-.4,3.7-.6,5.6a13.807,13.807,0,0,1-.3,2,20.278,20.278,0,0,0,.2,6.5c.2,1.5.4,3.1.7,4.8-.4.3-.8.6-1.3,1-.3,4.7,1.2,9.1,2.1,13.7a9.829,9.829,0,0,0,.5-1.6c.9-3.8,1.7-7.6,2.6-11.4a16.6,16.6,0,0,0,.3-2.2c.5-9.6.9-19.1,1.3-28.7.4-7.8.8-15.6,1.1-23.3a9.971,9.971,0,0,1,.2-1.6c3.1-2.4,6.1-4.8,9.2-7.2,2.2-1.7,2.1-1.7,2.5-4.4.4-3-.2-6-.7-8.9-.4-2.5-.7-5-1.1-7.6l13.7-14a51.651,51.651,0,0,1,5.9,2.3c1.9.7,3.7,1.6,5.7,2.2a12.906,12.906,0,0,0,.1-3.9,4.877,4.877,0,0,1-.7-.3l-.6-.3a38.156,38.156,0,0,1,2-5.3,31.474,31.474,0,0,1,5.3-.1h5.4c.6-2.1.1-4.1.4-6.2a3.114,3.114,0,0,0,.9-.7c.2-.4.2-1,.4-1.5.7-3.1,0-6.3-.2-9.4a7.674,7.674,0,0,1-.1-2.6c.2-.1.4-.3.5-.3a6.2,6.2,0,0,0,4.3-1.4,20.265,20.265,0,0,1,8.6-3.1,27,27,0,0,1,4.9-.4,9.818,9.818,0,0,1,2.9.5,3.557,3.557,0,0,1,2.5,4c-.1.8-.4,1.6-.6,2.5,4.6,1.4,9.1,2.5,13.9,2.2,4.3-.3,8.6-.7,12.9-1.4h.9a2.974,2.974,0,0,1-.7.8,45.575,45.575,0,0,1-22,8.8,29.269,29.269,0,0,1-9.8-.3c-2.9-.6-3.3-1.3-2.2-4.2a11.5,11.5,0,0,0,.6-1.7c.3-.9-.1-1.4-1.1-1.4a3.749,3.749,0,0,0-1.1.1,18.225,18.225,0,0,0-6.7,2.9,26.27,26.27,0,0,0-4.5,4.3c-.6.8-.6.8.1,1.9a2.662,2.662,0,0,1,.3,1.2v3.6a4.645,4.645,0,0,0,.6,2.3c1.2,2.3,2.2,4.7,3.4,7.2h-2.5a8.133,8.133,0,0,0-.2,3.1V241c1.8,1,3.8,1.5,5.7,2.5a6.151,6.151,0,0,1-.1,1.3c-.5,2.6-1.1,5.3-1.6,7.9a6.559,6.559,0,0,0-.1,2c.4,3.7.8,7.4,1.2,11.2a5.949,5.949,0,0,0,1.2,3.1c3.5,5.2,7,10.5,10.5,15.7a4.979,4.979,0,0,1,.9,2.9c.1,10.3.2,20.5.4,30.8a37.09,37.09,0,0,1-.7,7.4,83.728,83.728,0,0,0-1.5,16.5,38.167,38.167,0,0,0,1.3,9.5,19.749,19.749,0,0,0,2.4,5.6c.5.7,1.1,1.4,1.5,2,.6,0,.6-.3.6-.6a64.081,64.081,0,0,0,.6-14.5c-.2-1.8-.1-3.6-.2-5.4,0-.7-.1-1.5-.1-2.3-1-.7-2-1.4-3.1-2.1.2-.5.3-1,.5-1.5l5.1-10.5a6,6,0,0,0,.7-3.2c-.1-1.5,0-3,0-4.5,0-.4.1-.9.1-1.5,1.3-.1,2.4-.2,3.7-.2,1.4-2.9,2.8-5.7,4.3-8.7.6.3,1,.5,1.5.8,2.9,1.7,5.8,3.4,8.6,5.3a5.761,5.761,0,0,0,5.4.7c.4-1.1.9-2.1.3-3.4a4.931,4.931,0,0,1,.1-2.4c.1-1,.3-2.1.4-3.1a10.588,10.588,0,0,0-1.2-1,11.44,11.44,0,0,1-3.6-5.3,6.5,6.5,0,0,1,1.2-6.7,29.558,29.558,0,0,1,2.6-2.4c.5-.4,1-.6,1.6-1-.2-.7-.4-1.3-.6-1.9a44.878,44.878,0,0,1-1.9-22.1,21.179,21.179,0,0,1,1.2-4.1,1.154,1.154,0,0,1,1.8-.7,19.236,19.236,0,0,1,3.1,1.8,40.092,40.092,0,0,1,6.8,6.2,7.469,7.469,0,0,0,5.6,2.8c3.9.3,7.7,1,11.6,1.5.7.1,1.3.1,2.1.2.6-.9,1.1-1.9,1.7-2.8a52.2,52.2,0,0,1,6.7,6.2c-1.3,1-3,.8-4.4,1.8-.3,2.2-.7,4.5-1,6.8-.4,3-.8,5.9-1.3,8.9a3.054,3.054,0,0,0,.5,2.3c1.7,2.5,3.3,5,4.9,7.6a28.638,28.638,0,0,1,2.2,4.7c.7,1.8.3,2.4-1.6,2.8a21.583,21.583,0,0,1-7.6-.2,42.142,42.142,0,0,1-19.7-8.6c-.3-.2-.6-.4-1-.7,0,.3-.1.6,0,.8,1.1,2.9,2.2,5.9,3.4,8.7,1.7.4,3.3-.1,4.9.4,0,.7.1,1.5.1,2.2v12.1a8.53,8.53,0,0,0,.8,3.9c.7,1.6,1.3,3.2,2,4.8a7.592,7.592,0,0,0,.4,1.1c-.9.6-1.8,1.1-2.8,1.8-.1,13.1-.2,26.2.7,39.4a2.928,2.928,0,0,0,2.2.3,4.157,4.157,0,0,0,.2-2.2c-.1-1.7-.2-3.4-.3-5.2a3.127,3.127,0,0,1,.4-1.9c2.1-3.3,2.5-7,2.6-10.8.1-4.7.2-9.4.4-14.1,0-.4.1-.7.1-1.2.4,0,.9-.1,1.3-.1,2.5.2,5.1.5,7.6.8.4,0,.9.1,1.4.1.7-1.5,1.4-3,2-4.5a6.966,6.966,0,0,0,.5-3.5c-.1-1.4-.3-2.8-.4-4.2,0-.5-.1-1-.1-1.6a2.825,2.825,0,0,1,3.6-2.9,8.639,8.639,0,0,1,2.1.7,3.087,3.087,0,0,1,1.8,1.9,9.429,9.429,0,0,1,.6,4.4c0,.7-.1,1.5-.1,2.1a5.049,5.049,0,0,0,2.3.5c1,.2,2.1.4,3.1.6a2.384,2.384,0,0,1,1.6,1.5,11.883,11.883,0,0,1,.5,6.2c0,.1-.2.2-.4.3-.2-.2-.6-.4-.7-.7a18.64,18.64,0,0,1-1-2,2.964,2.964,0,0,0-2.9-1.8,1.3,1.3,0,0,0-1.4.9c-.3.9-.5,1.9-.8,2.9a9.252,9.252,0,0,0,1,.5c3.6.4,7.1.8,10.7,1.1a3.751,3.751,0,0,0,1-.1,4.949,4.949,0,0,0-.4-1.3,2.678,2.678,0,0,1-.1-2.6c.2-.4.3-.8.5-1.3.8-.1,1.6-.1,2.5-.2.2-1.3.3-2.6.6-3.8a19.686,19.686,0,0,0-.3-8.7c-.5-1.8-.7-3.7-1.1-5.5-.1-.4-.2-.7-.3-1.1a4.6,4.6,0,0,0-2.6,0,67.658,67.658,0,0,1-10.1.7,3.614,3.614,0,0,1-2.5-.6,2.272,2.272,0,0,1,.5-2.1,16.825,16.825,0,0,1,2.4-2.9,20.854,20.854,0,0,1,25.9-2.4,7.513,7.513,0,0,1,2.4,2.3.858.858,0,0,1-.3,1.3,9.172,9.172,0,0,1-2.3.9c-2.8.6-5.5,1.2-8.3,1.8a19.138,19.138,0,0,1-2.1.4c-.5.6-.3,1.2-.2,1.8.5,2.8.9,5.6,1.5,8.4a10.857,10.857,0,0,1,.1,3.1c-.2,1.9-.4,3.9-.6,5.8v.8c.6.2,1.2.4,1.9.6a5.781,5.781,0,0,1,.5,1.4,1.962,1.962,0,0,1-.1,1.5c-.4.8-.8,1.6-1.3,2.5a55.062,55.062,0,0,0,7.9,1c2.6.3,5.2.5,7.9.9,2.2,10,4.1,20,6.3,29.8.7.2.8-.2,1-.5,1.2-1.8,2.5-3.6,3.7-5.4a3.232,3.232,0,0,1,1.2-1.1c-.7,3.3-1.4,6.5-2.1,9.9a9.881,9.881,0,0,1,1.5.9,4.88,4.88,0,0,0,.7-.3c2-1.5,3.9-3,5.9-4.5a9.319,9.319,0,0,1,1.5-1,27.106,27.106,0,0,1-2.2,3.9c-.6,1.1-1.3,2.2-2,3.4.5.3.8.5,1.2.7a55.063,55.063,0,0,0,3.8-5c1.3-1.7,2.6-3.5,3.8-5.3,1.2-1.7,2.5-3.4,4-5.5a7.091,7.091,0,0,1-.2,1.4c-1.8,4.2-3.5,8.4-5.3,12.6a18.033,18.033,0,0,0-.8,2.1,1.536,1.536,0,0,0,2.1-.3c.7-.9,1.4-1.7,2.2-2.6.3-.4.7-.7,1.2-1.3.7,1.5,0,3,.5,4.3a13.552,13.552,0,0,0,2,.2c.3.4.6.8,1,1.3,2.2-.9,4.3-1.8,6.8-2.8a11.587,11.587,0,0,1-2.4,2.5c-.7.7-1.4,1.3-2.1,2,.3.7.8.4,1.2.5a4.483,4.483,0,0,0,1.2.1c.3,1.1.6,2.2,1,3.3,1.3.6,2.7,0,4.1.4.3.8.6,1.6,1,2.5a36.975,36.975,0,0,0,4.9-3.7c1.5-1.2,3-2.4,4.7-3.7.1.9-.4,1.3-.7,1.8s-.7,1-1,1.5c-.4.6-.7,1.1-1.1,1.7-.3.5-.7,1-1,1.5s-.7,1-1,1.5-.6,1-.9,1.6a57.275,57.275,0,0,0,6.9,1.6,58.583,58.583,0,0,0,2.6-5.7c.9-2,1.7-4,2.5-6a41.16,41.16,0,0,0,2.3-5.8c-1.4-.6-2.6-1.2-3.9-1.9-.2-1.3-.4-2.4-.6-3.9,2,3.1,2.3,3.2,5.2,3.7a6.659,6.659,0,0,0,.9-4.4c-.5-3.4-1-6.8-1.3-10.2a22.557,22.557,0,0,1,0-4.5c.1-2.2.4-4.3.5-6.5a12.036,12.036,0,0,0,0-1.9,7.707,7.707,0,0,0-2.7-1.7l-1.5-.6c-.8-.2-1.1-.8-1.3-1.6-.6-.1-1.2-.1-2-.2-.5-.7-1.1-1.4-1.9-2.5,1.1.4,1.5,1.1,2.3,1.6a15.427,15.427,0,0,0,1.7-.5v-4.8a6.9,6.9,0,0,1-1,.4.608.608,0,0,1-.9-.4,3.887,3.887,0,0,1-.2-1.5c-.1-1.1,0-2.2-.2-3.4-.8,0-.9.6-1.2.9a2.836,2.836,0,0,1-1.1.8,4.193,4.193,0,0,1-1.6.1c-.5-1.5-.9-2.9-1.4-4.5-1.2.9-1.8,2.7-3.8,2.1-.5-.8-1.1-1.8-1.8-2.9-.7,1.7-.7,3.6-2.6,4.5-.8-.6-1.5-1.2-2.5-2-.1,1.6.5,3.1-.4,4.4-.7-.2-1.3-.3-2.1-.5-.4.8-.4,2-1.7,2.2a6,6,0,0,1-2-1.9,14.6,14.6,0,0,1-3.2-8.5,21.311,21.311,0,0,1,5.3-15.5,12.865,12.865,0,0,1,4-3.3,65.179,65.179,0,0,0,8.2-5.5c1.5-1.2,3.1-2.4,4.6-3.6a8.051,8.051,0,0,1,3.2-1.6c.6-.1,1.2-.3,1.7-.4a36.57,36.57,0,0,0,6.5-1.7,14.639,14.639,0,0,1,10.7.2,42.394,42.394,0,0,1,17.5,12.9c2.3,2.9,4.6,5.7,7.1,8.4a26.637,26.637,0,0,1,4.2,6.3c.7,1.3,1.3,2.7,2,4a7.075,7.075,0,0,1,.5,5.7,32.941,32.941,0,0,1-1.6,4.4,21.713,21.713,0,0,1-5.1,6.7c-.3-.4-.6-.7-.8-1-.4-.6-.1-1.5-.9-2.2-.6,1.7-1.2,3.2-1.7,4.6-1.5.4-1.6-.9-2.1-1.7-.9.6-1.1,1.8-2.1,2.4-1.6-1.1-1.1-2.6-1.2-4.1-.9,0-1.3.7-1.9,1.1-.7.4-1.3.3-1.6-.5-.2-.5-.3-1-.5-1.7-.3.5-.6.8-.8,1.2a16.171,16.171,0,0,1-1,1.8c-.8,1.1-1.9.9-2.6-.3-.1-.1-.1-.3-.3-.5a9.983,9.983,0,0,0-2.2,2.4,5.258,5.258,0,0,1-2.8,1.8c-1.2.4-2.2-.2-2-1.5v-1.1a10.379,10.379,0,0,0-1,.4c-.7.4-1.3,1-2,1.4a1.145,1.145,0,0,1-1.7-.6,13.641,13.641,0,0,1-.4-1.7,12.036,12.036,0,0,1,0-1.9c-.8-.3-1.2.3-1.8.5a1.422,1.422,0,0,0-.2.6l-.3,3.6c-.1,2.1-.2,4.2-.4,6.3a30.631,30.631,0,0,0,2.8,15.5c.5,1.1,1,2.3,1.6,3.6.4-.2.8-.3,1.2-.5s.8-.3,1.3-.5c1.7.7,3.4,1.5,5.1,2.2,1.9-.9,1.9-.9,1.2-3.4-.8.4-1.1,1.5-2.3,1.4a9,9,0,0,0-.5-.9,5.821,5.821,0,0,1-.5-1.1,10.974,10.974,0,0,1-1.2,1.1c-.7.5-1.3.3-1.6-.7,0-.1-.1-.3-.1-.4a.6.6,0,0,0-.4.1c-1.2,1.1-1.8,1-2.1-.5a17.457,17.457,0,0,1,.5-10.6,7.56,7.56,0,0,1,2.3-3,8.907,8.907,0,0,1,3.3-1.8,21.288,21.288,0,0,1,10.9-.8,10.711,10.711,0,0,1,3.5,1.4,27.026,27.026,0,0,1,6.9,7,7.662,7.662,0,0,1,.2,8.9,14.11,14.11,0,0,1-5.9,5.7c-.8.4-.8.4-2,0,.2-.5.4-1.1.6-1.7-.4.1-.8.2-1.1.3-1,.2-1.5-.2-1.7-1.2-.1-.4,0-.7-.1-1.2-.8.1-1.3.7-2,1-.6.3-1.1.8-2,.4-.1-.5-.1-1.1-.2-1.6h-.4a2.092,2.092,0,0,0-.6.4,5.241,5.241,0,0,0-2.8,5.4,41.306,41.306,0,0,1,.1,5,5.36,5.36,0,0,0,1.1.5,4.679,4.679,0,0,1,2.3,2.3,8.472,8.472,0,0,1,0,7.6c-1.3,2.7-3.1,2.9-5.6,2.5a3.128,3.128,0,0,1-1-.5c-3.4-2.2-3.3-9.5.1-11.7.5-.3,1.1-.5,1.7-.8a49.7,49.7,0,0,0,.1-6.7,30.393,30.393,0,0,0-4.5-1.9c-1.5.8-3.1,1.6-4.7,2.4-.6.3-.7.9-.8,1.5-.5,2.1-1,4.2-1.4,6.4-.6,3.3-1.1,6.6-1.6,10-.1.9-.1,1.8-.2,2.8a11.216,11.216,0,0,0,1.3.5c2.2.6,4.5,1.2,6.8,1.6a3.644,3.644,0,0,1,2.6,1.9c1.8,3.1,3.7,6.2,5.6,9.2.4.6.8,1.3,1.2,2a26.728,26.728,0,0,0,4-.1c5.2-.4,10.4-.8,15.7-1.2,4.8-.4,9.5-.8,14.3-1.2,4.5-.4,9-.7,13.4-1,5.1-.4,10.1-.8,15.2-1.2,4.3-.3,8.7-.7,13-1,3.5-.3,7-.6,10.5-.8,1.4-.1,2.8-.1,4.3-.1V592.8h-2.5l-13.2-1.5c-5-.5-10-1.1-15-1.6-3.6-.4-7.3-.7-10.9-1.1-4.2-.4-8.3-.8-12.5-1.2-3.9-.4-7.9-.7-11.9-1.1-4.5-.4-9.1-.8-13.6-1.2s-9-.7-13.4-1.1c-5.2-.4-10.4-.8-15.7-1.2-5.1-.4-10.2-.7-15.2-1.1-5.7-.4-11.5-.8-17.3-1.1-6.4-.4-12.9-.7-19.3-1.1-7.2-.4-14.3-.8-21.5-1.1-9-.4-17.9-.8-26.9-1.1-11.7-.4-23.3-.9-35-1.1-20.1-.5-40.1-.7-60.2-.7-23.4,0-46.9.2-70.3,1-11.1.4-22.1.7-33.2,1.1-4,.1-8.1.3-12.1.5-7.6.4-15.1.8-22.6,1.2-6.6.3-13.2.7-19.7,1.1-9,.5-18.1,1.2-27.1,1.8-2.5.2-5.1.4-7.6.6-5.2.4-10.4.8-15.7,1.2-4.4.3-8.8.7-13.2,1.1-4.5.4-8.9.8-13.4,1.2-4,.3-7.9.7-11.9,1.1-4.2.4-8.3.8-12.5,1.2-3.5.3-7,.7-10.5,1.1-4.9.5-9.8,1.1-14.7,1.6-4.5.5-8.9,1-13.4,1.5-1.6.2-3.2.5-4.9.7C143.5,530.1,143.5,467.8,143.5,405.5Zm136.2-21.2c0,.1-.1.3-.1.4s.1.1.1.2c.1-.1.2-.2.2-.3s-.1-.2-.2-.3a6.294,6.294,0,0,0-.9-3.3c-.2-.4-.6-.3-1,.2a10.517,10.517,0,0,0,1.7,3.1ZM499.9,555.7a.774.774,0,0,0,.1-.3l-1.8-50.7c0-.1.1-.1.1-.2a.438.438,0,0,1,.3-.1c3.9,9.3,7.8,18.7,11.7,28.1s7.7,18.8,11.7,28.2c8.5-.6,16.9-1.5,25.4-2.1a11.047,11.047,0,0,0,1.6-.3c0-.6.1-1.2.1-1.8v-6.3c-.3-36.1-.5-72.2-.8-108.3,0-5.2,0-10.5-.1-15.7,0-.6-.1-1.3-.1-1.9-2.1-.4-21-.5-30.6-.2a5.852,5.852,0,0,0-1.3.2,7,7,0,0,0,0,2.5c.1,1.3.2,2.7.3,4,.3,4.6.7,9.1,1,13.7l1.2,15c.4,5.1.8,10.1,1.2,15.2.2,3.1.5,6.3.7,9.4,0,.3.2.8-.4.9-1.3-3.3-2.6-6.5-4-9.8-1.3-3.3-2.7-6.7-4-10s-2.6-6.5-3.9-9.8-2.7-6.7-4-10-2.6-6.5-4-9.8-2.6-6.7-4.1-9.9h-1c-8.6,1.7-17.2,3.5-25.7,5.2-.3.1-.5.2-1,.4V554.6a5.019,5.019,0,0,0,.2,1.2C470.7,556,497.9,556,499.9,555.7ZM376.4,507.5c.2-.3.4-.4.5-.6a37.06,37.06,0,0,0,11.8-18.2,52.851,52.851,0,0,0,.7-29.5,46.776,46.776,0,0,0-10.9-20.9c-7.1-7.8-15.8-12.1-26.5-11.9-6,.1-12,0-18,0H313.1a3.794,3.794,0,0,0-2.3.3,13.128,13.128,0,0,0-.1,2.8V556.8c0,.4.2.8.2,1.2,1.9.2,26.9.4,31.8.2a5.985,5.985,0,0,0,1.2-.2c.1-1.1.2-2.1.2-3.2,0-1,.1-1.9.1-2.9s0-2.1.1-3.1a28.1,28.1,0,0,1,.1-2.9c0-1,.1-2.1.2-3.1,0-1,.1-2.1.1-3.1a28.1,28.1,0,0,1,.1-2.9c0-1,0-2.1.1-3.1,0-1,.1-2.1.1-3.1s.1-1.9.1-2.9.1-2.1.1-3.1a28.1,28.1,0,0,1,.1-2.9,14.65,14.65,0,0,1,.3-3.4,6.774,6.774,0,0,1,.9,2.3c3.9,13.5,7.9,27,11.8,40.5.2.7.5,1.4.7,2.1h1.2c10.9-.9,21.8-1.8,32.6-2.8.1,0,.2-.2.4-.3a6.367,6.367,0,0,0-.7-2.7q-7.8-23.85-15.6-47.8A10.811,10.811,0,0,0,376.4,507.5Zm-70.3-13.6a187.667,187.667,0,0,0-1.3-22.8,102.761,102.761,0,0,0-3.2-15.6,48.684,48.684,0,0,0-7.1-14.9,32.9,32.9,0,0,0-19.4-13.2,47.522,47.522,0,0,0-23.1.1,32.6,32.6,0,0,0-14.5,7.8,39.478,39.478,0,0,0-8.2,11.2,67.145,67.145,0,0,0-5.4,16.4,149.282,149.282,0,0,0-2.6,25,170.041,170.041,0,0,0,1.2,27.6,96.677,96.677,0,0,0,3.3,16,50.2,50.2,0,0,0,7.3,15.3A32.892,32.892,0,0,0,252.3,560a45.911,45.911,0,0,0,21.8.2,32.883,32.883,0,0,0,20.4-13.7,48.311,48.311,0,0,0,5.8-11.3,87.222,87.222,0,0,0,4.8-22.1A141.271,141.271,0,0,0,306.1,493.9Zm423.2,16.3a6.247,6.247,0,0,0,.1-1.2V480.7a5.985,5.985,0,0,0-.2-1.2c-.9,0-1.7-.1-2.5-.1H710.1a3.408,3.408,0,0,1-2.2-.3c-.2-1.7-.4-15.3-.2-19.8a5.985,5.985,0,0,1,.2-1.2,6.752,6.752,0,0,1,1.4-.2c4.9-.2,9.9-.3,14.8-.5,2.6-.1,5.2-.2,7.9-.3a5.019,5.019,0,0,0,1.2-.2c.2-1.6.3-34.5.2-37.2a2.919,2.919,0,0,0-.2-.9h-1.8c-5.4.4-10.9.9-16.3,1.3l-19.2,1.5c-6.9.6-13.9,1.1-20.8,1.7a5.987,5.987,0,0,0-1.2.2c0,.7-.1,1.4-.1,2.1-.2,34.2-.1,140.6.2,142.4a1.422,1.422,0,0,0,.6.2l57.6,4.2a6.639,6.639,0,0,0,1.3-.1V543.9a41.244,41.244,0,0,0-.2-7H710.8c-.7,0-1.5-.1-2.1-.1-.1-.3-.2-.4-.2-.6,0-.6-.1-1.2-.1-1.8,0-7.9,0-15.9.1-23.8,0-.1,0-.2.1-.2,0-.1.1-.1.4-.3,2.1-.1,4.4,0,6.7,0h6.7C724.5,510.2,726.8,510.3,729.3,510.2ZM193.5,477.3a6.245,6.245,0,0,1-.1-1.2V452.3a7.386,7.386,0,0,1,.2-1.2h26c.1-.4.3-.5.3-.8l.3-2.7.6-7.2c.7-7.1,1.4-14.3,2-21.4a3.943,3.943,0,0,0-.1-2.4c-1.8-.3-38.9-.5-62.4-.2-.7,0-1.3.1-2,.1a6.3,6.3,0,0,0-.3,3V575.1a6.882,6.882,0,0,0,.2,1.3,3.752,3.752,0,0,1,1-.1c11-2,21.9-4.1,32.9-6.1a9.738,9.738,0,0,0,1.1-.5v-57a9.972,9.972,0,0,1,.2-1.6h16.5a54.678,54.678,0,0,0,5.7-.1,12.75,12.75,0,0,0,.1-1.9c.1-2.8.1-5.7.1-8.5.1-7,.3-13.9.4-20.9a3.794,3.794,0,0,0-.3-2.3C208.6,477.3,201.2,477.3,193.5,477.3ZM596.4,437c-.3,2.1-.4,25.4-.2,32a7.841,7.841,0,0,0,.2,1.4c.8,0,1.5.1,2.3.1h14.1c.7,0,1.3.1,2,.1a10.558,10.558,0,0,1,.2,3v91.1a7.9,7.9,0,0,0,.3,1.3c.5,0,1,.1,1.4.1,10.8,0,21.6,0,32.3-.1.1,0,.1,0,.2-.1.1,0,.1-.1.3-.3a8.561,8.561,0,0,0,.1-2.8v-95a7.9,7.9,0,0,1,.3-1.3c3.3-.1,6.4,0,9.5-.1,3.2,0,6.4.1,9.7-.1,0-.9.1-1.7.1-2.5V434.4c0-.5-.2-1-.2-1.4C665.9,433.1,598.7,436.7,596.4,437ZM410.3,460.4a10.342,10.342,0,0,1,.2,3v92.7a9.322,9.322,0,0,0,.2,1.4c.9,0,1.7.1,2.5.1h30.5a12.088,12.088,0,0,0,1.4-.3V467.4a5.987,5.987,0,0,1,.2-1.2c.8,0,1.5-.1,2.3-.1h14.6c.6,0,1.4.2,1.9-.3.3-2.2.2-31.5,0-33.2a.52.52,0,0,0-.4-.2c-23.3-1.9-46.5-3.8-69.8-5.7h-1.1c-.1,0-.1,0-.2.1-.1,0-.1.1-.3.2,0,.4-.1.8-.1,1.3v30.5a9.971,9.971,0,0,0,.2,1.6h12A58.059,58.059,0,0,1,410.3,460.4ZM591.7,562a9.679,9.679,0,0,0,.2-2.9V431.6a7.9,7.9,0,0,0-.3-1.3H557.1a2.544,2.544,0,0,0-.7.2,9.307,9.307,0,0,0-.1,2.9V560.9a7.9,7.9,0,0,0,.3,1.3h34.2A2.919,2.919,0,0,0,591.7,562ZM260.8,404.4l.8-.4a160.78,160.78,0,0,1,16.8-10.3c.2-.1.4-.4.7-.6-.3-.5-.7-1-1-1.6a11.32,11.32,0,0,1-3.3,2.9l-.6-.3a4.349,4.349,0,0,1-.7-.4c-1.8.9-3.7,1.5-5.3,2.5l.3,1.2c-1.1.6-2.1,1.2-3.2,1.8l-1.3-1.3-.7.7a11.11,11.11,0,0,0,.7,1.6c-1.1.7-2,1.6-3.3,1.8-1.3-1.6-1.3-1.6-2.1-1.4A24.791,24.791,0,0,0,260.8,404.4ZM525.5,272.8a8.264,8.264,0,0,1,1.3.7c.6-.5,1.4-.8,1.8-1.6a1.522,1.522,0,0,0-1.7-1.1l-11-.3a9.21,9.21,0,0,0-.9.3c1.4,1.7,2.7,3.2,4.1,4.8,2.1-.4,4.1-.9,6.1-1.3C525.3,273.7,525.4,273.3,525.5,272.8ZM287.3,389.4c.7-.3,1.2-.5,1.7-.7,5.4-2.3,10.9-4.3,16.4-6.1a21.723,21.723,0,0,1,2.4-.7,1.72,1.72,0,0,0,1.3-1.5c-.5,0-1,.1-1.6.1-.3-.8-.6-1.6-1-2.8-.3.6-.7.8-.6,1.1a9.545,9.545,0,0,0,.4,2.1c-1.2.4-2.4.7-3.6,1.1-.2-.5-.4-.9-.6-1.3-.1-.4-.3-.7-.8-.5-.4.1-.3.4-.3.7a9.852,9.852,0,0,1,.2,1.7,11.548,11.548,0,0,1-3.6,1.1c-.3-.6-.5-1.1-.8-1.6-.6-.1-1,0-1,.6s.5,1.1,0,1.8c-1.1.2-2.1.8-3.4.7-.3-.5-.5-.9-.8-1.4-.9.9.4,1.6-.3,2.5a13.338,13.338,0,0,1-3.2,1.1,16.175,16.175,0,0,0-1-1.8,6.375,6.375,0,0,0-.7.2,1,1,0,0,0-.4.5A20.445,20.445,0,0,1,287.3,389.4ZM527.7,277.6q-1.35,2.7-2.7,5.7c1,1.3,1.8,2.5,2.8,3.6.1.2.3.3.6.5a6.9,6.9,0,0,0,.4-1c.8-3.2,1.6-6.4,2.3-9.6a2.769,2.769,0,0,0,.1-.9c0-.7-.2-1.2-1-1.3a20.029,20.029,0,0,0-1.4,1.6c.1.5.1.8.2,1.2A6.876,6.876,0,0,0,527.7,277.6ZM272.4,391.9a45.834,45.834,0,0,0-4.4-5.3c-1.4.9-2.7,1.7-4.1,2.5a39.2,39.2,0,0,0,3.2,5.3C268.9,393.5,270.6,392.7,272.4,391.9ZM501.3,288.3c-2.1.7-3.7,1.9-4.1,4.2a5.728,5.728,0,0,0,.8,3.4c.4.7.8,1.6,1.8,1.9.5-2.5.9-4.8,1.4-7.1.1-.7.2-1.3.3-2Zm40.5,46.8a2.385,2.385,0,0,0-2.2.1,9.72,9.72,0,0,0-3.4,3.3,48.067,48.067,0,0,0,6.5.8A17.3,17.3,0,0,0,541.8,335.1ZM332.1,310.9a49.813,49.813,0,0,0,4.6,4.6c.1.1.3-.1.5-.1-.2-1.4.1-2.9-.5-4.5A23.469,23.469,0,0,0,332.1,310.9ZM521,278a14.422,14.422,0,0,0,2.2,2.7,26.888,26.888,0,0,0,3.5-4.2,5.92,5.92,0,0,0-.4-.6l-.6-.3A19,19,0,0,0,521,278ZM277.4,389.8c-1.2-2.5-2.2-4.7-3.4-6.9-.8.6-1.6.7-2.1,1.6,1.2,1.8,2.7,3.5,4.1,5.2C276.2,389.9,276.7,389.8,277.4,389.8Zm362.3-46.5c-.9-.9-1.7-1.5-2-2.6-.4-1.1.1-2,.4-3a3.745,3.745,0,0,0-1-.6,2.163,2.163,0,0,0-1.2,1.9v3.4c1,.4,1.9.7,2.8,1A3.75,3.75,0,0,0,639.7,343.3Zm16.7,42.4a3.139,3.139,0,0,0-1.2,2.7,2.586,2.586,0,0,0,1.2,2.5A3.179,3.179,0,0,0,656.4,385.7Zm-397.2,6.2a30.7,30.7,0,0,0,2.6,4.3c.2.4.6.2,1.3-.5-.8-1.4-1.7-2.9-2.6-4.5A8.262,8.262,0,0,1,259.2,391.9Zm25.6-13.3c-1.2.3-1.4.4-1.1,1,.4,1.3.9,2.5,1.4,3.7.1.4.4.7.8.6a1.969,1.969,0,0,0,.8-.4C286,381.9,285.4,380.3,284.8,378.6Zm18.9-7.1a28.262,28.262,0,0,0,1.2,4.4c0,.1.1.1.1.2a1.268,1.268,0,0,0,.6.1c.1,0,.3-.1.3-.2a.661.661,0,0,0,.1-.6c-.3-1.4-.6-2.7-1-4a2.035,2.035,0,0,1-.5-.1C304.4,371.2,304.2,371.3,303.7,371.5ZM288.5,377c.8,1.8,1.1,3.6,2.3,5.3.2-.4.5-.7.5-.9a21.418,21.418,0,0,0-1.3-4.8C289.5,376.7,289.2,376.8,288.5,377Zm20.5-7.3a14.162,14.162,0,0,0,.4,2,16.552,16.552,0,0,0,.6,2.1,1.012,1.012,0,0,0,.7.4,1.47,1.47,0,0,0,.5-.6.661.661,0,0,0-.1-.6c-.3-1.1-.6-2.3-1-3.4,0-.1-.2-.2-.4-.3C309.6,369.4,309.3,369.5,309,369.7Zm-12.6,9.8c-.5-1.5-.9-2.9-1.3-4.3-.1-.2-.5-.3-.7-.3-.1,0-.3.4-.3.5.4,1.4.7,2.8,1.1,4.2,0,.1.4.3.5.3C296,380,296.1,379.7,296.4,379.5Zm208.1-81.3c.7-1.3.7-1.4.7-3.7a2.182,2.182,0,0,0-2.1-.4c.3,1.1.6,2,.9,3A5.358,5.358,0,0,1,504.5,298.2ZM301.3,378c-.5-1.5-.8-2.8-1.2-4.1-.1-.3-.3-.5-.4-.8-.2.1-.6.2-.6.3a12.174,12.174,0,0,0,1.3,4.6C300.5,378.1,300.8,378,301.3,378Zm-51.6,19.6a16.47,16.47,0,0,0,2.3,3.2c.1.1.5.1,1.2.1a20,20,0,0,0-2.5-3.4C250.5,397.3,250.1,397.5,249.7,397.6Zm7.7,1c.6-.3.7-.5.5-.8-.7-1.1-1.3-2.1-2-3.2-.1-.1-.3-.1-.5-.2,0,.2-.1.4,0,.5A27.25,27.25,0,0,0,257.4,398.6Zm-1,8.1.3-.3c-.7-1.2-1.4-2.4-2.2-3.6-.3-.4-.6-.2-.8.4C254.6,404.3,255.5,405.5,256.4,406.7Zm58.9-39.6c-.7.2-1,.3-1.4.4.2.6.4,1.1.7,1.9A20.154,20.154,0,0,1,315.3,367.1Zm-3.5,9.4c-.1-.1-.1-.1-.2-.1-.3.1-.6.1-.8.2a1.1,1.1,0,0,0,0,.8c.2.3.5,0,.7-.3Z"/><path d="M347.2,490.7c-.3-2-.3-34.3,0-36.1a4.007,4.007,0,0,1,3.2.6,10.015,10.015,0,0,1,4.4,4,20.511,20.511,0,0,1,2.3,6.7,37.664,37.664,0,0,1-.4,14.2,18.784,18.784,0,0,1-2.6,6.4,10.9,10.9,0,0,1-4.4,3.8A3.538,3.538,0,0,1,347.2,490.7Z"/><path d="M269.6,494.4c-.2,7.2-.3,14.4-.6,21.5a73.384,73.384,0,0,1-1.3,12.3c-.2,1.1-.5,2.2-.8,3.3a4.714,4.714,0,0,1-.6,1.5c-.5,1-1,1.9-2.2,2-1.2,0-1.8-.9-2.3-1.9a6.191,6.191,0,0,1-.7-1.9l-.6-2.4a61.4,61.4,0,0,1-1.2-10.5c-.3-6.2-.4-12.4-.5-18.6-.1-6.1,0-12.1.1-18.2.1-5.4.3-10.8.9-16.1.3-2.3.8-4.6,1.2-6.8a9.173,9.173,0,0,1,.9-2.3c.5-1,1.1-1.9,2.3-1.8,1.2,0,1.8,1,2.3,1.9a12.536,12.536,0,0,1,.9,2.5,49.522,49.522,0,0,1,1.3,7.7c.6,6.8.8,13.6.9,20.4v7.4Q269.45,494.4,269.6,494.4Z"/></g></svg>