<svg xmlns="http://www.w3.org/2000/svg" width="599.9" height="142.4" viewBox="0 0 599.9 142.4"><g transform="translate(-20.2 -249.6)"><path d="M302.5,392,287,365.2v-84h-9.1l24.7-31.6V392Zm36-142.4-24.7,31.6h9.1V391.9l15.6-26.7Zm-65.8,86.3-4.1,9.2a.752.752,0,0,1-.7.5H235.7l3.8-3.8V293.2l-3.8-3.8h18.7l-3.8,3.8v46.1h13.9Zm-38.1,9.7H217.3l2.9-3.1L217,331.6H204.1l-3.3,11,3,3H186.5l4.7-4.6,13.9-47.9-3.3-3.8h18l-3.6,3.8,13.7,47.8,4.7,4.7Zm-19.1-20.2-5-17.4-5,17.3Zm-34.8-29.8h11.1l4.5,3.3-2.3-8.6a.974.974,0,0,0-1-.8H157a1.077,1.077,0,0,0-1,.8l-2.3,8.6,4.5-3.3h11.1v46.2l-3.8,3.8h19l-3.8-3.8ZM155.5,341l4.7,4.6H146.8c-1.9-2.9-12.7-23.1-12.7-23.1h-4.5v19.3l3.8,3.8H114.6l3.8-3.8V293.2l-3.8-3.8h29.9c4.5,0,5.7,2.5,5.7,4.5V317a5.476,5.476,0,0,1-5.5,5.1C144.7,322.4,155.5,341,155.5,341Zm-16.3-43.5a2.011,2.011,0,0,0-2.1-1.9h-7.7v20.5h7.9c1.5,0,1.7-.8,1.7-1.5Zm-27.6-3.7v47.5c0,2.3-1.3,4.2-6.1,4.2H81.2c-3.1,0-5.8-1.5-5.8-4.2V293.8c0-2.3,1-4.5,6.1-4.5h24.2C109.1,289.3,111.6,290.8,111.6,293.8Zm-11.1,45.5V299.1c0-2.4-1-3.5-2.3-3.5H86.9V336c0,2.1,1.1,3.3,2.3,3.3ZM72,345.5h0l-3.8-3.8V293.1h0l3.8-3.8H57.2a.458.458,0,0,0-.5.4c-.9,3.9-10.7,33.5-10.7,33.5s-10.1-29.7-11.1-33.6a.664.664,0,0,0-.5-.4H20.2L24,293h0v48.7l-3.8,3.8H39l-3.8-3.8V315.5l10.7,30,10.6-30v26.2l-3.8,3.8Zm531-49.9h11.1l4.5,3.3-2.3-8.6a.974.974,0,0,0-1-.8h-36a1.077,1.077,0,0,0-1,.8l-2.3,8.6,4.5-3.3h11.1v46.2l-3.8,3.8h19.1l-3.8-3.8Zm-18.9,49.9H566.8l2.9-3.1-3.2-10.9H553.6l-3.3,11,3,3H535.9l4.7-4.6,13.9-47.8-3.3-3.8h18l-3.6,3.8,13.7,47.8,4.8,4.6ZM565,325.4l-5-17.3-5,17.3ZM531.5,314c.8,0,3.2,1.2,3.2,3.2v23.2a4.951,4.951,0,0,1-4.9,5.1H497.1l3.8-3.8V293.1h0l-3.8-3.8h32.4a5.433,5.433,0,0,1,5.2,4.4v16.4a4.169,4.169,0,0,1-3.2,3.9Zm-10.3-18.5h-9.1v17h8.8a1.925,1.925,0,0,0,2.1-1.8V297.6c.1-1.5-.5-2-1.8-2.1Zm2.1,25.2a2.135,2.135,0,0,0-2.2-2.1h-9v20.6h9.3a1.9,1.9,0,0,0,1.9-1.9Zm-29.6,24.9h0l-3.8-3.8V293.2h0l3.8-3.8H478.9a.675.675,0,0,0-.6.4c-.9,3.9-10.7,33.5-10.7,33.5s-10.2-29.7-11.1-33.6a.664.664,0,0,0-.5-.4H441.8l3.8,3.8h0v48.6l-3.8,3.8h18.8l-3.8-3.8V315.3l10.8,30.3,10.5-30.3v26.4l-3.8,3.8h19.3ZM438,293.8v47.5c0,2.3-1.3,4.2-6.1,4.2H407.7c-3.1,0-5.8-1.5-5.8-4.2V293.8c0-2.3,1-4.5,6.1-4.5h24.2C435.5,289.3,438,290.8,438,293.8Zm-11.1,45.5V299.1c0-2.4-1-3.5-2.3-3.5H413.3V336c0,2.1,1.1,3.3,2.3,3.3Zm-35.4-45.5,6.9-4.5H378.6l2.5,3.8-13.4,20.3V293.1l3.8-3.8H352.9l3.8,3.8v48.6l-3.8,3.8h18.6l-3.8-3.8V330l4.2-6.4s11,18.5,13,21.9H399l-5.2-4.6L378,314.3Zm219.1,46.8h1.6v5h.6v-5h1.6v-.5h-3.8Zm7.3,3.4-1.9-4h-.6v5.7h.6v-4.3l1.5,3.4h.5l1.5-3.4v4.2h.6v-5.5h-.6Z"/></g></svg>