<svg xmlns="http://www.w3.org/2000/svg" width="1289.4" height="197.3" viewBox="0 0 1289.4 197.3"><g transform="translate(0 -2.1)"><path d="M.1,62.1C6.6,50.6,16.8,46.5,29.5,46.6c27.2.1,54.5,0,81.7,0h3.9c5.8.1,10.5,1.6,13.6,7.6,3.6,7.1,10,13.2,12.1,20.6,2.2,7.4.6,15.9.6,23.9v30.5c0,13.3-5.9,21.1-18.8,24.5a31.638,31.638,0,0,1-8,1.2q-43.8.15-87.4.1c-.7-1.4.6-1.8,1.2-2.4,8.3-8.3,16.6-16.6,24.9-25a6.792,6.792,0,0,1,5.3-2.1c13.9.1,27.8-.1,41.7.1,3.1,0,4.2-.6,4.2-4-.2-14-.2-28.1,0-42.2,0-3.1-.9-3.7-3.9-3.7-19.9.1-39.9.2-59.8,0-3.5,0-3.9,1.2-3.9,4.1.1,15.2,0,30.4.1,45.6a6.58,6.58,0,0,1-2,5.3c-6.5,6.3-12.9,12.6-19.1,19.2-1.9,2-3.4,1.8-5.5.6-4.6-2.6-7.6-6.7-10.4-11.1q.15-38.55.1-77.3ZM564.6,46.6c11.9,0,23.6.1,35.4-.1,2.4,0,2.8,1.5,3.4,3,6.5,15.6,13.1,31.1,19.6,46.7.5,1.2,1,2.3,1.5,3.5,1.6-.7,1.7-2.1,2.1-3.2,6.9-15.6,13.8-31.1,20.6-46.7,1.1-2.5,2.3-3.4,5.1-3.3,5.9.2,11.8.2,17.6,0,2.8-.1,3.9,1,5,3.4,6.9,16,14.1,32,21.1,47.9.3.6.6,1.2,1.3,2.5.7-1.6,1.2-2.7,1.6-3.7C705.4,81,712,65.5,718.3,49.8c1-2.5,2.2-3.4,4.9-3.4,10.9.2,21.8.1,32.7.1.6,1.7-.5,2.8-1.1,4q-22.05,50.4-44,100.7c-1.2,2.7-2.5,4-5.6,3.8a172.2,172.2,0,0,0-17.6,0c-3.2.2-4.8-.9-6-3.8-6.5-15.1-13.2-30.1-19.8-45.2-.6-1.3-1.2-2.6-2.1-4.3-7.7,16.7-15.4,32.8-22.7,49.1-1.5,3.2-3.1,4.5-6.6,4.3-5.4-.3-10.9-.1-16.3-.1-1.7,0-2.9-.3-3.7-2.1q-22.95-52.8-46-105.4c.1-.1.1-.2.2-.9Zm-33.5,67c15.4,14.1,30,27.4,45.4,41.4h-9.3c-12.3,0-24.7-.1-37,0a9.391,9.391,0,0,1-6.9-2.5c-13.4-12.4-26.8-24.6-40.3-36.8a6.772,6.772,0,0,1-2.4-5.6c.1-4.7.2-9.5,0-14.2-.2-3.2.7-4.2,4-4.1,11,.2,22.1,0,33.1.2,3.2.1,4.5-.7,4-4-.5-3.9,1.7-9.2-.9-11.5-2.2-1.9-7.4-.6-11.2-.6-13.6,0-27.2.1-40.9-.1-3.2,0-4,.7-4,4,.2,23.7,0,47.3.2,71,0,3.7-1,4.5-4.5,4.4-9.7-.3-19.5-.2-29.2,0-2.8,0-4-.4-4-3.6.1-33.8.1-67.7,0-101.5,0-2.6.6-3.4,3.3-3.4,35.1.1,70.2,0,105.4.1,10.4,0,23,7.8,22,22.3a160.058,160.058,0,0,0,0,21.9c1,14.3-10.3,22-21.6,22.7C535,113.7,533.7,113.6,531.1,113.6Zm758.2-12.8c0,16.8-.1,33.5.1,50.3,0,3.3-.9,4-4.1,3.9q-14.85-.3-29.7,0c-3.4.1-4-1.1-3.9-4.1.2-11.3,0-22.6.1-34,0-2.8-.8-3.6-3.6-3.6-19.1.1-38.1.1-57.2,0-3,0-3.5,1.1-3.4,3.7.1,11.5,0,22.9.1,34.4,0,2.8-.8,3.6-3.6,3.6-10.5-.2-20.9-.1-31.4,0-2.3,0-3.2-.6-3.2-3.1q.15-51.15,0-102.4c0-2.4.7-3.1,3.1-3.1,10.6.1,21.2.2,31.8,0,2.9,0,3.2,1.1,3.2,3.5-.1,10.2.1,20.4-.1,30.5-.1,3,.5,4.2,3.9,4.1,18.8-.2,37.6-.2,56.3,0,3.2,0,4.1-.8,4-4.1-.2-10.2,0-20.4-.1-30.5,0-2.8.7-3.6,3.6-3.6,10.2.2,20.4.2,30.5,0,2.9-.1,3.5.8,3.5,3.6.1,17.1.1,34,.1,50.9ZM1067.6,155h-38.3a36.012,36.012,0,0,1-13.8-2.6c-10.1-4.2-14.7-11-14.7-21.9V86.6a11.775,11.775,0,0,1,2-6.8c6.7-10,13.4-20,19.9-30.1,1.4-2.1,2.8-3.2,5.5-3.2,26.8.1,53.6,0,80.4.1a29.915,29.915,0,0,1,18.4,6.3c5.2,3.9,8.2,9.1,8.3,15.8V85c0,2-.2,3.2-2.7,3.1-10.8-.1-21.5-.1-32.3,0-2.4,0-2.8-1-2.8-3.1,0-3,1.4-6.9-.6-8.6-2.1-1.9-6-.6-9.1-.6-15.1-.1-30.1.1-45.2-.1-2.9,0-3.9.6-3.9,3.7.2,14,.1,28.1,0,42.1,0,2.8.5,4,3.7,4,17.2-.2,34.4-.1,51.6,0,2.9,0,3.7-1,3.5-3.7-.2-3.4-1.2-7.9.6-10,2-2.4,6.7-.7,10.2-.8,7.7-.1,15.5.1,23.2-.1,3.1-.1,3.8,1,3.7,3.9-.2,5.2-.1,10.3-.1,15.5,0,10.8-4.6,17.8-14.7,22a36.239,36.239,0,0,1-14.2,2.7Zm-711.9,0c-17.8,0-35.6-.1-53.4.1-3.3,0-4-.8-4-4q.15-36.6,0-73.1a10.477,10.477,0,0,1,1.9-6.4c4.8-7.3,9.5-14.7,14-22.2a5.349,5.349,0,0,1,5.2-2.8c29.8.1,59.7.1,89.5,0,3.2,0,4.2.7,4.1,4-.3,7.2-.3,14.3,0,21.5.1,3.5-1.1,3.9-4.2,3.9-22.9-.1-45.9.1-68.8-.2-4,0-4.7,1.2-4.6,4.8.3,7.6.1,7.6,7.7,7.6,13.3,0,26.7.1,40-.1,3.2,0,4.6.5,4.4,4.2a156.919,156.919,0,0,0,0,16.8c.1,3.1-.6,4.1-3.9,4.1-14.6-.2-29.3,0-43.9-.2-3.4,0-4.3,1-4.3,4.3.2,8.3,0,8.3,8.4,8.3,21.4,0,42.7.1,64.1-.1,4.3,0,5.3,1.2,5.1,5.3-.3,6.9-.3,13.8,0,20.6.1,3.1-1,3.8-3.9,3.7-17.8-.1-35.6-.1-53.4-.1Zm541.8,0c-13.9,0-27.5-.1-41.1.1-2.5,0-3.1-1.7-4.1-3.2-12.6-19.2-25.1-38.4-37.7-57.5-.8-1.2-1.6-2.3-2.6-3.8-10.6,16.2-21,32.2-31.5,48.1-3.1,4.7-6.1,9.3-9.2,14-.8,1.2-1.4,2.3-3.2,2.3-13.7-.1-27.4,0-41.3,0,.1-1.9,1.2-2.8,2-4q33.45-50.55,66.8-101.1c1.6-2.4,3.2-3.5,6.2-3.4,7.2.2,14.3.1,21.5,0,1.8,0,3.2.3,4.3,2q34.8,52.8,69.6,105.5c.2.1.2.3.3,1ZM137.6,46.6c13.4,0,26.4.1,39.4-.1,2.3,0,2.8,1.6,3.7,3q17.85,28.35,35.5,56.9c.8,1.3,1.7,2.6,2.6,4,1.7-.7,2.1-2.3,2.9-3.5,12-19,23.8-37.9,35.6-56.9,1.5-2.4,3-3.5,6-3.5,12.3.2,24.7.1,37,.1.5,1.7-.7,2.5-1.4,3.5q-32.1,50.85-64.2,101.8c-1.5,2.3-2.9,3.4-5.8,3.2-6.7-.2-13.5-.1-20.2,0-2,0-3.4-.4-4.6-2.3q-33-52.35-66.1-104.7a3.7,3.7,0,0,0-.4-1.5Zm870.8,0c-6.4,9.7-12.5,18.7-18.4,27.8-1.1,1.7-2.6,1.5-4.1,1.5-10,0-20.1.1-30.1-.1-3.1-.1-3.8.9-3.7,3.9.1,23.8,0,47.6.1,71.4,0,3.2-.7,4.1-4,4.1-9.7-.2-19.5-.2-29.2,0-3.3.1-4-.9-4-4.1.1-23.7,0-47.3.1-71,0-3.2-.6-4.4-4.1-4.3-12.9.2-25.8,0-38.7.2-3,0-3.9-.7-3.8-3.8.2-7.4.2-14.9,0-22.4,0-2.3.4-3.2,3-3.2h136.9Z"/><path d="M189.2,46.3C199.3,31.4,209.1,17,219.1,2.1c10.2,14.9,19.9,29.3,30,44.2H189.2Zm623,153.1c-10.1-15-19.9-29.4-30-44.2h59.9C832.1,170.1,822.3,184.4,812.2,199.4Z"/></g></svg>