<svg xmlns="http://www.w3.org/2000/svg" width="280.7" height="80.3" viewBox="0 0 280.7 80.3"><g transform="translate(-280.3 -257.6)"><path d="M302.2,270.4a1.356,1.356,0,0,0,.6,1.1,1.7,1.7,0,0,0,1.3.4h4.5a1.427,1.427,0,0,0,1.6-1.6v-2.9a1.58,1.58,0,0,0-1.6-1.6h-6.4Zm6.4-2.8v2.5c0,.2-.1.3-.2.3h-4.2c-.2,0-.3-.1-.3-.2v-2.7h4.5c.1-.1.2-.1.2.1Zm66.8,1.8c.2.1.5.2.7.3h4.7c.4,0,.4.7,0,.7h-5.7l-.3,1.6h6.3a1.136,1.136,0,0,0,.8-.3,2.3,2.3,0,0,0,0-3.4,1.8,1.8,0,0,0-1.2-.2h-4.3c-.4,0-.4-.7,0-.7h5.9l.3-1.6h-6.5a1.136,1.136,0,0,0-.8.3c-1,.6-.9,2.6.1,3.3Zm-64.5,2.5h1.7v-3.2l2.1,3.2h1.8l2.2-3.2v3.2h1.6v-6.2h-1.6l-3.1,4.6-3-4.6h-1.7Zm25.8,0h1.9l.9-1.5a.215.215,0,0,1,.2-.2h3.7v1.6H345v-6.2h-3.2c-1.2,0-1.7.7-2.3,1.6-.1.2-.3.4-.4.6Zm4-3.2.7-1.1c.1-.2.2-.2.5-.2h1.6v1.3Zm5.4,3.2h1.6V268l4.7,3.9H354v-6.2h-1.6v3.9l-4.7-3.9h-1.6Zm8.8-1.6a1.472,1.472,0,0,0,1.6,1.6h6.3l-.2-1.6h-5.9a.319.319,0,0,1-.3-.3v-2.6h6.1l.3-1.6h-8v4.5Zm-31.7,0a1.472,1.472,0,0,0,1.6,1.6h6.3l-.2-1.6H325a.319.319,0,0,1-.3-.3v-2.6h6.1l.3-1.6h-8v4.5Zm-29.7-2.9h3.2v4.5h1.6v-4.5h3.2v-1.7h-8Zm73.4,2.2v2.3h1.6v-2.3l3.3-3.9h-2.1l-2,2.4-2-2.4h-2.1Zm-35,2.3h4.3l1.1-1.6h-3.8v-4.6h-1.6Zm40-5.4v1.1h1.2l1.6-1.9h-2.1Zm-85.4-5.7c0-.1,0-.1.1-.1,0-.3.2-.4.5-.6a1.448,1.448,0,0,1,1.1.1,1.333,1.333,0,0,1,.5.6v.8a.349.349,0,0,1-.2.1v.5h.1a.215.215,0,0,1,.2-.2.367.367,0,0,1,.3.1c0,.1,0,.1.1.1a6.373,6.373,0,0,0,.7.2h.1c.1,0,.2-.1.3,0,.1,0,.1,0,.1.1v.5h.3a.1.1,0,0,1,.1.1l.2.2c.6.1.9.1.8.2a1.486,1.486,0,0,1,.6.1v-.1a.187.187,0,0,1,0-.3.192.192,0,0,1,.3.1.349.349,0,0,1-.1.2c.1,0,.2,0,.2.1.1,0,0,.1,0,.2s-.1.1-.1.2v.1c.2,0,.3.1.5.1s.3.1.5.1a.367.367,0,0,1-.1.3c-.2,0-.3-.1-.5-.1v-.1a1.087,1.087,0,0,0-.5-.1c-.1.1-.2.1-.5.1a4.536,4.536,0,0,1-.8-.2h-.1c0,.1-.1.1-.2.1h-.6a.1.1,0,0,0-.1.1v.8c-.1,0-.3.1-.4.1s-.1,0-.2-.1v-.5c-.1.1-.3.2-.4.3a.349.349,0,0,1-.2.1.764.764,0,0,1-.2.5v.3q.15.3,0,.3v.5c.4.3.3.6.5.8a4.351,4.351,0,0,0,.6.7,3.323,3.323,0,0,1,.8,1.1,2.769,2.769,0,0,1,.1.9v.6a4.484,4.484,0,0,1,.1,1.1l-.1.1a.844.844,0,0,0-.2.7,1.02,1.02,0,0,0,.5.8c.4.2.6.4.5.6,0,.1,0,.1.1.2.1.2,0,.3-.1.4a1.1,1.1,0,0,1-.8,0,1.756,1.756,0,0,1-.5-.4v-.1a.354.354,0,0,0-.3-.3h-.2a.747.747,0,0,1-.3-.3v-1a.215.215,0,0,0-.2-.2c-.1,0-.1-.1-.1-.2s0-.2.1-.2v-.1c-.1-.1-.1-.2-.2-.4a.646.646,0,0,1,.2-.5v-.1c-.2-.1-.4-.2-.4-.4v-.4a1.387,1.387,0,0,1-.8-.7l-.1-.1a1.276,1.276,0,0,1-.7-.5c-.1-.1-.2-.1-.3-.2h-.3a1.18,1.18,0,0,1-.5.5l-.3.3c-.1.1-.2.1-.4.2a.215.215,0,0,0-.2.2c-.2.2-.3.3-.5.3a.55.55,0,0,1-.3.5,1.612,1.612,0,0,0-.7.4c-.1.1-.1.2-.2.3,0,.1-.2.3-.4.4h-.2v.6c0,.1-.1.2-.2.3a.367.367,0,0,0-.3.1.349.349,0,0,0-.1.2.215.215,0,0,1-.2.2,1.719,1.719,0,0,1-.8.1c-.3,0-.4-.1-.4-.2a.367.367,0,0,1,.1-.3c0-.1,0-.2.2-.3.1,0,.2-.1.3-.2a2.651,2.651,0,0,0,.5-.6.367.367,0,0,0,.1-.3.6.6,0,0,1,.1-.4l.3-.3c0-.1.1-.1.1-.2,0-.2,0-.4.1-.4l.6-.3a.1.1,0,0,0,.1-.1.367.367,0,0,1,.1-.3c.2-.2.4-.5.6-.7v-.1c-.1,0-.1-.1-.1-.2a1.238,1.238,0,0,0,.2-.3,4.347,4.347,0,0,0,.4-.7c0-.1.1-.1,0-.2a.187.187,0,0,1,0-.3l.2-.2c.1,0,.1,0,.2.1,0,.1.1.1.1,0,.1-.1.2-.2.3-.2,0-.1.1-.1.2-.2v-.1a1.268,1.268,0,0,1,.1-.6c-.1,0-.2-.2-.2-.4v-.7s-.1-.1-.1,0c-.6.1-.9.2-1,.1H284c-.2-.2-.3-.4-.2-.6,0-.1,0-.1.1-.2a1.38,1.38,0,0,0,.3-.4.215.215,0,0,1,.2-.2c.1-.1.2-.1.3-.2a1.38,1.38,0,0,1,.4-.3.349.349,0,0,0,.2-.1c.1-.1.2-.2.3-.2s.3-.1.4-.1a1.445,1.445,0,0,1,.7-.2c0-.1,0-.2.2-.2v-.1a.215.215,0,0,1-.2-.2v-.2c-.1,0-.1,0-.1-.1l.1-.1v-.1c-.1-.1-.1-.1-.1-.2a.1.1,0,0,1,.1-.1h-.2Zm5.8,2.3h0c.1.2.1.2,0,.2s-.1-.1,0-.2Zm-3.9-1a.367.367,0,0,0,.1-.3,1.99,1.99,0,0,1-1.3-.1c.1.3.3.4.6.5.1,0,.2-.1.3-.2s.1-.1.1,0c.1.1.1.2.2.1Z" fill-rule="evenodd"/><path d="M280.6,271.3v-.5h-.2v-.1h.5v.1h-.2v.5Zm.4,0v-.6h.2l.1.4.1-.4h.2v.6h-.1v-.5l-.2.5h-.1l-.1-.5v.5Z"/><path d="M318.4,312.7,312,278.8h-7.9l-6,32.2-2.6-10.3c2.7-1.2,4.2-3.8,4.2-9.2v-2.2c0-8.9-3.8-10.5-10.5-10.5h-8.9v37.8h6.8V301.7h1.8l3.8,14.9h11.4l1.3-6.9h5.5l1.3,6.9H325V278.8h-6.6Zm-25.3-21c0,3.4-.3,4.4-3.7,4.4h-2.3V284.8h2.3c3.4,0,3.7,1.4,3.7,4.5Zm12.8,12.6,1.4-8.6.9-5.9.8,5.9,1.3,8.6Zm34-6.8-5.2-18.7h-8.4v37.8h6.6V294l6.8,22.6h6.7V278.8h-6.5Zm142.2-3.1c-3.9-3.2-5.3-4.4-5.3-6.6,0-1.8.7-3.2,3.3-3.2,2.4,0,3.1,1.1,3.3,4.3l7-.7c-.7-6.8-3-10-10.5-10-6.2,0-10.1,2.9-10.1,9.9,0,5.3,3.2,8.1,7.7,11.8,4.4,3.7,6.2,5,6.2,7.7,0,2.1-.6,3.6-3.4,3.6-3,0-3.7-.7-3.9-6.2l-7.1.9c.2,6.9,2.1,11.7,10.8,11.7,7.9,0,10.8-3.7,10.8-10-.2-6.1-3.8-8.9-8.8-13.2Zm9.8-16.3H499v39.1h-7.1Zm-31-20.5h3.6v80.3h-3.6Zm39.7,59.7h18v-6.5H507.8V299h9v-6.1h-9v-8.3h10.8v-6.5h-18ZM561,284.6v-6.5H542.9v39.2H561v-6.5H550.2V299h8.9v-6.1h-8.9v-8.3Zm-30.7,0c3.1,0,3.5.9,3.7,5.6l7.3-.8c-.5-6.5-2.1-11.2-10.9-11.2-7.4,0-11,3.3-11,11.3v16.4c0,8.1,3.4,11.5,9.7,11.5a8.78,8.78,0,0,0,6.1-2l.4,1.9h5.5V295.6H530.7v6h3.8v1.1c-.1,7-.3,8.5-3.8,8.5-3.4,0-4-1.5-4-4.9V289.6c.1-3.3.8-5,3.6-5ZM414.7,299.7a49.954,49.954,0,0,1-4-3.5l2.7-17.3h-6.5l-2.2,15.2-.9,7.2-1-7.2-2.2-15.2H394l-2.5,15.3-1.1,7.1-.8-7.1-2-15.3h-6.7l.2,1.8c-1.7-1.3-4.1-2.1-7.6-2.1-4.1,0-6.7,1.1-8.3,3-1.8-2.1-4.9-2.7-9.1-2.7H347v37.8h9.4c4.1,0,7.1-.4,9-2.6,1.7,1.8,4.3,2.9,8.2,2.9,8.3,0,10.9-4.7,10.9-11.3v-1.1l1.7,12.1h7.1l3.6-22.3,3.4,22.3h12.1a7.231,7.231,0,0,1-4.5-3.6l1.2-7.7,4.3-.6c.2,5.4.9,6.1,3.9,6.1,2.9,0,3.4-1.5,3.4-3.6.1-2.6-1.6-3.9-6-7.6Zm-60.5-15.3h2.3c3.5,0,3.8,1.2,3.8,4.3v.5c0,3.4-.4,4.5-3.8,4.5h-2.4v-9.3Zm6.5,22.1c0,3.1-.4,4.5-3.9,4.5h-2.5V299.4h2.6c3.4,0,3.8,1,3.8,4.4Zm16.9-.6c0,3.6-1.2,4.9-3.8,4.9-2.7,0-3.7-1.3-3.7-5V289.5c0-3.3,1-4.7,3.7-4.7,2.8,0,3.8,1.4,3.8,4.7Z"/><path d="M427.5,288.2l-7,.7c-.2-3.1-.9-4.2-3.3-4.2-2.6,0-3.3,1.4-3.3,3.1,0,2.2,1.4,3.4,5.3,6.6,5.1,4.2,8.7,7,8.7,13,0,4.7-1.7,8-5.9,9.3h6.7V278.9h-6.9c3.8,1.2,5.2,4.2,5.7,9.3Zm23-9.4h-6.6l3.4,9.4Zm-7.6,37.8h7.9l-4.1-11Zm-6.2-37.8h-.9v37.8h.3l7.2-19.9Z"/></g></svg>