<svg xmlns="http://www.w3.org/2000/svg" width="430.761" height="416.345" viewBox="0 0 430.761 416.345"><g transform="translate(-122.378 -168.486)"><path d="M285.764,287.586l52.174,29.864L390.1,287.586v-98.85l-22.989-13.045h-58.35l-23,13.045v98.85Zm51.826,38.1L278.551,291.71V184.615L306.7,168.486h62.131l28.139,16.129V291.709Zm44.969-42.215V233.012l-20.942,12.015V270.08l-12.7,7.21V232.324h4.808l18.541-10.635V210.7H348.914v-6.866l10.985-9.27V182.555H315.278v12.014l10.985,9.27V210.7H302.927v11.322l18.528,10.643h4.808v45.308l-12.7-7.209V245.716L292.63,233.7V283.81l44.96,25.745Zm-24.377,43.588a1.62,1.62,0,0,0-1.712-1.717h-6.518V344.91h6.518a1.62,1.62,0,0,0,1.712-1.716Zm17.163,61.1H358.871l-5.149-30.892h-3.43v30.892H334.157V327.747l3.781,2.061,27.109-15.445a15.311,15.311,0,0,1,9.959,13.384V342.5a14.429,14.429,0,0,1-5.15,10.641Zm-64.529,8.233H122.726v16.482H310.816V396.392Zm113.609,24.715V541.588l18.2-3.781v-116.7ZM240.8,388.159l3.781-35.36,3.772,35.36h21.971l7.893-74.83H261.739l-5.15,46.338-5.15-46.338h-15.1l-5.15,46.338-5.146-46.338H209.565l7.89,74.83ZM369.51,421.106V553.253l18.2-3.774V484.264H398v63.151l18.19-3.774V421.106H398v48.4h-10.3v-48.4ZM224.67,484.264h7.2L228.1,450.969Zm-12.014-63.158h30.2L255.9,542.616l-18.19-3.782-4.461-40.151h-10.3l-3.78,36.38-18.19-3.772Zm-89.93,102.282v16.483l214.863,44.959L552.8,539.871V523.388l-215.21,44.97ZM355.78,399.143v-6.866h-15.1v25.057h7.552V408.4h7.894v-6.866h-7.894v-2.395h7.546Zm-78.259,70.365h6.867a3.442,3.442,0,0,0,3.43-3.435V437.926a3.435,3.435,0,0,0-3.43-3.433h-6.867Zm4.809,14.756h-4.808v63.151l-18.189-3.774V421.106H291.6a14.5,14.5,0,0,1,14.409,14.419v32.947a12.918,12.918,0,0,1-6.177,11.332l7.893,73.8L289.2,549.818ZM469.4,469.508h6.866a3.44,3.44,0,0,0,3.43-3.435V437.926a3.442,3.442,0,0,0-3.43-3.433H469.4Zm0,62.811-18.19,3.771V421.106h28.138a18.462,18.462,0,0,1,18.536,18.537v25.394a18.462,18.462,0,0,1-18.536,18.537h-9.607ZM382.9,313.33v74.83h32.95V374.43H399.373v-61.1H382.9Zm-18.877,83.062v16.482H552.8V396.392Zm76.2-20.59h6.515a1.62,1.62,0,0,0,1.717-1.717V326.713A1.617,1.617,0,0,0,446.734,325h-6.515Zm-16.131,12.357v-74.83h26.081a14.5,14.5,0,0,1,14.417,14.417v45.993a14.5,14.5,0,0,1-14.417,14.419H424.088ZM326.6,399.143v11.326a.748.748,0,0,0,.689.689h1.028a.739.739,0,0,0,.686-.689V399.143a.731.731,0,0,0-.686-.689h-1.028C326.951,398.455,326.6,398.455,326.6,399.143Zm-1.027-6.865h4.46a6.694,6.694,0,0,1,6.184,6.517v12.364a7.3,7.3,0,0,1-6.184,6.515h-4.46a6.681,6.681,0,0,1-6.177-6.515V398.795A6.686,6.686,0,0,1,325.576,392.278ZM159.105,522.708l4.12-38.445,4.46,40.16,24.714,5.15,12.015-108.469h-18.19l-6.525,58.35-6.517-58.35H153.617l-6.525,58.35-6.516-58.35h-18.2l10.3,95.767Zm375.505-101.6H525a17.391,17.391,0,0,0-18.539,16.472V452a9.429,9.429,0,0,0,4.12,7.551l20.247,13.73a6.877,6.877,0,0,1,4.12,7.206v21.631c0,2.744-2.744,3.082-5.836,3.771-3.772.687-4.461-.341-4.461-3.1V480.145l-18.19,3.771v23.347a14.136,14.136,0,0,0,14.07,14.071,7.607,7.607,0,0,0,2.752-.343c3.433-.686,7.205-1.375,10.637-2.063,8.922-1.717,19.218-7.205,19.218-17.162V475.333c0-6.513-.681-7.2-5.488-10.633l-21.623-14.07a4.754,4.754,0,0,1-1.376-4.12v-8.242a3.341,3.341,0,0,1,2.746-3.431H532.2a2.8,2.8,0,0,1,2.744,3.09v8.583l18.19-3.779v-5.152C552.8,429.349,546.274,421.106,534.611,421.106ZM309.1,327.058a1.624,1.624,0,0,0-1.716-1.717h-4.811a1.622,1.622,0,0,0-1.714,1.717v47.371a1.622,1.622,0,0,0,1.714,1.717h4.811a1.624,1.624,0,0,0,1.716-1.717Zm16.472.688V373.4a14.5,14.5,0,0,1-14.419,14.414H299.145A14.493,14.493,0,0,1,284.736,373.4V327.746a14.5,14.5,0,0,1,14.409-14.417h9.269l15.793,8.924A10.085,10.085,0,0,1,325.576,327.746Zm6.863,110.522v8.242a4.446,4.446,0,0,0,1.378,4.12l21.621,14.07c5.148,3.431,5.488,4.12,5.488,10.633v67.283a16.478,16.478,0,0,1-16.476,16.473H330.385a16.471,16.471,0,0,1-16.473-16.473V484.264l18.19-3.779v61.782a3.434,3.434,0,0,0,3.433,3.431h3.771a3.435,3.435,0,0,0,3.431-3.431V480.831a6.711,6.711,0,0,0-4.12-7.214l-20.245-13.729a9.426,9.426,0,0,1-4.122-7.543v-16.82c0-8.922,7.205-14.419,16.474-14.419h15.444a14.648,14.648,0,0,1,14.758,14.755v6.526l-18.19,3.771v-8.232a3.436,3.436,0,0,0-3.431-3.433h-3.433A4.034,4.034,0,0,0,332.44,438.268Z"/></g></svg>