<svg xmlns="http://www.w3.org/2000/svg" width="139.343" height="139.343" viewBox="0 0 139.343 139.343"><path d="M73.671,4A69.167,69.167,0,0,0,35.23,15.612H15.612V35.23a69.436,69.436,0,0,0,0,76.882v19.618H35.23a69.436,69.436,0,0,0,76.882,0h19.618V112.112a69.436,69.436,0,0,0,0-76.882V15.612H112.112A69.167,69.167,0,0,0,73.671,4Zm0,11.612a57.732,57.732,0,0,1,33.314,10.555l1.5,1.057h11.635V38.859l1.057,1.5a57.851,57.851,0,0,1,0,66.629l-1.057,1.5v11.635H108.484l-1.5,1.057a57.851,57.851,0,0,1-66.629,0l-1.5-1.057H27.224V108.484l-1.057-1.5a57.851,57.851,0,0,1,0-66.629l1.057-1.5V27.224H38.859l1.5-1.057A57.723,57.723,0,0,1,73.671,15.612ZM33.03,44.642l4.616,4.616A5.725,5.725,0,0,1,39.2,52.091l10.555,47.5a5.806,5.806,0,0,1-1.568,5.365l-3.547,3.547H67.865l-2.688-5.388,8.494-23.642,8.494,23.642-2.688,5.388H102.7l-3.547-3.547a5.806,5.806,0,0,1-1.568-5.365l10.561-47.5a5.748,5.748,0,0,1,1.55-2.833l4.616-4.616H91.089l1.951,3.89a5.789,5.789,0,0,1,.43,4.006L86.926,78.705,73.671,44.642,60.416,78.705,53.873,52.532a5.789,5.789,0,0,1,.441-4.006l1.939-3.884Z" transform="translate(-4 -4)"/></svg>