<?xml version="1.0" standalone="no"?>
<!DOCTYPE svg PUBLIC "-//W3C//DTD SVG 1.1//EN" "http://www.w3.org/Graphics/SVG/1.1/DTD/svg11.dtd" >
<svg xmlns="http://www.w3.org/2000/svg">
<defs>
  <font id="base-icon" horiz-adv-x="512">
    <font-face font-family="base-icon"
      units-per-em="512" ascent="512"
      descent="0" />
    <missing-glyph horiz-adv-x="0" />
    <glyph glyph-name="apple"
      unicode="&#xE001;"
      horiz-adv-x="512" d="M68.384 323.7920000000001C25.104 248.6720000000001 52.608 134.688 100.48 65.568C124.368 31.008 148.56 0 181.696 0C182.32 0 182.944 0.016 183.584 0.032C199.152 0.656 210.4 5.44 221.28 10.08C233.488 15.28 246.112 20.672 265.92 20.672C284.768 20.672 296.784 15.472 308.416 10.432C319.872 5.472 331.68 0.336 349.136 0.672C386.464 1.36 409.376 34.832 429.584 64.3679999999999C450.6879999999999 95.1999999999999 461.264 125.136 464.8319999999999 136.5759999999999L464.9759999999999 137.0239999999999C465.6639999999999 139.0559999999999 464.6879999999999 141.2799999999999 462.752 142.1759999999999C462.704 142.2079999999999 462.496 142.2879999999999 462.448 142.3039999999999C455.872 144.9919999999999 398.224 170.5599999999998 397.616 240.2719999999999C397.056 296.9119999999999 440.864 326.8959999999999 449.648 332.3359999999999L450.064 332.5919999999999C451.008 333.1999999999999 451.6799999999999 334.1759999999999 451.9039999999999 335.2799999999999S451.8879999999999 337.5519999999999 451.2479999999999 338.4799999999999C421.0079999999999 382.7359999999999 374.656 389.4079999999999 356 390.2079999999999C353.296 390.4799999999999 350.4959999999999 390.6079999999999 347.696 390.6079999999999C325.776 390.6079999999999 304.784 382.3359999999999 287.92 375.6799999999999C276.272 371.0879999999999 266.224 367.1199999999999 259.28 367.1199999999999C251.488 367.1199999999999 241.376 371.1359999999999 229.664 375.7759999999999C214 381.9999999999999 196.256 389.0399999999999 177.456 389.0399999999999C177.008 389.0399999999999 176.56 389.0399999999999 176.128 389.0239999999999C132.432 388.3839999999999 91.136 363.3759999999999 68.384 323.7919999999999zM356.048 512C329.584 510.928 297.8400000000001 494.64 278.88 472.416C262.752 453.744 247.008 422.592 251.152 391.2C251.408 389.232 253.008 387.712 254.992 387.568C256.784 387.424 258.608 387.36 260.416 387.36C286.288 387.36 314.208 401.68 333.264 424.7200000000001C353.3280000000001 449.056 363.472 480.288 360.4000000000001 508.272C360.1600000000001 510.464 358.2240000000001 512.096 356.064 512z" />
    <glyph glyph-name="avatar-1"
      unicode="&#xE002;"
      horiz-adv-x="512" d="M452.096 21.024C428.2560000000001 70.528 385.36 109.424 333.36 129.04V160.352C358.928 161.7600000000001 407.136 168.256 435.408 197.184C438.976 200.864 440.384 206.1760000000001 439.088 211.1520000000001S433.8880000000001 220.0320000000001 428.9120000000001 221.4400000000001C428.48 221.5520000000001 391.216 234.3360000000001 398.6880000000001 310.6080000000001C401.9360000000001 343.1040000000001 401.3920000000001 372.3680000000001 397.1680000000001 397.4880000000001C392.2880000000001 426.3040000000001 382.5440000000001 448.9440000000001 368.3520000000001 464.768C352.9600000000001 481.7760000000001 332.9280000000001 490.448 308.7680000000001 490.448C307.7920000000001 490.448 306.8160000000001 490.448 305.9520000000001 490.448C296.7360000000001 498.4640000000001 276.5920000000001 512 245.7120000000001 512C231.2960000000001 512 216.2400000000001 509.0720000000001 200.8640000000001 503.1200000000001L200.2080000000001 502.8960000000001C188.0800000000001 498.352 165.5360000000001 489.792 146.4800000000001 464.4320000000001C124.2720000000001 434.9600000000001 113.6480000000001 391.3120000000001 114.9600000000001 334.7520000000001C116.2560000000001 278.0960000000001 106.9440000000001 250.3520000000001 98.9280000000001 237.0240000000001C92.3200000000001 226.0800000000001 86.0320000000001 223.9200000000001 84.4160000000001 223.4880000000001C78.8960000000001 223.9200000000001 74.4480000000001 221.1040000000001 71.6320000000001 216.3360000000001C68.7040000000001 211.4560000000001 69.7920000000001 205.2800000000001 73.0400000000001 200.5120000000001C74.3360000000001 198.5600000000001 81.9200000000001 188.3840000000001 100.2400000000001 178.5120000000001C121.1520000000001 167.2480000000001 147.2640000000001 160.8480000000001 178.1280000000001 159.5520000000001V129.7600000000001C126.7840000000001 110.2560000000001 84.0960000000001 71.0400000000001 59.9360000000001 20.8800000000001C57.7760000000001 16.3360000000001 58.0960000000001 11.0240000000001 60.6880000000001 6.8000000000001C63.3920000000001 2.5760000000001 68.0480000000001 -0.0319999999999 73.0400000000001 -0.0319999999999H439.0080000000002C443.9840000000002 -0.0319999999999 448.7520000000002 2.5760000000001 451.3600000000001 6.8000000000001C453.9680000000001 11.1360000000001 454.2880000000001 16.4480000000001 452.1120000000001 20.9920000000001zM97.936 29.36C121.344 65.328 156.432 92.528 197.072 105.632C203.136 107.584 207.248 113.216 207.248 119.504V174C207.248 177.904 205.728 181.696 202.912 184.4S196.416 188.736 192.512 188.624C150.368 188.192 124.912 197.84 111.04 206.064C112.016 207.04 113.104 208.016 114.176 209.104C135.52 231.312 145.6 273.776 144.192 335.424C141.376 449.28 189.808 467.696 210.384 475.504L211.04 475.728C223.168 480.272 234.768 482.656 245.488 482.656C273.44 482.656 287.744 467.264 288.928 465.856C291.968 462.064 296.624 460.224 301.488 460.656C303.872 460.88 306.256 460.976 308.528 460.976C324.24 460.976 336.6880000000001 455.776 346.4480000000001 444.944C367.04 422.192 375.4880000000001 374.208 369.408 313.312C363.344 251.888 382.512 221.12 399.088 206.16C376.7680000000001 193.808 345.024 189.152 321.088 189.152C319.7920000000001 189.152 319.024 189.152 318.928 189.152C315.024 189.264 311.12 187.744 308.304 185.04S303.856 178.544 303.856 174.528V118.512C303.856 112.1279999999999 307.968 106.5919999999999 314.032 104.6399999999999C355.2 91.312 390.416 64.4479999999999 413.696 29.1359999999999L97.888 29.3599999999999z" />
    <glyph glyph-name="avatar"
      unicode="&#xE003;"
      horiz-adv-x="512" d="M254.144 236.112C254.672 236.112 255.2 236.112 255.84 236.112C256.048 236.112 256.272 236.112 256.48 236.112C256.8 236.112 257.216 236.112 257.536 236.112C288.608 236.6400000000001 313.728 247.5680000000001 332.288 268.4480000000001C373.1040000000001 314.4640000000001 366.32 393.3440000000001 365.584 400.88C362.928 457.3920000000001 336.2080000000001 484.432 314.1600000000001 497.04C297.728 506.48 278.528 511.568 257.12 511.984H256.384C256.272 511.984 256.064 511.984 255.9520000000001 511.984H255.3120000000001C243.5360000000001 511.984 220.4320000000001 510.08 198.2720000000001 497.456C176.0000000000001 484.832 148.864 457.808 146.2080000000001 400.8640000000001C145.4720000000001 393.3280000000001 138.6880000000001 314.4480000000001 179.5040000000001 268.432C197.9520000000001 247.552 223.0880000000001 236.624 254.1440000000001 236.096zM174.512 398.24C174.512 398.56 174.624 398.88 174.624 399.088C178.128 475.104 232.096 483.28 255.2 483.28H255.632C255.84 483.28 256.16 483.28 256.48 483.28C285.104 482.64 333.776 470.976 337.056 399.088C337.056 398.7680000000001 337.056 398.448 337.168 398.24C337.28 397.504 344.704 325.408 310.976 287.44C297.616 272.384 279.808 264.9600000000001 256.368 264.752C256.1599999999999 264.752 256.048 264.752 255.84 264.752V264.752C255.632 264.752 255.52 264.752 255.312 264.752C231.984 264.9600000000001 214.064 272.384 200.816 287.44C167.1999999999999 325.184 174.416 397.6 174.5279999999999 398.24zM473.728 105.28C473.728 105.392 473.728 105.488 473.728 105.6C473.728 106.448 473.616 107.296 473.616 108.256C472.976 129.248 471.6 178.336 425.584 194.032C425.264 194.144 424.848 194.24 424.528 194.352C376.704 206.544 336.944 234.112 336.528 234.432C330.064 238.992 321.1520000000001 237.408 316.5920000000001 230.928S313.6160000000001 215.552 320.0960000000001 210.992C321.9040000000001 209.712 364.0960000000001 180.352 416.8960000000001 166.784C441.6000000000001 157.984 444.3520000000001 131.584 445.1040000000001 107.408C445.1040000000001 106.448 445.1040000000001 105.6 445.2160000000001 104.752C445.3280000000001 95.216 444.6880000000001 80.48 442.9920000000001 71.984C425.8240000000001 62.2240000000001 358.4960000000001 28.5120000000001 256.0640000000001 28.5120000000001C154.0640000000001 28.5120000000001 86.3200000000001 62.3360000000001 69.0400000000001 72.0960000000001C67.3440000000001 80.5760000000001 66.6080000000001 95.3120000000001 66.8160000000001 104.864C66.8160000000001 105.7120000000001 66.9280000000001 106.5600000000001 66.9280000000001 107.52C67.6640000000001 131.696 70.4320000000001 158.0960000000001 95.1360000000001 166.896C147.9360000000001 180.464 190.1280000000001 209.936 191.9360000000001 211.1040000000001C198.4000000000001 215.6640000000001 200.0000000000001 224.576 195.4400000000001 231.04S181.9680000000001 239.1040000000001 175.5040000000001 234.5440000000001C175.0720000000001 234.2240000000001 135.5360000000001 206.6560000000001 87.5040000000001 194.4640000000001C87.0720000000001 194.352 86.768 194.256 86.4480000000001 194.1440000000001C40.4320000000001 178.3520000000001 39.0560000000001 129.2480000000001 38.4160000000001 108.3680000000001C38.4160000000001 107.4080000000001 38.4160000000001 106.5600000000001 38.3040000000001 105.7120000000001C38.3040000000001 105.6 38.3040000000001 105.504 38.3040000000001 105.3920000000001C38.1920000000001 99.8720000000001 38.0960000000001 71.568 43.7120000000001 57.3600000000001C44.7680000000001 54.6080000000001 46.6880000000001 52.2720000000001 49.2320000000001 50.688C52.4160000000001 48.5600000000001 128.6400000000001 1e-13 256.1920000000001 1e-13S459.9680000000001 48.672 463.152 50.688C465.5840000000001 52.2720000000001 467.6 54.6080000000001 468.672 57.3600000000001C473.968 71.4560000000001 473.872 99.7760000000001 473.76 105.2800000000001z" />
    <glyph glyph-name="back"
      unicode="&#xE004;"
      horiz-adv-x="512" d="M155.776 256.016L387.0080000000001 487.248C392.6880000000001 492.928 392.6880000000001 502.048 387.0080000000001 507.744S372.2080000000001 513.424 366.5120000000001 507.744L124.9920000000001 266.224C119.3120000000001 260.544 119.3120000000001 251.424 124.9920000000001 245.728L366.5120000000001 4.304C369.2960000000001 1.52 373.0560000000001 0.016 376.7040000000001 0.016S384.1120000000001 1.408 386.8960000000001 4.304C392.5760000000001 9.984 392.5760000000001 19.104 386.8960000000001 24.8L155.7760000000001 256.032z" />
    <glyph glyph-name="cancel"
      unicode="&#xE005;"
      horiz-adv-x="512" d="M437.008 437.008C388.624 485.392 324.416 512 256 512S123.36 485.392 74.992 437.008S0 324.416 0 256S26.608 123.36 74.992 74.992S187.584 0 256 0S388.64 26.608 437.008 74.992S512 187.584 512 256S485.392 388.64 437.008 437.0080000000001zM416.432 95.568C373.552 52.688 316.56 29.088 256 29.088S138.448 52.688 95.568 95.568C7.104 184.032 7.104 327.968 95.568 416.432C138.448 459.312 195.44 482.912 256 482.912S373.552 459.312 416.432 416.432C504.896 327.968 504.896 184.0319999999999 416.432 95.568zM368.8 368.8C363.088 374.512 353.9360000000001 374.512 348.224 368.8L256 276.576L163.776 368.8C158.064 374.512 148.912 374.512 143.2 368.8S137.488 353.9360000000001 143.2 348.2240000000001L235.4240000000001 256L143.2000000000001 163.776C137.4880000000001 158.064 137.4880000000001 148.912 143.2000000000001 143.2C146.0000000000001 140.4 149.7760000000001 138.896 153.4400000000001 138.896S160.8800000000001 140.304 163.6800000000001 143.2L255.9040000000001 235.424L348.1280000000001 143.2C350.9280000000001 140.4 354.7040000000001 138.896 358.3680000000001 138.896C362.1440000000001 138.896 365.8080000000001 140.304 368.6080000000001 143.2C374.3200000000001 148.912 374.3200000000001 158.064 368.6080000000001 163.776L276.5920000000001 256L368.8160000000001 348.224C374.528 353.936 374.528 363.088 368.8160000000001 368.8z" />
    <glyph glyph-name="chat-1"
      unicode="&#xE006;"
      horiz-adv-x="512" d="M436.944 436.96C388.5920000000001 485.312 324.384 512 255.984 512S123.376 485.312 75.024 436.96C-18.24 343.6960000000001 -24.992 194.688 58.08 93.696C46.608 70.224 33.104 54.5599999999999 17.776 47.056C8.448 42.448 3.2 32.368 4.704 22.08C6.32 11.68 14.24 3.648 24.64 2.032C30.32 1.168 36.432 0.64 42.752 0.64V0.64C74.16 0.64 107.184 11.472 134.736 30.448C171.824 10.512 213.536 0 255.984 0C324.384 0 388.592 26.592 436.944 74.928S511.872 187.6 511.872 255.8880000000001S485.28 388.6080000000001 436.944 436.9600000000001zM416.464 95.52C373.584 52.64 316.544 29.056 255.984 29.056C215.456 29.056 175.696 39.888 141.056 60.256C138.8 61.536 136.224 62.288 133.76 62.288C130.656 62.288 127.44 61.216 124.864 59.28C92.064 33.872 59.04 30.128 44.576 29.792C61.84 42.656 76.304 62.592 88.416 90.368C90.672 95.52 89.696 101.52 85.952 105.808C6.624 195.424 10.8 332 95.488 416.688C138.368 459.568 195.408 483.152 255.968 483.152S373.568 459.568 416.448 416.688C504.992 328.032 504.992 183.952 416.448 95.504zM363.1840000000001 340.48H148.784C140.752 340.48 134.304 334.048 134.304 326S140.736 311.52 148.784 311.52H363.1840000000001C371.2320000000001 311.52 377.6640000000001 317.952 377.6640000000001 326S371.1200000000001 340.48 363.1840000000001 340.48zM363.1840000000001 270.48H148.784C140.752 270.48 134.304 264.048 134.304 256S140.736 241.52 148.784 241.52H363.1840000000001C371.2320000000001 241.52 377.6640000000001 247.952 377.6640000000001 256S371.1200000000001 270.48 363.1840000000001 270.48zM363.1840000000001 200.464H148.784C140.752 200.464 134.304 194.032 134.304 185.984S140.736 171.504 148.784 171.504H363.1840000000001C371.2320000000001 171.504 377.6640000000001 177.936 377.6640000000001 185.984S371.1200000000001 200.464 363.1840000000001 200.464z" />
    <glyph glyph-name="chat-2"
      unicode="&#xE007;"
      horiz-adv-x="512" d="M436.864 436.992C388.48 485.376 324.288 512 255.872 512S123.264 485.376 74.88 436.992C-18.64 343.472 -25.136 193.76 58.752 92.768C50.528 76.208 37.312 56.944 17.728 47.312C8.304 42.656 3.008 32.592 4.624 22.192S14.256 3.68 24.656 2.064C29.52 1.312 36.448 0.544 44.896 0.544C67.52 0.544 100.864 5.84 134.96 30.4160000000001C172.96 9.9520000000001 214.528 1e-13 255.76 1e-13C322 1e-13 387.6 25.6480000000001 436.96 75.008C485.344 123.3920000000001 511.968 187.5840000000001 511.968 256S485.232 388.6080000000001 436.848 436.992zM416.176 95.696C343.104 22.624 230 8.128 141.024 60.4C135.184 63.8560000000001 127.92 62.7840000000001 123.28 58.128C122.848 57.9040000000001 122.416 57.5840000000001 122.096 57.2640000000001C92.768 34.5280000000001 63.968 29.7760000000001 44.912 29.7760000000001H44.8C66.768 45.7920000000001 80.624 69.6160000000001 88.752 88.1120000000001C90.048 91.2480000000001 90.272 94.4960000000001 89.504 97.5360000000001C89.184 100.4640000000001 87.984 103.376 85.936 105.7600000000001C6.704 195.28 10.816 331.6640000000001 95.456 416.3200000000001C183.888 504.7520000000001 327.7440000000001 504.7520000000001 416.0800000000001 416.3200000000001C504.624 327.8880000000001 504.624 184.1280000000001 416.1920000000001 95.696zM273.84 256C273.84 246.08 265.792 238.032 255.872 238.032S237.904 246.08 237.904 256C237.904 265.92 245.952 273.968 255.872 273.968S273.84 265.92 273.84 256zM366.496 256C366.496 246.08 358.448 238.032 348.528 238.032S330.56 246.08 330.56 256C330.56 265.92 338.608 273.968 348.528 273.968S366.496 265.92 366.496 256zM181.184 256C181.184 246.08 173.136 238.032 163.216 238.032S145.248 246.08 145.248 256C145.248 265.92 153.296 273.968 163.216 273.968S181.184 265.92 181.184 256z" />
    <glyph glyph-name="chat"
      unicode="&#xE008;"
      horiz-adv-x="512" d="M436.976 436.944C388.624 485.296 324.384 512 255.984 512S123.344 485.408 74.992 437.056C-18.288 343.776 -25.056 194.72 58.048 93.728C46.576 70.24 32.96 54.592 17.728 47.088C8.4 42.48 3.152 32.4 4.64 22.112C6.256 11.712 14.176 3.664 24.576 2.064C30.256 1.2 36.368 0.672 42.704 0.672V0.672C74.128 0.672 107.152 11.504 134.704 30.48C171.808 10.528 213.52 0.032 255.968 0.032C324.384 0.032 388.608 26.624 436.9600000000001 74.9760000000001S511.9040000000001 187.6640000000001 511.9040000000001 255.9680000000001S485.3120000000001 388.6080000000001 436.9600000000001 436.9600000000001zM416.496 95.424C373.6 52.528 316.56 28.944 255.984 28.944C215.456 28.944 175.68 39.776 141.04 60.144C138.784 61.4239999999999 136.208 62.1759999999999 133.744 62.1759999999999C130.64 62.1759999999999 127.424 61.1039999999999 124.848 59.168C92.032 33.7599999999999 59.008 29.9999999999999 44.544 29.68C61.808 42.5439999999999 76.288 62.496 88.4 90.256C90.656 95.408 89.68 101.408 85.936 105.696C6.592 195.328 10.768 331.936 95.472 416.656C138.368 459.552 195.408 483.136 255.984 483.136C316.672 483.136 373.616 459.552 416.496 416.656C505.056 327.9839999999999 505.056 183.872 416.496 95.408zM320.96 373.248C297.792 373.248 276.032 364.24 259.632 347.84L255.984 344.192L252.336 347.84C235.936 364.24 214.16 373.248 191.008 373.248C167.952 373.248 146.192 364.24 129.888 347.936C113.488 331.536 104.48 309.76 104.576 286.704C104.576 263.536 113.696 241.888 129.984 225.472L245.68 109.776C248.464 106.992 252.224 105.4879999999999 255.872 105.4879999999999S263.264 106.8799999999999 266.064 109.6639999999999L382.08 225.248C398.48 241.6479999999999 407.488 263.4239999999999 407.488 286.4799999999999C407.488 309.6479999999999 398.48 331.4079999999999 382.176 347.808C365.776 364.208 344 373.216 320.944 373.216zM361.6 245.76L255.872 140.464L150.368 245.968C139.424 256.9120000000001 133.424 271.3760000000001 133.424 286.8160000000001S139.424 316.7360000000001 150.256 327.5680000000001C161.088 338.4000000000001 175.568 344.4000000000001 191.008 344.4000000000001S220.928 338.4000000000001 231.856 327.456L245.792 313.5200000000001C251.472 307.8400000000001 260.592 307.8400000000001 266.272 313.5200000000001L280.096 327.3440000000001C291.04 338.288 305.504 344.288 320.944 344.288C336.272 344.288 350.752 338.288 361.6960000000001 327.3440000000001S378.6400000000001 301.9360000000001 378.528 286.5920000000001C378.528 271.1520000000001 372.528 256.6720000000001 361.584 245.7440000000001z" />
    <glyph glyph-name="check-symbol"
      unicode="&#xE009;"
      horiz-adv-x="512" d="M162.912 142.544L40.736 264.72L0.016 224L162.928 61.088L512.0160000000001 410.176L471.296 450.896z" />
    <glyph glyph-name="close-button"
      unicode="&#xE00A;"
      horiz-adv-x="512" d="M512 460.8L460.8 512L256 307.2L51.2 512L0 460.8L204.8 256L0 51.2L51.2 0L256 204.8L460.8 0L512 51.2L307.2 256z" />
    <glyph glyph-name="confirm"
      unicode="&#xE00B;"
      horiz-adv-x="512" d="M503.808 403.2749268292683L487.0368780487805 420.0460487804878C481.7670243902439 425.3200650406505 474.7405528455286 428.2213983739838 467.2395447154472 428.2213983739838C459.7385365853659 428.2213983739838 452.7079024390245 425.3200650406505 447.4380487804878 420.0460487804878L211.7806829268293 184.3928455284553L64.5453008130081 331.6323902439024C59.2754471544716 336.898081300813 52.2448130081301 339.8035772357723 44.7438048780488 339.8035772357723C37.2469593495935 339.8035772357723 30.2204878048781 336.898081300813 24.9464715447155 331.6323902439024L8.1711869918699 314.865430894309C2.8971707317073 309.5830894308943 0 302.5482926829268 0 295.0556097560975C0 287.5587642276423 2.8971707317073 280.5281300813008 8.1711869918699 275.2541138211382L174.4088455284553 109.0247804878048C174.6294634146342 108.7125853658536 174.8625691056911 108.4212032520325 175.1331382113822 108.1547967479675L191.9084227642277 91.6584065040651C197.1782764227643 86.4052032520325 204.2089105691057 83.7786016260163 211.7681951219513 83.7786016260163H211.8556097560976C219.3607804878049 83.7786016260163 226.3914146341464 86.4052032520325 231.6529430894309 91.6584065040651L248.4323902439025 108.3004878048781C248.7029593495936 108.5668943089431 248.9319024390244 108.787512195122 249.069268292683 109.0122926829268L503.8038373983741 363.7218861788619C514.7306666666667 374.6237398373984 514.7306666666667 392.3605853658537 503.808 403.2749268292683z" />
    <glyph glyph-name="copy"
      unicode="&#xE00C;"
      horiz-adv-x="512" d="M329.504 422.448H91.488C69.152 422.448 51.008 404.304 51.008 381.968V40.4639999999999C51.008 18.1279999999999 69.152 -0.0160000000001 91.488 -0.0160000000001H329.504C351.8400000000001 -0.0160000000001 369.9840000000001 18.1279999999999 369.9840000000001 40.4639999999999V381.968C369.872 404.304 351.7440000000001 422.448 329.504 422.448zM341.568 40.576C341.568 33.872 336.112 28.416 329.408 28.416H91.392C84.688 28.416 79.232 33.872 79.232 40.576V381.9840000000001C79.232 388.6880000000001 84.688 394.144 91.392 394.144H329.408C336.112 394.144 341.568 388.6880000000001 341.568 381.9840000000001V40.576zM420.512 512H182.496C160.16 512 142.016 493.856 142.016 471.52C142.016 463.664 148.304 457.36 156.176 457.36S170.336 463.648 170.336 471.52C170.336 478.224 175.792 483.68 182.496 483.68H420.512C427.216 483.68 432.6720000000001 478.224 432.6720000000001 471.52V130.016C432.6720000000001 123.312 427.216 117.856 420.512 117.856C412.656 117.856 406.352 111.5679999999999 406.352 103.6959999999999S412.64 89.5359999999999 420.512 89.5359999999999C442.848 89.5359999999999 460.992 107.6799999999999 460.992 130.0159999999999V471.5199999999999C460.992 493.8559999999999 442.848 511.9999999999999 420.512 511.9999999999999z" />
    <glyph glyph-name="cross"
      unicode="&#xE00D;"
      horiz-adv-x="512" d="M512 481.872L482.32 511.488L256 285.6L29.68 511.488L0 481.872L226.32 255.984L0 30.112L29.68 0.496L256 226.368L482.32 0.496L512 30.112L285.664 255.984z" />
    <glyph glyph-name="down-arrow-2"
      unicode="&#xE00E;"
      horiz-adv-x="512" d="M503.8162586687697 381.9322108309824L487.0450003658567 398.8200229270157C481.7667785916959 404.0940820657078 474.7444125561997 406.9996016227774 467.2391808063481 406.9996016227774C459.7381116919651 406.9996016227774 452.7074203855317 404.0940820657078 447.4291986113709 398.8200229270157L256.1144724753861 207.4969715200936L64.5791266595663 399.0323173359133C59.3092301563427 404.3063764746055 52.2785388499094 407.2077333962065 44.7774697355263 407.2077333962065S30.2415466792413 404.3063764746055 24.9674875405491 399.0323173359133L8.1920666021675 382.2485711265945C-2.7306888673892 371.334140927975 -2.7306888673892 353.5555248416654 8.1920666021675 342.6410946430459L236.2378881129115 113.7752339449913C241.5077846161351 108.5053374417677 248.5301506516314 104.7922666037934 256.0978219335117 104.7922666037934H256.1852372783519C263.6904690282035 104.7922666037934 270.7128350636997 108.5095000772363 275.9827315669234 113.7752339449913L503.8162586687696 342.0208619582272C509.0944804429304 347.2907584614508 511.9916747290628 354.5254189058447 512 362.0264880202277C512 369.5317197700795 509.0944804429305 376.6664769632273 503.8162586687697 381.9322108309824z" />
    <glyph glyph-name="down-arrow"
      unicode="&#xE00F;"
      horiz-adv-x="512" d="M460.6626341463415 232.5479024390244L443.891512195122 249.3231869918699C438.6258211382115 254.5972032520325 431.586861788618 257.5151869918699 424.0941788617887 257.5151869918699C416.5931707317074 257.5151869918699 408.9173333333334 254.5972032520325 403.6516422764228 249.3231869918699L295.2200325203252 141.5367804878048V483.9815284552845C295.2200325203252 499.4247804878049 283.9477073170732 512 268.5086178861789 512H244.7776260162602C229.3426991869919 512 215.2189918699187 499.4247804878049 215.2189918699187 483.9815284552845V140.3171382113821L107.003837398374 249.3231869918699C101.7298211382114 254.5972032520325 95.0946341463415 257.5151869918699 87.5936260162602 257.5151869918699C80.1009430894309 257.5151869918699 73.2576260162602 254.5972032520325 67.9877723577236 249.3231869918699L51.3082276422764 232.5479024390244C40.3938861788618 221.6293983739837 40.439674796748 203.8675772357723 51.3540162601626 192.9490731707317L236.1485528455285 8.1753495934959C241.4100813008131 2.9138211382113 248.4698536585366 0 256.0249756097561 0H256.1040650406505C263.6009105691057 0 270.6440325203252 2.9138211382113 275.9055609756098 8.1753495934959L460.6626341463415 192.9449105691057C471.5853008130082 203.8592520325203 471.5853008130082 221.6293983739837 460.6626341463415 232.5479024390244z" />
    <glyph glyph-name="download"
      unicode="&#xE010;"
      horiz-adv-x="512" d="M169.312 301.648C163.648 295.9840000000001 163.648 286.896 169.312 281.232L245.8400000000001 204.704C248.624 201.92 252.368 200.432 256.0000000000001 200.432S263.3760000000001 201.824 266.1600000000001 204.704L342.6880000000001 281.2320000000001C348.3520000000001 286.896 348.3520000000001 295.9840000000001 342.6880000000001 301.648S327.9360000000001 307.312 322.2720000000001 301.648L270.4320000000002 249.808V497.584C270.4320000000002 505.6 264.0160000000002 512.016 256.0000000000001 512.016S241.5680000000002 505.6 241.5680000000002 497.584V249.808L189.7280000000001 301.648C184.0640000000001 307.312 174.8640000000001 307.312 169.3120000000001 301.648zM491.904 183.424L441.664 365.136C440.496 369.312 437.6 372.624 433.76 374.432L432.368 375.072C430.448 375.92 428.416 376.352 426.384 376.352H335.856C327.84 376.352 321.424 369.9359999999999 321.424 361.92S327.84 347.488 335.856 347.488H416.6720000000001L459.104 193.776H346.8640000000001C338.848 193.776 332.432 187.36 332.432 179.3439999999999V166.3039999999999C332.432 147.1679999999999 316.928 131.6639999999999 297.7920000000001 131.6639999999999H209.7120000000001C190.5760000000001 131.6639999999999 175.0720000000001 147.168 175.0720000000001 166.3039999999999V179.3439999999999C175.0720000000001 187.36 168.6560000000001 193.776 160.6400000000001 193.776H52.7840000000001L95.4400000000001 347.808H176.2560000000001C184.2720000000001 347.808 190.6880000000001 354.224 190.6880000000001 362.24S184.2720000000001 376.6719999999999 176.2560000000001 376.6719999999999H85.6160000000001C83.5840000000001 376.6719999999999 81.5520000000001 376.24 79.6320000000001 375.392L78.2400000000001 374.752C74.4000000000001 372.928 71.3920000000001 369.616 70.3360000000001 365.456L20.0960000000001 183.744C19.7760000000001 182.464 19.5680000000001 181.184 19.5680000000001 179.888V104.096C19.5680000000001 46.704 66.2720000000001 -0.016 123.6800000000001 -0.016H388.3360000000002C445.7280000000001 -0.016 492.4480000000001 46.688 492.4480000000001 104.096V179.552C492.4480000000001 180.944 492.3360000000001 182.2240000000001 491.9200000000001 183.408zM463.584 104.112C463.584 62.64 429.808 28.864 388.336 28.864H123.68C82.208 28.864 48.432 62.64 48.432 104.112V164.928H146.448C147.2 130.624 175.408 102.928 209.936 102.928H298.016C332.5440000000001 102.928 360.752 130.608 361.504 164.928H463.792V104.112H463.584z" />
    <glyph glyph-name="envato"
      unicode="&#xE011;"
      horiz-adv-x="512" d="M411.808 509.2C393.504 518.192 300.64 507.92 233.696 443.6960000000001C128.224 338.384 130.752 199.632 130.752 199.632S127.264 185.36 112.416 206.064C79.904 247.504 96.928 342.832 98.848 356.112C101.536 374.832 89.6 375.3760000000001 84.64 369.2000000000001C-32.864 206.064 73.248 72.496 142.72 30.096C224.064 -19.5359999999999 384.5120000000001 -19.504 448.4160000000001 121.296C528.032 296.624 434.7520000000001 497.968 411.8080000000001 509.2z" />
    <glyph glyph-name="envelope"
      unicode="&#xE012;"
      horiz-adv-x="512" d="M449.504 450.816H62.624C28.08 450.816 0.016 422.736 0.016 388.208V123.792C0.016 89.2480000000001 28.096 61.184 62.624 61.184H449.408C483.952 61.184 512.016 89.264 512.016 123.792V388.112C512.1279999999999 422.656 484.0479999999999 450.832 449.52 450.832zM483.504 123.792C483.504 105.04 468.256 89.792 449.504 89.792H62.624C43.872 89.792 28.624 105.04 28.624 123.792V388.112C28.624 406.864 43.872 422.112 62.624 422.112H449.408C468.16 422.112 483.408 406.864 483.408 388.112V123.792H483.52zM322.896 259.28L448.112 371.568C453.936 376.864 454.464 385.872 449.168 391.808C443.872 397.632 434.8640000000001 398.16 428.928 392.864L256.256 237.872L222.56 267.952C222.448 268.064 222.352 268.16 222.352 268.272C221.616 269.0079999999999 220.864 269.6479999999999 220.016 270.2879999999999L82.928 392.9599999999999C76.992 398.2559999999999 67.984 397.728 62.688 391.7919999999999S57.92 376.848 63.856 371.5519999999999L190.56 258.3039999999999L64.384 140.1759999999999C58.656 134.7679999999999 58.352 125.776 63.744 119.9359999999999C66.608 116.976 70.416 115.3759999999999 74.24 115.3759999999999C77.728 115.3759999999999 81.232 116.6399999999999 83.984 119.1839999999999L212.064 239.0079999999999L246.816 207.9679999999999C249.568 205.5359999999999 252.96 204.3679999999999 256.352 204.3679999999999S263.232 205.6319999999999 265.888 208.0799999999999L301.584 240.0799999999999L428.928 119.1039999999999C431.68 116.4479999999999 435.2799999999999 115.1839999999999 438.784 115.1839999999999C442.592 115.1839999999999 446.3039999999999 116.6719999999999 449.168 119.6319999999998C454.576 125.3599999999999 454.352 134.4639999999998 448.64 139.8719999999999L322.896 259.2639999999999z" />
    <glyph glyph-name="facebook-logo"
      unicode="&#xE013;"
      horiz-adv-x="512" d="M388.944 427.008L340.752 426.992C302.9600000000001 426.992 295.648 409.04 295.648 382.688V324.576H385.776L385.7440000000001 233.552H295.648V0H201.648V233.552H123.056V324.576H201.648V391.6960000000001C201.648 469.6 249.2320000000001 512.0160000000001 318.7200000000001 512.0160000000001L388.9600000000001 511.904L388.9600000000001 427.024z" />
    <glyph glyph-name="garbage"
      unicode="&#xE014;"
      horiz-adv-x="512" d="M469.472 438.32H362.944V455.696C362.944 486.752 337.68 512.016 306.624 512.016H205.36C174.304 512.016 149.04 486.752 149.04 455.696V438.32H42.512C34.624 438.32 28.304 432 28.304 424.112S34.624 409.904 42.512 409.904H68.192V76.016C68.192 34.128 102.304 0.016 144.192 0.016H367.776C409.664 0.016 443.776 34.128 443.776 76.016V409.904H469.456C477.3439999999999 409.904 483.664 416.224 483.664 424.112S477.344 438.32 469.456 438.32zM177.472 455.68C177.472 471.056 190 483.568 205.36 483.568H306.624C322 483.568 334.512 471.04 334.512 455.68V438.304H177.456V455.68zM415.376 76C415.376 49.792 394 28.416 367.792 28.416H144.208C118 28.416 96.624 49.792 96.624 76V409.888H415.472V76H415.36zM256 79.36C263.888 79.36 270.2080000000001 85.68 270.2080000000001 93.568V344.7200000000001C270.2080000000001 352.6080000000001 263.8880000000001 358.928 256 358.928S241.792 352.6080000000001 241.792 344.7200000000001V93.664C241.792 85.776 248.112 79.344 256 79.344zM163.264 95.056C171.152 95.056 177.472 101.376 177.472 109.264V329.1520000000001C177.472 337.04 171.152 343.36 163.264 343.36S149.056 337.04 149.056 329.1520000000001V109.264C149.056 101.376 155.472 95.056 163.264 95.056zM348.736 95.056C356.624 95.056 362.944 101.376 362.944 109.264V329.1520000000001C362.944 337.04 356.624 343.36 348.736 343.36S334.528 337.04 334.528 329.1520000000001V109.264C334.528 101.376 340.848 95.056 348.736 95.056z" />
    <glyph glyph-name="glasses"
      unicode="&#xE015;"
      horiz-adv-x="512" d="M504.432 201.184L436.624 416.4640000000001C427.072 447.8400000000001 393.6960000000001 465.584 362.3040000000001 456.032C354.848 453.728 350.5440000000001 445.856 352.8640000000001 438.4000000000001S363.04 426.64 370.4960000000001 428.9600000000001C386.9760000000001 434 404.4000000000001 424.656 409.4400000000001 408.1760000000001V408.064L457.936 253.872C442.5120000000001 262.576 424.7680000000001 267.52 405.872 267.52C351.504 267.52 306.576 226.368 300.496 173.68H211.28C204.352 225.536 159.856 265.632 106.112 265.632C87.12 265.632 69.264 260.592 53.84 251.8880000000001L102.96 408.064V408.1760000000001C108 424.656 125.424 434 141.904 428.9600000000001C149.36 426.656 157.328 430.9600000000001 159.536 438.4C161.84 445.856 157.536 453.824 150.096 456.032C118.72 465.584 85.44 447.8400000000001 75.792 416.464L8.192 200.976C7.984 200.352 7.872 199.824 7.776 199.184C2.848 186.896 0.016 173.472 0.016 159.504C0.016 101.04 47.664 53.3920000000001 106.128 53.3920000000001C159.872 53.3920000000001 204.368 93.4880000000001 211.296 145.3440000000001H301.04C308.8 94.4320000000001 352.896 55.2960000000001 405.888 55.2960000000001C464.352 55.2960000000001 512 102.9440000000001 512 161.408C512.112 175.472 509.376 188.912 504.448 201.184zM106.224 81.728C63.296 81.728 28.448 116.576 28.448 159.504S63.296 237.2800000000001 106.224 237.2800000000001S184 202.432 184 159.504S149.056 81.728 106.224 81.728zM405.984 83.616C363.056 83.616 328.208 118.464 328.208 161.392S363.152 239.168 405.984 239.168S483.76 204.32 483.76 161.392S448.912 83.616 405.984 83.616z" />
    <glyph glyph-name="google-play"
      unicode="&#xE016;"
      horiz-adv-x="512" d="M21.328 56C21.328 40.528 27.792 26.384 36.112 18.544C43.664 8.176 61.408 0 77.056 0C86.288 0 95.616 2.304 104.176 7.04L358.624 149.2480000000001C359.024 149.4880000000001 359.216 149.8720000000001 359.584 150.1280000000001C374.224 156.5920000000001 401.6960000000001 173.8080000000001 462 207.04H462.016C500.16 228.432 500.208 283.5200000000001 462 304.9600000000001C405.472 333.8240000000001 377.984 353.7280000000001 361.648 361.3440000000001C344.56 373.456 301.2800000000001 395.2000000000001 207.088 448.0000000000001C87.52 514.9920000000001 68.992 526.5120000000001 40.24 497.984C9.952 485.4560000000001 24.8 401.7120000000001 21.344 56.0000000000001zM240.576 256.496C238.416 254.384 55.344 58.624 53.328 56.496C56.464 370.352 50.448 415.536 53.52 455.328C55.504 453.2 233.36 263.408 240.576 256.496zM74.368 32.144C320.624 290.7200000000001 252.16 218.72 264.048 231.9360000000001C266.08 229.776 329.136 162.8800000000001 325.104 167.1520000000001C81.472 32.8320000000001 88.56 30.496 74.368 32.1600000000001zM446.352 234.96L353.888 183.248L285.328 256L353.888 328.752L446.352 277.04C462.736 267.8880000000001 462.72 244.1280000000001 446.352 234.976zM325.04 344.784C298.4000000000001 316.8 321.968 340.928 263.04 279.68L74.32 479.92C95.68 478.016 162.704 434.752 325.024 344.8z" />
    <glyph glyph-name="hand"
      unicode="&#xE017;"
      horiz-adv-x="512" d="M480.352 254.192C479.584 258.352 477.072 261.856 473.456 264.048C390.224 313.664 341.376 323.952 305.68 331.408C301.072 332.4 296.592 333.264 292.32 334.2560000000001L276.88 461.184C276.336 489.216 253.328 512 225.184 512C197.3599999999999 512 174.912 490.528 173.488 462.928C173.488 462.384 173.376 461.936 173.376 461.3920000000001V386.704L172.176 204.352L152.464 219.5680000000001C148.624 222.848 121.904 244.432 88.832 244.432C66.496 244.432 46.672 235.0080000000001 29.904 216.608C25.2 211.456 24.752 203.792 28.816 198.096C30.24 196.128 64.192 148.592 117.424 100.192C148.96 71.6 180.72 48.72 211.824 32.176C251.472 11.152 290.24 0.304 327.152 -0.016C327.696 -0.016 328.352 -0.016 328.912 -0.016V-0.016C379.296 -0.016 418.496 16.624 445.44 49.376C505.456 122.3200000000001 481.36 248.8160000000001 480.384 254.1760000000001zM422.528 68.016C401.504 42.384 369.952 29.472 328.896 29.472C328.3520000000001 29.472 327.904 29.472 327.36 29.472C254.096 30.016 183.776 79.8560000000001 137.776 121.5840000000001C101.088 154.8800000000001 73.376 188.3840000000001 60.672 204.816C69.328 211.504 78.64 214.7840000000001 88.928 214.7840000000001C112.688 214.7840000000001 133.28 197.1520000000001 133.392 196.9280000000001C133.616 196.7040000000001 133.936 196.4960000000001 134.16 196.2720000000001L177.856 162.6560000000001C182.352 159.2640000000001 188.256 158.6080000000001 193.408 161.1200000000001C198.448 163.5360000000001 201.616 168.6720000000001 201.728 174.2560000000001L203.152 386.4960000000001V460.4160000000001C203.152 460.5280000000001 203.152 460.7520000000001 203.152 460.8480000000001C203.488 472.8960000000001 213.232 482.3200000000001 225.28 482.3200000000001C237.552 482.3200000000001 247.408 472.3520000000001 247.408 460.1920000000001C247.408 459.6480000000001 247.408 458.9920000000001 247.52 458.4320000000001L264.064 320.5440000000001C264.832 314.5280000000002 269.104 309.6000000000002 274.912 308.0640000000001C282.8 305.9840000000001 290.896 304.2240000000001 299.552 302.4800000000002C334.16 295.2480000000001 377.088 286.1600000000001 452.448 242.1280000000001C456.176 216.7200000000001 466.8 121.7600000000001 422.544 68.0000000000001z" />
    <glyph glyph-name="headphones"
      unicode="&#xE018;"
      horiz-adv-x="512" d="M512 253.6960000000001C512 322.0800000000001 485.376 386.4160000000001 437.04 434.736S324.384 509.696 256 509.696S123.28 483.072 74.96 434.736S0 322.0800000000001 0 253.6960000000001V132.4960000000001C0 64.0000000000001 55.776 8.224 124.272 8.224C132.496 8.224 139.072 14.8000000000001 139.072 23.0240000000001V241.8720000000001C139.072 250.0960000000001 132.4960000000001 256.6720000000001 124.272 256.6720000000001C86.352 256.6720000000001 52.384 239.6800000000001 29.584 212.8320000000001V253.7120000000001C29.584 378.5280000000002 131.168 480.1280000000001 256 480.1280000000001S482.416 378.5440000000001 482.416 253.7120000000001C482.416 252.7200000000001 482.528 251.7440000000001 482.752 250.7520000000001C482.528 249.7600000000001 482.416 248.7840000000001 482.416 247.7920000000002V206.9120000000002C459.616 233.7600000000002 425.648 250.7520000000002 387.728 250.7520000000002C379.504 250.7520000000002 372.928 244.1760000000002 372.928 235.9520000000002V17.1040000000002C372.928 8.8800000000002 379.504 2.3040000000001 387.728 2.3040000000001C456.224 2.3040000000001 512 58.0800000000002 512 126.5760000000001V247.7760000000001C512 248.7680000000002 511.888 249.7440000000002 511.664 250.7360000000001C511.888 251.7280000000001 512 252.7040000000001 512 253.6960000000001zM109.376 225.968V39.008C64.224 46.128 29.488 85.36 29.488 132.48C29.6 179.6 64.224 218.832 109.376 225.952zM402.624 33.088V220.048C447.776 212.928 482.5120000000001 173.696 482.5120000000001 126.576C482.4 79.3440000000001 447.7760000000001 40.224 402.624 33.104z" />
    <glyph glyph-name="heart"
      unicode="&#xE019;"
      horiz-adv-x="512" d="M470.64 439.28C443.824 466.096 408.336 480.736 370.448 480.736S296.96 465.968 270.16 439.168L256.16 425.168L241.936 439.392C215.12 466.208 179.408 481.072 141.536 481.072C103.76 481.072 68.16 466.304 41.456 439.616C14.64 412.8 -0.112 377.2000000000001 0 339.3280000000001C0 301.4400000000001 14.864 265.952 41.68 239.136L245.52 35.2960000000001C248.336 32.4800000000001 252.144 30.96 255.824 30.96S263.312 32.3680000000001 266.128 35.2L470.4 238.7200000000001C497.216 265.5360000000001 511.968 301.136 511.968 339.0080000000001C512.0799999999999 376.8960000000001 497.424 412.4960000000001 470.6079999999999 439.2960000000001zM449.808 259.424L255.84 66.2240000000001L62.304 259.7600000000001C41.024 281.0400000000001 29.312 309.264 29.312 339.3280000000001S40.928 397.6160000000001 62.208 418.7840000000001C83.376 439.952 111.6 451.6800000000001 141.552 451.6800000000001C171.616 451.6800000000001 199.952 439.9520000000001 221.216 418.6880000000001L245.744 394.1600000000001C251.504 388.4000000000001 260.7200000000001 388.4000000000001 266.48 394.1600000000001L290.8 418.48C312.0800000000001 439.7600000000001 340.4000000000001 451.472 370.368 451.472S428.544 439.7440000000001 449.824 418.576C471.104 397.2960000000001 482.72 369.0720000000001 482.72 339.0080000000001C482.8320000000001 308.9440000000001 471.104 280.7200000000001 449.824 259.4400000000001z" />
    <glyph glyph-name="house"
      unicode="&#xE01A;"
      horiz-adv-x="512" d="M507.28 279.8400000000001L266.336 495.296C265.92 495.712 265.488 496.032 264.9600000000001 496.352C259.6960000000001 501.408 251.2640000000001 501.616 245.6960000000001 496.672L4.752 281.216C-1.152 275.952 -1.568 266.992 3.6 261.1040000000001C6.448 257.952 10.336 256.3680000000001 14.24 256.3680000000001C17.616 256.3680000000001 20.976 257.52 23.712 259.952L67.104 298.8160000000001V47.552C67.104 27.856 83.104 11.744 102.912 11.744C103.232 11.744 103.44 11.744 103.76 11.744S104.288 11.744 104.608 11.744H178.96C197.488 11.744 212.56 26.8 212.56 45.3440000000001V173.0880000000001C212.56 175.9360000000001 214.88 178.2560000000001 217.712 178.2560000000001H294.48C297.3280000000001 178.2560000000001 299.648 175.9360000000001 299.648 173.0880000000001V45.3440000000001C299.648 26.816 314.704 11.744 333.2480000000001 11.744H409.2800000000001C429.2960000000001 11.744 445.088 31.4400000000001 445.088 56.608V297.44L488.48 258.576C491.216 256.16 494.592 254.992 497.952 254.992C501.856 254.992 505.744 256.576 508.592 259.728C513.648 265.632 513.12 274.576 507.328 279.8400000000001zM416.496 209.6V56.8C416.496 46.592 411.44 40.368 409.12 40.368H333.088C330.24 40.368 327.92 42.688 327.92 45.536V173.056C327.92 191.584 312.8640000000001 206.656 294.32 206.656H217.552C199.024 206.656 183.952 191.6 183.952 173.056V45.312C183.952 42.464 181.632 40.144 178.8 40.144H104.448C104.128 40.144 103.92 40.144 103.6 40.144S103.072 40.144 102.752 40.144C98.752 40.144 95.376 43.408 95.376 47.52V324.272L255.232 467.072L416.464 322.9120000000001V209.6z" />
    <glyph glyph-name="icon"
      unicode="&#xE01B;"
      horiz-adv-x="512" d="M340.448 266.016L234.128 343.296C230.224 346.128 225.04 346.544 220.768 344.352C216.464 342.1760000000001 213.76 337.7440000000001 213.76 332.9600000000001V178.448C213.76 173.616 216.448 169.2 220.768 167.008C222.592 166.08 224.592 165.632 226.592 165.632C229.216 165.632 231.872 166.464 234.128 168.112L340.448 245.3280000000001C343.808 247.7920000000001 345.76 251.6160000000001 345.76 255.6640000000001C345.776 259.7920000000001 343.76 263.5840000000001 340.448 266.0000000000001zM256.016 511.968C114.608 511.968 0 397.376 0 255.952C0 114.592 114.592 0.032 256.016 0.032C397.3920000000001 0.032 512 114.6080000000001 512 255.952C512.016 397.36 397.392 511.968 256.016 511.968zM256.016 42.752C138.256 42.752 42.768 138.1760000000001 42.768 255.968C42.768 373.6960000000001 138.24 469.248 256.016 469.248C373.76 469.248 469.232 373.712 469.232 255.968C469.248 138.192 373.776 42.752 256.016 42.752z" />
    <glyph glyph-name="instagram-social-network-logo-of-photo-camera"
      unicode="&#xE01C;"
      horiz-adv-x="512" d="M65.712 512H446.272C482.416 512 511.984 485.248 511.984 446.288V65.712C511.984 26.752 482.416 0 446.272 0H65.712C29.552 0 0 26.752 0 65.712V446.288C0 485.248 29.568 512 65.712 512V512zM372.976 455.12C360.304 455.12 349.936 444.752 349.936 432.064V376.896C349.936 364.224 360.304 353.84 372.976 353.84H430.848C443.5200000000001 353.84 453.904 364.208 453.904 376.896V432.064C453.904 444.752 443.536 455.12 430.848 455.12H372.976zM454.128 295.472H409.072C413.328 281.552 415.648 266.8 415.648 251.552C415.648 166.384 344.384 97.36 256.4960000000001 97.36S97.36 166.4 97.36 251.552C97.36 266.8160000000001 99.6640000000001 281.552 103.936 295.4720000000001H56.912V79.2000000000001C56.912 68.0000000000001 66.064 58.8480000000001 77.264 58.8480000000001H433.808C445.008 58.8480000000001 454.16 68.0000000000001 454.16 79.2000000000001V295.4720000000001H454.1439999999999zM256.48 356.752C199.696 356.752 153.648 312.144 153.648 257.12S199.696 157.488 256.48 157.488C313.264 157.488 359.312 202.096 359.312 257.12S313.264 356.752 256.48 356.752z" />
    <glyph glyph-name="joystick"
      unicode="&#xE01D;"
      horiz-adv-x="512" d="M182.8842840822862 268.2222426056719C164.0508659723323 268.2222426056719 148.7290344637809 252.9004110971207 148.7290344637809 234.0669929871668S164.0508659723323 199.9117433686616 182.8842840822862 199.9117433686616S217.0395337007914 215.2335748772129 217.0395337007914 234.0669929871668S201.7177021922401 268.222242605672 182.8842840822862 268.222242605672zM182.8842840822862 210.5852588744444C169.9362424222209 210.5852588744444 159.4025499695638 221.1189513271016 159.4025499695638 234.0669929871668S169.9362424222209 257.5487270998891 182.8842840822862 257.5487270998891S206.3660181950085 247.015034647232 206.3660181950085 234.0669929871668S195.8323257423514 210.5852588744444 182.8842840822862 210.5852588744444zM329.1114465115116 268.2222426056719C310.2780284015577 268.2222426056719 294.9561968930064 252.9004110971207 294.9561968930064 234.0669929871668S310.2780284015577 199.9117433686616 329.1114465115116 199.9117433686616S363.2666961300168 215.2335748772129 363.2666961300168 234.0669929871668S347.9448646214655 268.222242605672 329.1114465115116 268.222242605672zM329.1114465115116 210.5852588744444C316.1634048514464 210.5852588744444 305.6297123987893 221.1189513271016 305.6297123987893 234.0669929871668S316.1634048514464 257.5487270998891 329.1114465115116 257.5487270998891S352.5931806242339 247.015034647232 352.5931806242339 234.0669929871668S342.0594881715768 210.5852588744444 329.1114465115116 210.5852588744444zM92.4614627719453 329.2993003844133L104.3240079050724 320.0122745428316C105.2899610583458 319.2565896450223 106.451239545375 318.877679844567 107.6135853839547 318.877679844567S109.9372097095637 319.2555222934717 110.903162862837 320.0122745428316L122.7657079959641 329.2993003844133C124.0582707237144 330.3111496543616 124.8128882699733 331.8598767542507 124.8128882699733 333.5014634390401V352.0477639818884C124.8128882699733 354.9947216130351 122.424155499779 357.3845217347798 119.4761305170818 357.3845217347798H95.7510402508276C92.8030152681304 357.3845217347798 90.4142824979362 354.9947216130351 90.4142824979362 352.0477639818884V333.5014634390401C90.4142824979362 331.8598767542507 91.168900044195 330.310082302811 92.4614627719454 329.2993003844133zM101.0877980037191 346.7110062289969H114.140440115741V336.1015318162488L107.6146527355053 330.9921199436305L101.0888653552696 336.1015318162488V346.7110062289969zM122.7667753475147 286.1302669212745L110.9042302143876 295.4172927628562C108.9712565562903 296.9297299100256 106.2569815631697 296.9297299100256 104.325075256623 295.4172927628562L92.4625301234959 286.1302669212745C91.1699673957456 285.1184176513263 90.4153498494867 283.5696905514372 90.4153498494867 281.9281038666478V263.3818033237995C90.4153498494867 260.4348456926528 92.8040826196809 258.045045570908 95.7521076023782 258.045045570908H119.4782652201829C122.4262902028802 258.045045570908 124.8150229730744 260.4348456926528 124.8150229730744 263.3818033237995V281.9281038666478C124.8139556215238 283.5686231998866 124.059338075265 285.1184176513263 122.7667753475147 286.1302669212745zM114.1404401157409 268.7185610766909H101.0877980037191V279.3280354894391L107.6135853839547 284.4374473620574L114.1393727641904 279.3280354894391V268.7185610766909zM119.9105425981672 304.425739849737L129.1975684397488 292.5621273650593C130.2094177096971 291.2706319888595 131.7592121611367 290.5149470910501 133.4007988459261 290.5149470910501H151.9470993887745C154.8951243714717 290.5149470910501 157.2838571416659 292.9047472127949 157.2838571416659 295.8517048439415V319.5778624617463C157.2838571416659 322.5248200928929 154.8951243714717 324.9146202146377 151.9470993887745 324.9146202146377H133.4007988459261C131.7602795126873 324.9146202146377 130.2104850612476 324.1600026683789 129.1986357912994 322.8674399406285L119.9116099497177 311.0048948075014C118.3981054509977 309.0729885009547 118.3981054509977 306.3576461562835 119.9105425981671 304.4257398497369zM135.9997998715843 314.2411047088549H146.6092742843325V301.188462596833H135.9997998715843L130.890387998966 307.7153173286192L135.9997998715843 314.2411047088549zM81.8274392735339 290.5149470910501C83.4679586067727 290.5149470910501 85.0177530582124 291.2706319888595 86.0306696797112 292.5621273650593L95.3176955212928 304.425739849737C96.8301326684623 306.3576461562837 96.8301326684623 309.0729885009548 95.3166281697423 311.0048948075015L86.0296023281606 322.8674399406286C85.0188204097629 324.1600026683789 83.4690259583233 324.9146202146378 81.8274392735339 324.9146202146378H63.2811387306855C60.3331137479883 324.9146202146378 57.9443809777941 322.5248200928929 57.9443809777941 319.5778624617463V295.8517048439416C57.9443809777941 292.9047472127949 60.3331137479883 290.5149470910501 63.2811387306855 290.5149470910501H81.8274392735339zM68.617896483577 314.2411047088549H79.2273708963251L84.3367827689434 307.7153173286192L79.2273708963251 301.188462596833H68.617896483577V314.2411047088549zM510.717043436205 175.9923951202021L486.5191164330446 304.3093985307239C486.231998865939 332.0381244631972 472.2379526863071 356.5306404943172 450.9987241813498 371.334806500838L448.6142608173579 395.9500679602745C447.6824629137031 405.5839830557941 439.6794609874671 412.84837770903 430.0007171268231 412.84837770903H377.6513929771604C367.9726491165165 412.84837770903 359.9707145418311 405.5839830557942 359.0389166381762 395.9500679602745L356.9928037157177 374.8282481258808H155.0039942296308L152.9578813071722 395.9490006087239C152.0260834035174 405.5829157042436 144.0230814772813 412.8473103574794 134.3443376166374 412.8473103574794H81.9950134669747C72.3162696063308 412.8473103574794 64.3143350316454 405.5829157042436 63.3825371279906 395.9490006087239L60.9980737639987 371.3369412039392C39.7556432043896 356.5327751974184 25.7583949701059 332.0391918147478 25.4723447545509 304.3072638276227L1.2850912668963 175.9923951202021C-2.0055535635365 158.5401299166965 1.0492065742185 142.0869057645322 10.121694754134 128.4130650500738C18.2100848044163 116.2217756393686 30.7322531958007 106.9635682896525 45.3795185243866 102.3451381303003C52.1422579488506 100.2125697322449 59.0981880039693 99.1505549394195 65.9697972865923 99.1505549394195C73.9856074314353 99.1505549394195 81.8872109603663 100.596816290453 89.2209834643897 103.4765307739132C104.4979862078168 109.4761138397138 116.4416500587878 121.2009706228163 123.7562102349008 137.3884242388866L146.8312834068528 188.46546534026C156.7512487179274 180.606555873352 169.2734171093119 175.89633348065 182.8821493791851 175.89633348065C212.2407211293914 175.89633348065 236.5742017794753 197.7631646973474 240.4881799154459 226.0618563578296H271.5022139205991C275.4161920565697 197.7631646973474 299.7496727066535 175.89633348065 329.1082444568599 175.89633348065C342.7191114298343 175.89633348065 355.2423471727693 180.6076232249026 365.1633798353945 188.4686673949117L388.2405877104477 137.3894915904372C395.5530131834595 121.2052400290186 407.4913402766777 109.4793158943655 422.7662083170035 103.479732828565C430.1021155241281 100.5989509935541 438.0026517015085 99.15162229097 446.0205965494527 99.15162229097C452.8890037774239 99.15162229097 459.8427991294415 100.2136370837954 466.6012691477031 102.3430034271991C481.2506691793902 106.9592988834502 493.7749722738758 116.2164388816157 501.8676317303604 128.4087956438714C510.9454566680287 142.0826363583299 514.0055535635366 158.5369278620448 510.717043436205 175.9923951202021zM470.5301902053818 303.4448437747555C470.5301902053818 266.6617746387265 440.6048547818184 236.7353718636125 403.8207182942388 236.7353718636125C398.1146569048473 236.7353718636125 392.5014551003561 237.4504974025 387.0686357079126 238.8594014492633C384.8698915137213 265.6755418059922 364.4183684530908 287.3993479149121 338.1850020429776 291.5257290094478C337.4773479649442 295.440774496969 337.1112463830959 299.4305345930306 337.1112463830959 303.4448437747555C337.1112463830959 340.2279129107845 367.0365818066594 370.1543156858985 403.8207182942389 370.1543156858985S470.5301902053819 340.2279129107845 470.5301902053819 303.4448437747555zM190.0590212052734 291.7797586784854C190.6044378476189 295.6318304245224 190.8894207116233 299.5297982872343 190.8894207116233 303.4448437747555C190.8894207116233 324.7235642870842 182.8085021221951 344.1461604529573 169.5616020279679 358.819042218757H342.4287918080768C329.1818917138497 344.1461604529573 321.1009731244215 324.7235642870842 321.1009731244215 303.4448437747555C321.1009731244215 299.5287309356837 321.3859559884259 295.6307630729719 321.9313726307714 291.7786913269348C295.8634457109979 288.5531549410872 275.0949192398456 268.0269172719161 271.5043486237002 242.0721296165039H240.4903146185469C236.9008113539521 268.0279846234668 216.129082828148 288.556356995739 190.0590212052734 291.7797586784854zM377.6513929771604 396.8381044503556H430.000717126823C431.3936109003277 396.8381044503556 432.5452832234017 395.7931672823395 432.6797695187745 394.4066776181383L434.0342386364584 380.4254396571133C424.6682287801339 384.1152739674625 414.4824929329654 386.1635215930222 403.8217856457894 386.1635215930222C393.1653477648158 386.1635215930222 382.9838813238495 384.1152739674625 373.6200061706262 380.428641711765L374.9734079367594 394.4056102665877C375.1078942321323 395.7931672823395 376.2584992036557 396.8381044503556 377.6513929771604 396.8381044503556zM79.3170284265737 394.4077449696889C79.4515147219465 395.7931672823395 80.6021196934699 396.8381044503556 81.9950134669746 396.8381044503556H134.3443376166373C135.737231390142 396.8381044503556 136.888903713216 395.7931672823395 137.0233900085888 394.4066776181383L138.3778591262727 380.4275743602145C129.0129166214988 384.1152739674625 118.8293154774313 386.1645889445728 108.1707428933565 386.1645889445728S87.3285691652143 384.1163413190131 77.9636266604404 380.4275743602145L79.3170284265737 394.4077449696889zM108.169675541806 370.1543156858985C144.9538120293855 370.1543156858985 174.8791474529489 340.2279129107845 174.8791474529489 303.4448437747555C174.8791474529489 299.42946724148 174.5130458711006 295.4397071454183 173.8053917930672 291.5246616578972C147.5752274376058 287.3950785087098 127.1269064316269 265.6744744544416 124.9270948858851 238.8604688008138C119.4921407903404 237.4504974024999 113.8768042827481 236.7353718636125 108.1696755418059 236.7353718636125C71.3855390542264 236.7353718636125 41.4602036306629 266.6617746387265 41.4602036306629 303.4448437747555S71.3855390542264 370.1543156858984 108.1696755418059 370.1543156858984zM109.1687165931472 143.9814547668086C96.88136554289 116.7949434220291 70.6917605463505 111.1529231256722 50.1954087205957 117.6146694128733C29.6990568948408 124.0774830516248 11.4921741450764 143.7167515822652 17.0189204739708 173.026225161145L34.5181491457018 265.863395678894C48.2314818675316 239.0974208450422 76.0872226345238 220.7250986049381 108.1707428933565 220.7250986049381C114.1639218498536 220.7250986049381 120.0781167916079 221.3687115899368 125.8503539771353 222.6281864196192C127.4236301626877 214.7735463589136 130.5851254555006 207.4899393777674 134.9815464923326 201.1167832692644L109.1687165931473 143.9814547668086zM182.8842840822861 191.9066067393243C159.637367310691 191.9066067393243 140.7238978344437 210.8200762155716 140.7238978344437 234.0669929871667S159.637367310691 276.2273792350091 182.8842840822861 276.2273792350091S225.0446703301285 257.3139097587619 225.0446703301285 234.0669929871667S206.1312008538812 191.9066067393243 182.8842840822861 191.9066067393243zM329.1114465115116 191.9066067393243C305.8645297399164 191.9066067393243 286.9510602636692 210.8200762155716 286.9510602636692 234.0669929871667S305.8645297399164 276.2273792350091 329.1114465115116 276.2273792350091S371.2718327593539 257.3139097587619 371.2718327593539 234.0669929871667S352.3583632831066 191.9066067393243 329.1114465115116 191.9066067393243zM461.7917830607973 117.612534709772C441.2911618288402 111.1529231256722 415.113297699357 116.8013475313326 402.8344854615044 143.9803874152581L377.0184535076674 201.1221200270173C381.4127398413982 207.4931414324191 384.5742351342111 214.7756810620147 386.1464439682129 222.6271190680687C391.9176138021897 221.3676442383863 397.8296740408429 220.7250986049382 403.8207182942388 220.7250986049382C435.9063732561727 220.7250986049382 463.7631813747154 239.0995555481435 477.4754467449947 265.8676650850963L494.9832142291303 173.026225161145C500.5056911518224 143.712482176063 482.2924042927545 124.0732136454225 461.7917830607973 117.6125347097721zM403.8207182942388 314.0319038049415C415.0268422237603 314.0319038049415 424.1441591688 323.1492207499813 424.1441591688 334.3553446795027S415.0268422237603 354.6787855540639 403.8207182942388 354.6787855540639S383.4972774196777 345.5614686090242 383.4972774196777 334.3553446795027S392.6145943647174 314.0319038049415 403.8207182942388 314.0319038049415zM403.8207182942388 344.0042026967304C409.1414657738716 344.0042026967304 413.4706436630172 339.6750248075848 413.4706436630172 334.3542773279521C413.4706436630172 329.0335298483193 409.1414657738716 324.7043519591738 403.8207182942388 324.7043519591738S394.1707929254606 329.0335298483194 394.1707929254606 334.3542773279521C394.1707929254606 339.6750248075849 398.4999708146061 344.0042026967304 403.8207182942388 344.0042026967304zM403.8207182942388 292.85885109612C392.6145943647174 292.85885109612 383.4972774196777 283.7415341510803 383.4972774196777 272.5354102215589S392.6145943647174 252.2119693469977 403.8207182942388 252.2119693469977S424.1441591688 261.3292862920374 424.1441591688 272.5354102215589S415.0268422237603 292.85885109612 403.8207182942388 292.85885109612zM403.8207182942388 262.8854848527806C398.4999708146061 262.8854848527806 394.1707929254606 267.2146627419261 394.1707929254606 272.5354102215589C394.1707929254606 277.8561577011916 398.4999708146061 282.1853355903371 403.8207182942388 282.1853355903371S413.4706436630172 277.8561577011916 413.4706436630172 272.5354102215589C413.4706436630172 267.2146627419261 409.1425331254222 262.8854848527806 403.8207182942388 262.8854848527806zM434.7301518474355 323.7682846493167C423.524027917914 323.7682846493167 414.4077783244249 314.6509677042769 414.4077783244249 303.4448437747555S423.524027917914 283.1214029001943 434.7301518474355 283.1214029001943S455.0535927219966 292.238719845234 455.0535927219966 303.4448437747555S445.9362757769569 323.7682846493167 434.7301518474355 323.7682846493167zM434.7301518474355 293.7959857575278C429.4104717193533 293.7959857575278 425.0812938302077 298.1251636466733 425.0812938302077 303.4459111263061C425.0812938302077 308.7666586059388 429.4104717193532 313.0958364950843 434.7301518474355 313.0958364950843C440.0508993270683 313.0958364950843 444.3800772162138 308.7666586059388 444.3800772162138 303.4459111263061C444.3800772162138 298.1240962951228 440.0519666786188 293.7959857575278 434.7301518474355 293.7959857575278zM393.2347256156034 303.4448437747555C393.2347256156034 314.6509677042769 384.1174086705637 323.7682846493167 372.9112847410422 323.7682846493167S352.587843866481 314.6509677042769 352.587843866481 303.4448437747555S361.7051608115208 283.1214029001943 372.9112847410422 283.1214029001943S393.2347256156034 292.238719845234 393.2347256156034 303.4448437747555zM372.9112847410422 293.7959857575278C367.5905372614094 293.7959857575278 363.2613593722639 298.1251636466733 363.2613593722639 303.4459111263061C363.2613593722639 308.7666586059388 367.5905372614094 313.0958364950843 372.9112847410422 313.0958364950843S382.5612101098205 308.7666586059388 382.5612101098205 303.4459111263061C382.5612101098205 298.1240962951228 378.2330995722255 293.7959857575278 372.9112847410422 293.7959857575278zM231.1531232540881 307.7142499770686H219.4122561977269C216.4642312150297 307.7142499770686 214.0754984448355 305.3244498553238 214.0754984448355 302.3774922241772S216.4642312150297 297.0407344712858 219.4122561977269 297.0407344712858H231.1531232540881C234.1011482367853 297.0407344712858 236.4898810069795 299.4305345930306 236.4898810069795 302.3774922241772S234.1000808852347 307.7142499770686 231.1531232540881 307.7142499770686zM280.8426073397096 297.0407344712858H292.5834743960708C295.5314993787681 297.0407344712858 297.9202321489623 299.4305345930306 297.9202321489623 302.3774922241772S295.5314993787681 307.7142499770686 292.5834743960708 307.7142499770686H280.8426073397096C277.8945823570124 307.7142499770686 275.5058495868182 305.3244498553238 275.5058495868182 302.3774922241772S277.895649708563 297.0407344712858 280.8426073397096 297.0407344712858z" />
    <glyph glyph-name="left-arrow-2"
      unicode="&#xE01E;"
      horiz-adv-x="512" d="M206.6814959349594 255.8917723577236L398.2194471544716 447.4380487804878C403.4934634146342 452.6995772357724 406.3947967479675 459.7343739837398 406.3947967479675 467.2353821138211C406.3947967479675 474.7405528455284 403.4934634146342 481.7711869918699 398.2194471544716 487.0410406504065L381.435837398374 503.8163252032521C376.1701463414635 509.0945040650407 369.1311869918699 512 361.6301788617887 512S347.098536585366 509.0945040650407 341.8286829268293 503.816325203252L113.7722276422764 275.7640325203252C108.4815609756098 270.4775284552846 105.5843902439025 263.413593495935 105.6052032520325 255.9042601626016C105.5843902439025 248.3616260162601 108.4773983739838 241.3060162601626 113.7722276422764 236.0153495934959L341.6163902439025 8.1836747967479C346.8862439024391 2.9054959349593 353.9168780487805 0 361.4220487804879 0C368.9230569105692 0 375.9536910569106 2.9054959349593 381.2277073170732 8.1836747967479L398.0071544715447 24.9589593495935C408.9256585365854 35.8774634146342 408.9256585365854 53.6517723577236 398.0071544715447 64.5661138211382L206.6814959349594 255.8917723577236z" />
    <glyph glyph-name="left-arrow"
      unicode="&#xE01F;"
      horiz-adv-x="512" d="M483.2197723577236 296.1503739837398L484.0189918699187 295.9755447154471H141.4119024390244L249.1150569105692 403.9159674796748C254.3890731707318 409.1858211382114 257.2820813008131 416.3246829268293 257.2820813008131 423.8173658536586C257.2820813008131 431.3100487804878 254.3890731707318 438.3989593495935 249.1150569105692 443.6813008130082L232.3564227642277 460.4482601626016C227.0865691056911 465.7181138211382 220.0642601626017 468.6319349593496 212.5757398373984 468.6319349593496C205.0830569105691 468.6319349593496 198.0565853658537 465.7389268292683 192.7867317073171 460.4690731707317L8.1628617886179 275.8618536585366C2.8721951219512 270.5711869918699 -0.0208130081301 263.5239024390244 0 256.0270569105691C-0.0208130081301 248.4885853658536 2.8721951219512 241.4371382113821 8.1628617886179 236.1547967479675L192.7867317073171 51.5309268292683C198.0565853658537 46.2652357723577 205.0788943089431 43.3680650406504 212.5757398373984 43.3680650406504C220.0642601626017 43.3680650406504 227.0865691056911 46.2693983739837 232.3564227642277 51.5309268292683L249.1150569105692 68.2978861788618C254.3890731707318 73.5594146341463 257.2820813008131 80.5858861788618 257.2820813008131 88.078569105691C257.2820813008131 95.5670894308943 254.3890731707318 102.2230894308943 249.1150569105692 107.4887804878048L140.1964227642277 216.0327804878048H483.6027317073171C499.0334959349594 216.0327804878048 512 229.3322926829268 512 244.7547317073171V268.4690731707317C512 283.8915121951219 498.650536585366 296.1503739837398 483.2197723577236 296.1503739837398z" />
    <glyph glyph-name="like"
      unicode="&#xE020;"
      horiz-adv-x="512" d="M489.92 163.92C500.416 177.296 505.44 191.648 504.8 206.432C504.16 222.704 496.88 235.44 490.88 243.264C497.84 260.608 500.512 287.904 477.28 309.1040000000001C460.256 324.624 431.344 331.584 391.312 329.664C363.152 328.384 339.6 323.136 338.64 322.9120000000001H338.528C333.168 321.952 327.504 320.7680000000001 321.712 319.488C321.28 326.336 322.464 343.36 335.088 381.6960000000001C350.08 427.312 349.216 462.208 332.304 485.552C314.528 510.064 286.16 512 277.808 512C269.776 512 262.384 508.688 257.152 502.576C245.264 488.768 246.656 463.28 248.16 451.504C234.032 413.6 194.416 320.6720000000001 160.896 294.8640000000001C160.256 294.432 159.712 293.904 159.184 293.36C149.328 282.976 142.688 271.728 138.192 261.8880000000001C131.8720000000001 265.312 124.704 267.2480000000001 116.992 267.2480000000001H51.68C27.056 267.2480000000001 7.136 247.2320000000001 7.136 222.704V48.72C7.136 24.096 27.152 4.176 51.68 4.176H116.992C126.528 4.176 135.4080000000001 7.1680000000001 142.6880000000001 12.3200000000001L167.8560000000001 9.328C171.7120000000001 8.8 240.2400000000001 0.112 310.576 1.52C323.312 0.5600000000001 335.312 0.016 346.4480000000001 0.016C365.6160000000001 0.016 382.3200000000001 1.52 396.24 4.512C429.0080000000001 11.472 451.376 25.392 462.736 45.84C471.408 61.472 471.408 76.992 470.016 86.848C491.328 106.128 495.0719999999999 127.424 494.3199999999999 142.416C493.8879999999999 151.088 491.968 158.48 489.9359999999999 163.936zM51.68 33.088C43.008 33.088 36.048 40.16 36.048 48.72V222.816C36.048 231.4880000000001 43.12 238.4480000000001 51.68 238.4480000000001H116.992C125.664 238.4480000000001 132.624 231.3760000000001 132.624 222.816V48.832C132.624 40.16 125.552 33.2 116.992 33.2H51.68V33.088zM462.512 176.448C458.016 171.744 457.152 164.56 460.592 158.992C460.592 158.88 464.976 151.392 465.52 141.104C466.272 127.072 459.52 114.656 445.392 104.064C440.368 100.208 438.32 93.568 440.464 87.568C440.464 87.456 445.072 73.328 437.568 59.952C430.4 47.104 414.448 37.904 390.24 32.752C370.8640000000001 28.576 344.528 27.824 312.192 30.4C311.76 30.4 311.2320000000001 30.4 310.688 30.4C241.84 28.896 172.256 37.888 171.504 38.0000000000001H171.392L160.576 39.28C161.216 42.2720000000001 161.536 45.4880000000001 161.536 48.704V222.8C161.536 227.408 160.784 231.904 159.504 236.08C161.424 243.248 166.784 259.2 179.424 272.8C227.504 310.912 274.496 439.504 276.528 445.072C277.392 447.328 277.6 449.776 277.168 452.24C275.344 464.224 275.9839999999999 478.896 278.56 483.296C284.24 483.184 299.552 481.5839999999999 308.752 468.848C319.68 453.744 319.248 426.768 307.472 391.008C289.488 336.512 287.984 307.824 302.224 295.184C309.296 288.864 318.72 288.544 325.568 291.008C332.096 292.512 338.304 293.792 344.192 294.752C344.624 294.864 345.152 294.96 345.584 295.072C378.448 302.24 437.344 306.64 457.792 288C475.136 272.16 462.816 251.168 461.4400000000001 248.928C457.472 242.928 458.6560000000001 235.12 464.0160000000001 230.304C464.1280000000001 230.192 475.3600000000001 219.6 475.9040000000001 205.36C476.3360000000001 195.824 471.84 186.0799999999999 462.5280000000001 176.448z" />
    <glyph glyph-name="link"
      unicode="&#xE021;"
      horiz-adv-x="512" d="M270.64 290.048C265.024 284.432 265.024 275.408 270.64 269.7920000000001C293.872 246.56 293.872 208.816 270.64 185.584L148.688 63.632C125.456 40.4 87.712 40.4 64.48 63.632L46.128 81.984C22.896 105.216 22.896 142.96 46.128 166.192L168.08 288.144C173.696 293.76 173.696 302.784 168.08 308.4S153.44 314.016 147.824 308.4L25.872 186.448C9.216 169.792 0 147.632 0 124.096S9.12 78.384 25.872 61.744L44.224 43.3920000000001C61.408 26.208 83.984 17.616 106.576 17.616S151.76 26.208 168.928 43.3920000000001L290.88 165.3440000000001C325.232 199.696 325.232 255.6960000000001 290.88 290.0640000000001C285.36 295.6800000000001 276.24 295.6800000000001 270.624 290.0640000000001zM486.224 450.272L467.872 468.624C433.5200000000001 502.976 377.52 502.976 343.1520000000001 468.624L221.2000000000001 346.6720000000001C186.8480000000001 312.32 186.8480000000001 256.32 221.2000000000001 221.952C226.8160000000001 216.336 235.8400000000001 216.336 241.4560000000001 221.952S247.0720000000001 236.592 241.4560000000001 242.208C218.2240000000001 265.44 218.2240000000001 303.184 241.4560000000001 326.416L363.408 448.368C386.64 471.6 424.384 471.6 447.616 448.368L465.968 430.016C489.1999999999999 406.784 489.1999999999999 369.04 465.968 345.808L344.016 223.856C338.4 218.24 338.4 209.216 344.016 203.6C346.768 200.848 350.48 199.36 354.096 199.36S361.408 200.736 364.176 203.6L486.1279999999999 325.552C502.7839999999999 342.2080000000001 511.9999999999999 364.3680000000001 511.9999999999999 387.904S502.8799999999999 433.6160000000001 486.2239999999999 450.2560000000001z" />
    <glyph glyph-name="logout"
      unicode="&#xE022;"
      horiz-adv-x="512" d="M247.328 29.344H113.792C77.504 29.344 48.048 58.896 48.048 95.088V416.928C48.048 453.216 77.6 482.6719999999999 113.792 482.6719999999999H249.504C257.648 482.6719999999999 264.176 489.184 264.176 497.3439999999999S257.664 512.016 249.504 512.016H113.792C61.312 512.016 18.72 469.312 18.72 416.944V95.1039999999999C18.72 42.6239999999999 61.424 0.0319999999999 113.792 0.0319999999999H247.328C255.472 0.0319999999999 262 6.5439999999999 262 14.704S255.376 29.376 247.328 29.376zM488.992 266.32L395.76 359.552C390 365.312 380.768 365.312 375.008 359.552S369.248 344.56 375.008 338.8L443.248 270.56H145.632C137.488 270.56 130.96 264.048 130.96 255.888S137.472 241.216 145.632 241.216H443.248L375.008 172.976C369.248 167.216 369.248 157.9839999999999 375.008 152.2239999999999C377.84 149.392 381.632 147.872 385.328 147.872S392.832 149.28 395.648 152.2239999999999L488.88 245.4559999999999C494.752 251.3279999999999 494.752 260.6719999999999 488.992 266.32z" />
    <glyph glyph-name="magnifying-glass"
      unicode="&#xE023;"
      horiz-adv-x="512" d="M507.52 26.112L383.104 150.528C416.48 188.896 436.688 238.9600000000001 436.688 293.68C436.688 414.128 338.72 511.984 218.384 511.984C97.936 511.984 0.08 414.016 0.08 293.68S98.048 75.376 218.384 75.376C273.104 75.376 323.168 95.584 361.536 128.96L485.9519999999999 4.528C488.896 1.5839999999999 492.8799999999999 -0.0160000000001 496.7359999999999 -0.0160000000001S504.5759999999999 1.4559999999999 507.5199999999999 4.5279999999999C513.424 10.4319999999999 513.424 20.1919999999999 507.5199999999999 26.0959999999999zM30.592 293.6960000000001C30.592 397.232 114.832 481.36 218.256 481.36C321.792 481.36 405.92 397.12 405.92 293.6960000000001S321.792 105.92 218.256 105.92C114.832 105.92 30.592 190.16 30.592 293.696z" />
    <glyph glyph-name="minus"
      unicode="&#xE024;"
      horiz-adv-x="512" d="M0 272.88H512V239.12H0V272.88z" />
    <glyph glyph-name="monitor"
      unicode="&#xE025;"
      horiz-adv-x="512" d="M448.848 485.952H63.152C28.384 485.952 0 457.68 0 422.8V178.176C0 143.408 28.272 115.024 63.152 115.024H241.648V54.752H152.672C144.704 54.752 138.32 48.368 138.32 40.4S144.704 26.0480000000001 152.672 26.0480000000001H359.344C367.312 26.0480000000001 373.696 32.4320000000001 373.696 40.4S367.312 54.752 359.344 54.752H270.368V115.024H448.8640000000001C483.6320000000001 115.024 512.0160000000001 143.296 512.0160000000001 178.176V422.8C512.0160000000001 457.664 483.7440000000001 485.952 448.8640000000001 485.952zM63.152 457.248H448.96C467.888 457.248 483.408 441.8400000000001 483.408 422.8V218.368H28.704V422.8C28.704 441.824 44.112 457.248 63.152 457.248zM448.848 143.728H63.152C44.224 143.728 28.704 159.136 28.704 178.176V189.664H483.296V178.176C483.296 159.248 467.888 143.728 448.848 143.728z" />
    <glyph glyph-name="musical-note"
      unicode="&#xE026;"
      horiz-adv-x="512" d="M486.944 399.216V497.488C486.944 502.096 484.688 506.496 481.04 509.184C477.28 511.872 472.464 512.72 468.064 511.328L175.28 418.304C169.2640000000001 416.368 165.2 410.8 165.2 404.464V117.888C149.856 128.512 130.224 134.304 109.632 134.304C87.856 134.304 67.152 127.76 51.376 115.952C34.432 103.184 25.088 85.904 25.088 67.136S34.416 31.088 51.376 18.3199999999999C67.152 6.5119999999999 87.744 -0.032 109.632 -0.032S152.112 6.5119999999999 167.888 18.3199999999999C184.832 31.088 194.1760000000001 48.3679999999999 194.1760000000001 67.136V295.44L458.0000000000001 379.344V211.328C442.6560000000001 221.952 423.0240000000001 227.744 402.4320000000001 227.744C380.6560000000001 227.744 359.9520000000001 221.2 344.1760000000001 209.392C327.2320000000001 196.624 317.8880000000001 179.344 317.8880000000001 160.576S327.216 124.528 344.1760000000001 111.76C359.9520000000001 99.952 380.5440000000001 93.408 402.432 93.408S444.9120000000001 99.952 460.688 111.76C477.632 124.528 486.976 141.808 486.976 160.576V399.072C486.976 399.1840000000001 486.976 399.1840000000001 486.976 399.1840000000001zM109.6 28.96C79.456 28.96 54.032 46.448 54.032 67.152S79.456 105.344 109.6 105.344S165.168 87.856 165.168 67.152C165.168 46.336 139.744 28.96 109.6 28.96zM194.144 325.9360000000001V393.952L457.968 477.744V409.728L194.144 325.9360000000001zM402.496 122.416C372.352 122.416 346.928 139.904 346.928 160.608S372.352 198.8 402.496 198.8S458.064 181.312 458.064 160.608C457.9519999999999 139.904 432.528 122.416 402.496 122.416z" />
    <glyph glyph-name="next-1"
      unicode="&#xE027;"
      horiz-adv-x="512" d="M387.056 266.208L145.536 507.728C139.856 513.408 130.736 513.408 125.04 507.728S119.36 492.928 125.04 487.232L356.272 256L125.04 24.768C119.36 19.088 119.36 9.968 125.04 4.272C127.824 1.4880000000001 131.584 -0.016 135.232 -0.016S142.64 1.376 145.424 4.272L386.944 245.7920000000001C392.624 251.3760000000001 392.624 260.5920000000001 387.0560000000001 266.1760000000001z" />
    <glyph glyph-name="padlock"
      unicode="&#xE028;"
      horiz-adv-x="512" d="M419.904 288.88H412.368V355.584C412.368 441.808 342.272 512 255.952 512C169.728 512 99.536 441.904 99.536 355.584C99.536 347.632 105.904 341.264 113.856 341.264S128.176 347.632 128.176 355.584C128.176 426 185.44 483.376 255.968 483.376C326.384 483.376 383.76 426.112 383.76 355.584V288.88H92.128C76.864 288.88 64.448 276.48 64.448 261.2V82.928C64.448 37.216 101.664 0 147.376 0H364.672C410.384 0 447.6 37.216 447.6 82.928V261.2C447.6 276.464 435.2 288.88 419.92 288.88zM418.944 82.928C418.944 53.024 394.656 28.624 364.64 28.624H147.456C117.552 28.624 93.152 52.912 93.152 82.928V260.24H418.928V82.928zM256.048 88.768C285.632 88.768 309.6 112.848 309.6 142.32C309.6 171.904 285.5200000000001 195.872 256.048 195.872C226.464 195.872 202.496 171.792 202.496 142.32S226.464 88.768 256.048 88.768zM256.048 167.344C269.84 167.344 280.976 156.096 280.976 142.416S269.84 117.392 256.048 117.392S231.12 128.64 231.12 142.32S242.256 167.344 256.048 167.344z" />
    <glyph glyph-name="paper-plane"
      unicode="&#xE029;"
      horiz-adv-x="512" d="M506.96 510.688C503.84 512.464 500 512.432 496.912 510.608L313.664 402.24C308.912 399.424 307.328 393.296 310.144 388.544S319.088 382.208 323.8400000000001 385.024L455.328 462.768L210.416 208.656L88.608 245.92L247.5680000000001 339.92C252.3200000000001 342.736 253.9040000000001 348.8640000000001 251.0880000000001 353.616S242.1440000000001 359.952 237.3920000000001 357.136L58.9120000000001 251.6C55.5040000000001 249.584 53.6000000000001 245.7440000000001 54.0640000000001 241.8080000000001S57.2800000000001 234.5920000000001 61.0720000000001 233.4240000000001L206.5440000000001 188.912L270.7200000000001 72.096C270.7840000000001 71.968 270.8640000000001 71.872 270.9280000000001 71.776C272.0000000000001 69.984 273.6000000000002 68.528 275.6000000000002 67.696C276.8480000000002 67.168 278.1760000000002 66.912 279.4720000000002 66.912C282.0320000000002 66.912 284.5600000000002 67.9040000000001 286.4640000000002 69.7600000000001L360.2560000000002 141.888L499.0560000000002 99.424C500.0160000000002 99.136 501.0080000000002 98.992 501.9840000000002 98.992C504.0960000000002 98.992 506.1920000000002 99.6640000000001 507.9360000000002 100.96C510.4800000000002 102.848 511.9840000000002 105.824 511.9840000000002 108.992V502C511.9840000000002 505.584 510.0640000000002 508.912 506.9440000000002 510.688zM271.264 182.768C270.112 181.088 269.488 179.104 269.488 177.072V115.904L225.664 195.6639999999999L419.584 396.88L271.264 182.7679999999999zM289.488 100.688V163.552L338.48 148.56L289.488 100.6879999999999zM492 122.512L295.504 182.624L492 466.288V122.512zM164.416 164.416C160.512 168.32 154.176 168.32 150.272 164.416L56.912 71.072C53.008 67.168 53.008 60.832 56.912 56.928C58.864 54.976 61.424 54 63.984 54S69.104 54.976 71.056 56.928L164.416 150.272C168.32 154.176 168.32 160.512 164.416 164.416zM40.064 40.08C36.16 43.984 29.824 43.984 25.92 40.08L2.912 17.072C-0.992 13.168 -0.992 6.832 2.912 2.928C4.864 0.976 7.424 0 9.984 0S15.104 0.976 17.056 2.928L40.064 25.936C43.968 29.84 43.968 36.176 40.064 40.08zM142.656 17.664C140.8 19.52 138.224 20.592 135.584 20.592S130.368 19.52 128.512 17.664S125.584 13.232 125.584 10.592C125.584 7.968 126.656 5.376 128.512 3.52S132.944 0.592 135.584 0.592S140.8 1.664 142.656 3.52C144.512 5.376 145.584 7.952 145.584 10.592S144.512 15.808 142.656 17.664zM217.056 92.064C213.152 95.968 206.816 95.968 202.912 92.064L153.472 42.624C149.568 38.72 149.568 32.384 153.472 28.48C155.424 26.528 157.984 25.552 160.544 25.552S165.664 26.528 167.616 28.48L217.056 77.92C220.96 81.824 220.96 88.16 217.056 92.064zM387.712 95.856C383.808 99.76 377.472 99.76 373.568 95.856L323.984 46.272C320.08 42.368 320.08 36.032 323.984 32.128C325.936 30.176 328.496 29.2 331.056 29.2S336.176 30.176 338.128 32.128L387.712 81.712C391.616 85.616 391.616 91.952 387.712 95.856zM283.504 375.6960000000001C281.648 377.552 279.072 378.624 276.432 378.624S271.216 377.552 269.36 375.6960000000001C267.504 373.8400000000001 266.432 371.264 266.432 368.608S267.504 363.408 269.36 361.552C271.216 359.68 273.7920000000001 358.624 276.432 358.624S281.648 359.68 283.504 361.552C285.36 363.408 286.432 365.984 286.432 368.608S285.36 373.824 283.504 375.6960000000001z" />
    <glyph glyph-name="phone-call"
      unicode="&#xE02A;"
      horiz-adv-x="512" d="M404.64 194.832C394.16 205.744 381.52 211.584 368.112 211.584C354.816 211.584 342.064 205.856 331.152 194.944L297.008 160.912C294.192 162.432 291.392 163.824 288.688 165.232C284.8 167.184 281.12 169.0080000000001 277.984 170.96C246 191.28 216.928 217.744 189.056 252.0000000000001C175.552 269.0720000000001 166.464 283.4400000000001 159.872 298.0320000000001C168.736 306.144 176.944 314.5600000000001 184.944 322.6720000000001C187.968 325.6960000000001 190.992 328.832 194.016 331.856C216.704 354.544 216.704 383.9360000000001 194.016 406.6400000000001L164.512 436.144C161.168 439.4880000000001 157.712 442.944 154.464 446.4160000000001C147.984 453.1200000000001 141.168 460.032 134.144 466.5120000000001C123.664 476.8800000000001 111.12 482.4 97.936 482.4S72 476.8960000000001 61.2 466.5120000000001C61.088 466.4 61.088 466.4 60.976 466.2880000000001L24.24 429.216C10.4 415.3760000000001 2.512 398.528 0.784 378.9600000000001C-1.808 347.408 7.488 318.016 14.624 298.7840000000001C32.128 251.5680000000001 58.288 207.792 97.296 160.8960000000001C144.624 104.3840000000001 201.5680000000001 59.7440000000001 266.624 28.3040000000001C291.4720000000001 16.5280000000001 324.656 2.5920000000001 361.712 0.2080000000001C363.984 0.0960000000001 366.352 -0.016 368.512 -0.016C393.472 -0.016 414.432 8.96 430.864 26.7840000000001C430.976 27.008 431.184 27.104 431.296 27.328C436.912 34.128 443.392 40.288 450.208 46.8800000000001C454.848 51.3120000000001 459.616 55.9520000000001 464.256 60.816C474.96 71.9520000000001 480.576 84.912 480.576 98.208C480.576 111.6 474.848 124.4640000000001 463.936 135.28L404.608 194.816zM443.328 81.04C443.216 81.04 443.216 80.928 443.328 81.04C439.12 76.496 434.784 72.4 430.144 67.856C423.12 61.152 415.9839999999999 54.128 409.296 46.24C398.384 34.576 385.5199999999999 29.056 368.6719999999999 29.056C367.056 29.056 365.3279999999999 29.056 363.6959999999999 29.168C331.5999999999999 31.216 301.7759999999999 43.76 279.4079999999999 54.448C218.2399999999999 84.064 164.5439999999999 126.096 119.9039999999999 179.36C83.0559999999999 223.776 58.4159999999999 264.832 42.0959999999999 308.928C32.0479999999999 335.8400000000001 28.3679999999999 356.8 29.9999999999999 376.576C31.0879999999999 389.216 35.9359999999999 399.6960000000001 44.9119999999999 408.6720000000001L81.7599999999999 445.5200000000001C87.0559999999999 450.496 92.6719999999999 453.2 98.1919999999999 453.2C104.9919999999999 453.2 110.5119999999999 449.088 113.9679999999999 445.632C114.0799999999999 445.5200000000001 114.1759999999999 445.4240000000001 114.2879999999999 445.312C120.8799999999999 439.1520000000001 127.1519999999999 432.784 133.7439999999999 425.968C137.0879999999999 422.512 140.5439999999999 419.0560000000001 144.0159999999999 415.488L173.5199999999999 385.9840000000001C184.9759999999999 374.528 184.9759999999999 363.9360000000001 173.5199999999999 352.48C170.3839999999999 349.3440000000001 167.3599999999999 346.2080000000001 164.2239999999999 343.1840000000001C155.1519999999999 333.8880000000001 146.4959999999999 325.2480000000001 137.1039999999999 316.8160000000001C136.8799999999999 316.5920000000001 136.6719999999999 316.4960000000001 136.5599999999999 316.2720000000001C127.2639999999999 306.976 128.9919999999999 297.904 130.9439999999999 291.7440000000001C131.0559999999999 291.4240000000001 131.1679999999998 291.088 131.2639999999999 290.7680000000001C138.9439999999999 272.1760000000001 149.7439999999998 254.6720000000001 166.1599999999999 233.824L166.2719999999999 233.712C196.0959999999999 196.976 227.5359999999999 168.336 262.2239999999998 146.4C266.6559999999999 143.584 271.1999999999998 141.328 275.5199999999998 139.152C279.4079999999998 137.2 283.0879999999998 135.376 286.2239999999998 133.424C286.6559999999999 133.2 287.0879999999998 132.88 287.5199999999998 132.672C291.1999999999998 130.832 294.6559999999999 129.968 298.2239999999998 129.968C307.1999999999998 129.968 312.8159999999998 135.584 314.6559999999999 137.424L351.6159999999998 174.384C355.2959999999998 178.064 361.1199999999999 182.496 367.9359999999998 182.496C374.6399999999998 182.496 380.1439999999999 178.288 383.5039999999998 174.608C383.6159999999998 174.496 383.6159999999998 174.496 383.7279999999998 174.384L443.2639999999998 114.848C454.3999999999998 103.824 454.3999999999998 92.48 443.3759999999998 81.024zM276.704 390.208C305.024 385.456 330.736 372.048 351.264 351.52S385.088 305.264 389.952 276.96C391.136 269.824 397.296 264.864 404.32 264.864C405.184 264.864 405.936 264.976 406.8 265.088C414.8 266.384 420.096 273.952 418.8 281.952C412.9600000000001 316.208 396.752 347.44 372.016 372.176S316.048 413.136 281.7920000000001 418.96C273.7920000000001 420.256 266.336 414.96 264.9280000000001 407.072S268.7040000000001 391.504 276.7040000000001 390.208zM511.408 286.144C501.792 342.544 475.2 393.8880000000001 434.368 434.736S342.192 502.16 285.776 511.776C277.888 513.184 270.432 507.776 269.024 499.888C267.728 491.888 273.024 484.432 281.024 483.024C331.3759999999999 474.48 377.312 450.608 413.824 414.192C450.352 377.6640000000001 474.1279999999999 331.7440000000001 482.6559999999999 281.3920000000001C483.84 274.2560000000001 489.9999999999999 269.2960000000001 497.0239999999999 269.2960000000001C497.8879999999999 269.2960000000001 498.6399999999999 269.408 499.504 269.52C507.3919999999999 270.704 512.8 278.2720000000001 511.3919999999999 286.1600000000001z" />
    <glyph glyph-name="photo-camera"
      unicode="&#xE02B;"
      horiz-adv-x="512" d="M504.448 352.8C502.352 353.952 453.216 379.472 371.328 394.896L368.176 408.336C359.984 443.504 329.024 468.176 292.8 468.176H219.2C183.088 468.176 152.112 443.616 143.824 408.336L140.672 394.896C58.784 379.568 9.648 353.952 7.552 352.8C2.928 350.384 0 345.552 0 340.304V173.376C0 106.496 54.384 52.016 121.36 52.016C129.232 52.016 135.536 58.3199999999999 135.536 66.192S129.232 80.3679999999999 121.36 80.3679999999999C70.1279999999999 80.3679999999999 28.352 122.048 28.352 173.3759999999999V331.3759999999999C45.3599999999999 339.152 90.288 357.5199999999999 154.864 368.64C160.432 369.584 164.944 373.8879999999999 166.208 379.344L171.4559999999999 401.92C176.7039999999999 424.176 196.2399999999999 439.824 219.2159999999999 439.824H292.8159999999999C315.6959999999999 439.824 335.3279999999999 424.2879999999999 340.5759999999999 401.92L345.8239999999999 379.344C347.0879999999999 373.776 351.5999999999999 369.584 357.1679999999999 368.64C421.5199999999999 357.5039999999999 466.5599999999999 339.136 483.6799999999999 331.3759999999999V173.3759999999999C483.6799999999999 122.1439999999999 441.9999999999999 80.3679999999999 390.6719999999999 80.3679999999999C382.7999999999999 80.3679999999999 376.4959999999999 74.064 376.4959999999999 66.192S382.7999999999999 52.016 390.6719999999999 52.016C457.5519999999999 52.016 512.0319999999999 106.4 512.0319999999999 173.376V340.304C512.0319999999999 345.552 509.1999999999999 350.384 504.4799999999999 352.8zM46.4 381.776C47.872 381.776 49.344 381.9840000000001 50.816 382.512C65.728 387.44 81.36 391.856 97.328 395.632C104.992 397.424 109.616 405.088 107.824 412.64C106.032 420.304 98.368 424.928 90.816 423.136C74.128 419.152 57.648 414.528 41.888 409.376C34.432 406.96 30.448 398.88 32.864 391.536C34.96 385.552 40.528 381.776 46.4 381.776zM256.048 370.224C166.08 370.224 92.912 297.056 92.912 207.088S166.08 43.84 256.048 43.84S419.184 117.008 419.184 206.976S346.016 370.224 256.048 370.224zM256.048 72.176C181.728 72.176 121.248 132.64 121.248 206.976S181.712 341.872 256.048 341.872S390.848 281.408 390.848 207.072S330.384 72.1760000000001 256.048 72.1760000000001z" />
    <glyph glyph-name="pie-chart"
      unicode="&#xE02C;"
      horiz-adv-x="512" d="M442.608 243.04H243.104V442.544C243.104 450.608 236.656 457.056 228.592 457.056C102.608 457.056 0.064 354.512 0.064 228.528S102.608 0 228.592 0S457.12 102.544 457.12 228.528C457.12 236.48 450.56 243.04 442.608 243.04zM228.592 29.024C118.624 29.024 29.088 118.56 29.088 228.528C29.088 333.664 110.784 420.0800000000001 214.08 427.504V228.528C214.08 220.464 220.528 214.016 228.592 214.016H427.568C420.144 110.72 333.728 29.024 228.592 29.024zM511.952 284.224C511.744 339.6960000000001 491.424 393.12 454.768 434.7200000000001C411.3440000000001 483.84 348.992 512.016 283.4240000000001 512.016C275.36 512.016 268.9120000000001 505.568 268.9120000000001 497.504V283.488C268.9120000000001 275.424 275.36 268.976 283.4240000000001 268.976H497.4400000000001C505.5040000000001 268.976 511.9520000000001 275.424 511.9520000000001 283.488C511.9520000000001 283.6960000000001 511.9520000000001 283.92 511.9520000000001 284.24zM297.92 297.872V482.336C349.728 478.576 398.3200000000001 454.608 432.928 415.36C461.952 382.576 479.152 341.2960000000001 482.368 297.872H297.904z" />
    <glyph glyph-name="piggy-bank"
      unicode="&#xE02D;"
      horiz-adv-x="512" d="M474.304 324.832H466.848C454.4639999999999 356.656 433.664 385.52 405.952 408.944C402.064 423.008 405.0079999999999 438.24 414.976 453.984C420.544 462.912 420.848 473.616 415.808 482.752C410.7679999999999 491.776 401.312 497.344 391.1359999999999 497.344C389.9839999999999 497.344 388.7199999999999 497.232 387.568 497.136C349.248 492.416 325.9359999999999 475.296 311.968 459.024C295.168 464.272 273.856 465.856 269.856 466.16C259.9839999999999 467.216 249.904 467.84 239.9359999999999 467.84C176.1919999999999 467.84 116.2399999999999 446 70.9919999999999 406.512C25.2159999999999 366.512 0.0159999999999 313.056 0.0159999999999 256.144C0.0159999999999 241.44 1.6959999999999 226.736 5.1679999999999 212.352C5.2799999999999 212.032 5.2799999999999 211.728 5.3759999999999 211.52L5.4879999999999 210.992C9.0559999999999 196.496 14.4159999999999 182.3199999999999 21.2319999999999 168.784C32.6719999999999 144.208 46.3359999999999 123.632 61.6639999999999 107.776C82.8799999999999 85.936 86.5439999999999 58.208 87.072 47.088V41.632C87.072 41.424 87.072 41.104 87.072 40.896C87.072 39.744 87.1839999999999 38.688 87.3919999999999 37.648C89.3919999999999 24.624 100.6239999999999 14.656 114.0639999999999 14.656H192.288C207.2 14.656 219.28 26.736 219.28 41.648V45.216C230.416 44.384 241.648 44.272 252.88 44.8V41.648C252.88 26.736 264.9599999999999 14.656 279.872 14.656H358.096C373.0079999999999 14.656 385.088 26.736 385.088 41.648V60.752C385.2 65.168 386.88 86.064 406.72 104.112C407.664 104.944 408.72 105.792 409.664 106.624C409.776 106.7360000000001 409.776 106.7360000000001 409.872 106.8320000000001C410.192 107.0400000000001 410.4000000000001 107.2480000000001 410.608 107.568C436.752 130.9760000000001 456.496 159.552 467.936 190.7360000000001H474.128C495.0240000000001 190.7360000000001 512.032 207.744 512.032 228.6400000000001V287.12C512.24 307.904 495.232 324.8160000000001 474.336 324.8160000000001zM391.136 469.104C391.024 469.104 391.024 469.104 391.136 469.104C391.024 469.216 391.024 469.216 391.024 469.216S391.024 469.216 391.024 469.104V469.104L389.2320000000001 483.168L391.12 469.104zM483.856 228.544C483.856 223.296 479.552 218.992 474.304 218.992H457.92C451.728 218.992 446.16 214.896 444.368 209.024C435.12 178.7839999999999 416.752 150.848 391.44 128.2719999999999C391.3279999999999 128.1599999999999 391.3279999999999 128.1599999999999 391.2319999999999 128.0639999999999L391.1199999999999 127.9519999999999C390.1759999999999 127.1199999999999 389.2319999999999 126.2719999999999 388.2879999999999 125.4399999999999C388.1759999999999 125.3279999999999 388.0799999999999 125.2319999999999 387.9679999999999 125.1199999999999C359.9359999999999 99.7119999999999 357.104 69.7759999999999 356.8799999999999 61.1679999999999C356.8799999999999 61.0559999999999 356.8799999999999 60.9599999999999 356.8799999999999 60.8479999999999V42.8959999999999H281.2799999999999V60.0159999999999C281.2799999999999 63.9999999999999 279.5999999999999 67.8879999999999 276.5599999999999 70.5119999999999C273.6159999999998 73.2479999999999 269.5199999999998 74.4959999999999 265.6319999999999 74.0799999999999C257.0239999999999 73.1359999999999 248.4159999999999 72.7199999999999 239.9039999999999 72.7199999999999C228.8799999999998 72.7199999999999 217.8559999999998 73.4559999999999 207.0399999999998 74.9279999999999C202.9439999999998 75.4559999999999 198.8479999999998 74.1919999999999 195.8079999999998 71.5679999999999C192.7679999999998 68.8319999999999 190.9759999999998 64.9599999999999 190.9759999999998 60.8639999999999V42.9119999999999H115.4719999999998V47.4239999999999C115.4719999999998 47.6319999999999 115.4719999999998 47.8399999999999 115.4719999999998 48.0479999999999C114.8479999999998 62.2239999999999 110.3199999999998 98.4479999999999 82.0799999999998 127.5359999999999C68.8479999999998 141.1839999999999 56.9759999999998 159.1359999999999 46.8959999999998 180.9759999999999C46.7839999999998 181.1839999999999 46.6879999999998 181.2959999999999 46.6879999999998 181.5039999999999C40.7039999999998 193.1519999999999 36.0799999999998 205.3439999999999 33.0399999999998 217.8399999999999C33.0399999999998 217.952 32.9279999999998 218.048 32.9279999999998 218.1599999999999S32.9279999999998 218.2719999999999 32.9279999999998 218.368C29.9839999999998 230.752 28.4159999999998 243.4719999999999 28.4159999999998 256.064C28.4159999999998 357.184 123.3439999999998 439.4079999999999 239.9999999999999 439.4079999999999C249.0239999999999 439.4079999999999 258.1599999999999 438.88 267.0879999999999 437.9359999999999C267.2959999999999 437.9359999999999 267.5039999999999 437.9359999999999 267.7119999999999 437.824C279.4719999999999 437.088 301.3119999999999 434.048 310.0319999999999 429.312C316.4319999999999 425.8399999999999 324.4159999999999 427.8399999999999 328.5119999999999 433.824C337.6479999999999 447.376 355.9199999999999 464.48 390.9919999999999 468.7839999999999C376.8159999999999 446.096 372.6239999999999 422.5759999999999 378.8159999999999 400.64C378.928 396.544 380.9119999999999 392.656 384.0639999999999 390.032C412.4159999999999 367.1359999999999 432.9919999999999 338.0479999999999 443.5039999999999 306.032C445.3919999999999 300.2559999999999 450.8479999999999 296.272 456.9439999999999 296.272C457.0559999999999 296.272 457.0559999999999 296.272 457.1519999999999 296.272H474.3679999999999C479.6159999999999 296.272 483.92 291.968 483.92 286.7199999999999V228.544H483.8079999999999z" />
    <glyph glyph-name="placeholder"
      unicode="&#xE02E;"
      horiz-adv-x="512" d="M255.888 512C142.752 512 50.656 419.904 50.656 306.7680000000001C50.656 293.8880000000001 51.84 280.896 54.304 268.24C54.416 267.488 54.848 265.232 55.696 261.376C58.816 247.536 63.424 233.904 69.44 220.912C91.552 168.848 140.176 88.88 246.8640000000001 3.232C249.552 1.088 252.7680000000001 0.016 255.9840000000001 0.016S262.432 1.088 265.1040000000001 3.232C371.6960000000001 88.88 420.4160000000001 168.8480000000001 442.528 220.912C448.5440000000001 233.9040000000001 453.152 247.4240000000001 456.272 261.3760000000001C457.136 265.2480000000001 457.568 267.4880000000001 457.664 268.24C460.032 280.9120000000001 461.3120000000001 293.8880000000001 461.3120000000001 306.7680000000001C461.104 419.904 369.0080000000001 512 255.8720000000001 512zM428.928 273.28C428.928 273.072 428.816 272.848 428.816 272.64C428.704 272.096 428.384 270.496 427.856 268.0320000000001C427.856 267.92 427.856 267.92 427.856 267.824C425.168 255.808 421.2 244.096 415.936 232.832C415.824 232.72 415.824 232.512 415.728 232.4C395.648 184.848 351.648 112.288 255.904 33.184C160.16 112.288 116.144 184.848 96.0799999999999 232.4C95.9679999999999 232.512 95.9679999999999 232.72 95.8719999999999 232.832C90.7199999999999 244 86.7519999999999 255.808 83.9519999999999 267.824C83.9519999999999 267.936 83.9519999999999 267.936 83.9519999999999 268.032C83.3119999999999 270.496 83.0879999999999 272.112 82.9919999999999 272.64C82.9919999999999 272.848 82.8799999999999 273.072 82.8799999999999 273.392C80.7359999999999 284.448 79.664 295.616 79.664 306.88C79.664 404.016 158.768 483.12 255.904 483.12S432.144 404.016 432.144 306.88C432.144 295.504 431.072 284.24 428.928 273.28zM255.888 434.8160000000001C184.08 434.8160000000001 125.584 376.32 125.584 304.512S184.08 174.208 255.888 174.208S386.192 232.704 386.192 304.512S327.6960000000001 434.816 255.888 434.816zM255.888 203.184C199.968 203.184 154.56 248.6880000000001 154.56 304.5120000000001S200.064 405.8400000000001 255.888 405.8400000000001S357.216 360.336 357.216 304.5120000000001S311.808 203.184 255.888 203.184z" />
    <glyph glyph-name="play-button-2"
      unicode="&#xE02F;"
      horiz-adv-x="512" d="M439.6965642039096 266.0390961689565L86.1643372461249 509.8544251053597C82.4217719469511 512.4266768256387 77.5698469011167 512.6948736874688 73.5712755065597 510.6102526250625C69.5605133455559 508.5012500297626 67.0492154575109 504.3563894378437 67.0492154575109 499.8214243196267V12.1907664468202C67.0492154575109 7.6558013286031 69.5605133455559 3.4987499702374 73.5712755065597 1.3897473749375C75.3511274077954 0.4632491249791 77.3016500392866 0 79.2399819043311 0C81.6659444272483 0 84.0797161837187 0.7314459868093 86.1643372461249 2.1577656610872L439.6965642039096 245.9730945974904C443.0002619109979 248.2527679230458 444.9629753089359 251.9953332222196 444.9629753089359 256.0060953832234S442.9880711445511 263.7594228434011 439.6965642039096 266.0390961689565z" />
    <glyph glyph-name="play-button"
      unicode="&#xE030;"
      horiz-adv-x="512" d="M388.8 263.0560000000001L201.072 391.0560000000001C198.448 392.832 195.072 393.024 192.272 391.552S187.728 387.168 187.728 384.016V128.016C187.728 124.848 189.472 121.952 192.272 120.48C193.52 119.808 194.896 119.488 196.256 119.488C197.936 119.488 199.616 119.984 201.056 120.976L388.784 248.976C391.12 250.56 392.512 253.2 392.512 256.0320000000001S391.12 261.488 388.784 263.088zM204.8 144.16V367.856L368.848 256.016L204.8 144.1760000000001zM256 512C114.848 512 0 397.152 0 256S114.848 0 256 0S512 114.848 512 256S397.152 512 256 512zM256 17.072C124.256 17.072 17.072 124.256 17.072 256S124.256 494.928 256 494.928S494.928 387.7440000000001 494.928 256S387.7440000000001 17.072 256 17.072z" />
    </font>
</defs>
</svg>
