<svg xmlns="http://www.w3.org/2000/svg" width="64" height="64" viewBox="0 0 64 64" fill="none"><rect width="64" height="64" rx="24" fill="white"></rect><path d="M41.375 32.5C44 36.7109 45.0391 41.0312 42.6328 43.4375C40.3359 45.6797 36.2891 45.0234 31.75 42.1797C27.1562 45.0234 23.1094 45.6797 20.8125 43.4375C18.4062 41.0312 19.4453 36.7109 22.0703 32.5547C19.4453 28.3438 18.4062 24.0234 20.8125 21.6172C23.2188 19.2109 27.5391 20.25 31.75 22.875C35.9062 20.25 40.2266 19.2109 42.6328 21.6172C45.0391 24.0234 44 28.3438 41.375 32.5ZM28.6328 39.9375C27.2109 38.7891 25.8984 37.5312 24.3125 35.6172C22.9453 38.2422 22.6172 40.2656 23.3281 40.9219C23.9844 41.6328 26.0078 41.3047 28.6328 39.9375ZM24.3125 29.4375C25.5703 27.8516 27.0469 26.375 28.6328 25.0625C25.4609 23.4219 23.8203 23.5859 23.3281 24.1328C22.6172 24.7891 22.9453 26.8125 24.3125 29.4375ZM37.1641 32.5C35.5781 30.4766 33.7734 28.6172 31.75 27.0859C29.6719 28.6172 27.8672 30.4766 26.3359 32.5C27.7031 34.3594 29.2891 36.0547 31.75 37.9141C33.6094 36.4922 35.25 34.9609 37.1641 32.5ZM33.4453 32.5C33.4453 33.4297 32.625 34.25 31.6953 34.25C30.7109 34.25 29.9453 33.4297 29.9453 32.5C29.9453 31.5156 30.7109 30.75 31.6953 30.75C32.625 30.75 33.4453 31.5703 33.4453 32.5ZM40.1172 24.1328C39.625 23.5859 37.9297 23.4219 34.8125 25.0625C36.3984 26.375 37.875 27.8516 39.1328 29.4375C40.5 26.8125 40.8281 24.7891 40.1172 24.1328ZM39.1328 35.6172C37.5469 37.5312 36.2344 38.7891 34.8125 39.9375C37.4375 41.3047 39.4609 41.6328 40.1172 40.9219C40.8281 40.2656 40.5 38.2422 39.1328 35.6172Z" fill="#375BD2"></path></svg>