<svg xmlns="http://www.w3.org/2000/svg" width="80" height="80" viewBox="0 0 80 80" fill="none"><rect width="80" height="80" rx="40" fill="white"></rect><path d="M34.25 30.125C33.5 29.875 33.0625 29 33.375 28.25C34.1875 25.8125 36.5625 24 39.3125 24C42 24 44.375 25.8125 45.25 28.25C45.5 29 45.0625 29.875 44.3125 30.125C43.5 30.4375 42.6875 30 42.375 29.25C41.9375 27.9375 40.75 27 39.3125 27C37.875 27 36.625 27.9375 36.1875 29.25C35.875 30 35.0625 30.4375 34.25 30.125ZM47 40.5C47 39.6875 47.625 39 48.5 39C49.3125 39 50 39.6875 50 40.5C50 41.375 49.3125 42 48.5 42C47.625 42 47 41.375 47 40.5ZM36 32H45.5C46.625 30.8125 48.1875 30 50 30H51.0625C52 30 52.75 30.9375 52.5 31.875L52 34C53.3125 35.0625 54.4375 36.4375 55.125 38H56C57.0625 38 58 38.9375 58 40V46C58 47.125 57.0625 48 56 48H54C53.1875 49.125 52.125 50 51 50.6875V53C51 54.6875 49.625 56 48 56H45C43.3125 56 42 54.6875 42 53V52H39V53C39 54.6875 37.625 56 36 56H33C31.3125 56 30 54.6875 30 53V50C27.625 48.3125 26.125 45.5625 26 42.5C23.6875 42.1875 22 40.25 22 37.9375C22 36.1875 22.9375 34.625 24.5 33.8125L24.8125 33.6875C25.5625 33.3125 26.4375 33.625 26.8125 34.375C27.1875 35.125 26.875 36 26.125 36.375L25.875 36.5C25.3125 36.8125 25 37.3125 25 37.9375C25 38.75 25.5625 39.375 26.3125 39.5C27.4375 35.1875 31.3125 32 36 32ZM36 35C32.125 35 29 38.1875 29 42C29 44.3125 30.0625 46.375 31.75 47.625C32.5 48.1875 33 49.0625 33 50V53H36V52C36 50.375 37.3125 49 39 49H42C43.625 49 45 50.375 45 52V53H48V50.6875C48 49.625 48.5625 48.625 49.4375 48.0625C50.3125 47.625 51 47 51.5625 46.25C52.125 45.5 53 45 54 45H55V41C53.875 40.9375 52.8125 40.25 52.375 39.25C51.875 38.125 51.125 37.125 50.1875 36.4375C49.1875 35.6875 48.75 34.5 49.0625 33.3125L49.125 33.1875C48.5625 33.3125 48.125 33.625 47.75 34C47.1875 34.6875 46.375 35 45.5 35H36Z" fill="#375BD2"></path></svg>