<svg xmlns="http://www.w3.org/2000/svg" width="90" height="32" viewBox="0 0 90 32" fill="none"><path d="M1.82345 30.4608C1.6233 30.4608 1.42314 30.4608 1.27303 30.4107C0.872727 30.3606 0.472424 30.1101 0.222234 29.7594C-0.428259 28.7574 0.122158 27.1041 4.97584 22.3947C5.27606 22.0941 5.82648 22.0941 6.12671 22.3947C6.42694 22.6953 6.42694 23.2464 6.12671 23.547C2.47394 27.1542 1.82345 28.5069 1.67333 28.9077C3.27455 29.2584 11.3307 26.1021 19.4368 20.3907C27.3928 14.8296 33.2973 8.11618 33.6476 6.46288C33.1472 6.46288 31.646 6.71338 27.3428 8.76749C26.9425 8.96789 26.4421 8.76749 26.292 8.36669C26.0918 7.96589 26.292 7.46488 26.6923 7.31458C32.7469 4.40878 34.3981 4.40878 35.0486 5.41078C35.3489 5.86168 36.1495 7.11418 31.0956 12.4248C27.7931 15.8316 24.1904 18.9378 20.3375 21.6432C14.1328 26.0019 5.3261 30.4608 1.82345 30.4608Z" fill="#472F50"></path><path d="M33.4474 13.6774C32.2465 21.2926 25.8416 26.9539 18.1858 27.2545C18.0357 27.2545 17.8856 27.2545 17.7855 27.2545H17.6354C16.7347 27.2545 15.8341 27.1543 14.9834 26.9038L14.8333 26.9539C13.0319 27.9559 11.1805 28.9078 9.4292 29.7094C16.9849 34.2685 26.8424 31.8136 31.3958 24.1984C32.4967 22.3948 33.1972 20.3908 33.4974 18.3367C33.5975 17.5351 33.6976 16.7335 33.6475 15.9319C33.6475 15.2305 33.5975 14.479 33.4474 13.6774Z" fill="#472F50"></path><path d="M9.92962 24.1984C5.4262 19.9399 5.22605 12.8257 9.47928 8.31669C11.4808 6.21249 14.1828 4.95999 17.035 4.80969C9.32916 5.11029 2.92431 10.8217 1.77344 18.4369C2.22378 21.3427 3.42469 24.0481 5.27609 26.2525C6.62712 25.7515 8.22833 25.0501 9.92962 24.1984Z" fill="#472F50"></path><path d="M32.2465 13.5771L32.0463 13.7775C31.0455 14.8296 29.9447 15.8316 28.8439 16.8837C28.3935 22.4949 23.8401 26.9037 18.2358 27.2043C25.9417 26.9538 32.3465 21.2424 33.4974 13.6272C33.4474 13.2264 33.3473 12.8256 33.2973 12.4248C32.947 12.8256 32.5967 13.1763 32.2465 13.5771Z" fill="#472F50"></path><path d="M17.6352 0C8.77847 0 1.62305 7.1643 1.62305 16.032C1.62305 16.8336 1.67308 17.6352 1.8232 18.4368C2.97407 10.8216 9.37892 5.1102 17.0347 4.8096C17.2349 4.8096 17.435 4.8096 17.6352 4.8096C21.9885 4.8096 25.9415 7.3146 27.7929 11.2224C28.2933 10.7214 28.7936 10.2204 29.244 9.7194C30.0446 8.8176 30.7451 8.0661 31.1955 7.4148C28.2432 2.8056 23.1394 0 17.6352 0Z" fill="#472F50"></path><path d="M1.82345 30.4608C1.6233 30.4608 1.42314 30.4608 1.27303 30.4107C0.872727 30.3606 0.472424 30.1101 0.222234 29.7594C-0.428259 28.7574 0.122158 27.1041 4.97584 22.3947C5.27606 22.0941 5.82648 22.0941 6.12671 22.3947C6.42694 22.6953 6.42694 23.2464 6.12671 23.547C2.47394 27.1542 1.82345 28.5069 1.67333 28.9077C3.27455 29.2584 11.3307 26.1021 19.4368 20.3907C27.3928 14.8296 33.2973 8.11618 33.6476 6.46288C33.1472 6.46288 31.646 6.71338 27.3428 8.76749C26.9425 8.96789 26.4421 8.76749 26.292 8.36669C26.0918 7.96589 26.292 7.46488 26.6923 7.31458C32.7469 4.40878 34.3981 4.40878 35.0486 5.41078C35.3489 5.86168 36.1495 7.11418 31.0956 12.4248C27.7931 15.8316 24.1904 18.9378 20.3375 21.6432C14.1328 26.0019 5.3261 30.4608 1.82345 30.4608Z" fill="#375BD2"></path><path d="M33.4474 13.6774C32.2465 21.2926 25.8416 26.9539 18.1858 27.2545C18.0357 27.2545 17.8856 27.2545 17.7855 27.2545H17.6354C16.7347 27.2545 15.8341 27.1543 14.9834 26.9038L14.8333 26.9539C13.0319 27.9559 11.1805 28.9078 9.4292 29.7094C16.9849 34.2685 26.8424 31.8136 31.3958 24.1984C32.4967 22.3948 33.1972 20.3908 33.4974 18.3367C33.5975 17.5351 33.6976 16.7335 33.6475 15.9319C33.6475 15.2305 33.5975 14.479 33.4474 13.6774Z" fill="#375BD2"></path><path d="M9.92962 24.1984C5.4262 19.9399 5.22605 12.8257 9.47928 8.31669C11.4808 6.21249 14.1828 4.95999 17.035 4.80969C9.32916 5.11029 2.92431 10.8217 1.77344 18.4369C2.22378 21.3427 3.42469 24.0481 5.27609 26.2525C6.62712 25.7515 8.22833 25.0501 9.92962 24.1984Z" fill="#375BD2"></path><path d="M32.2465 13.5771L32.0463 13.7775C31.0455 14.8296 29.9447 15.8316 28.8439 16.8837C28.3935 22.4949 23.8401 26.9037 18.2358 27.2043C25.9417 26.9538 32.3465 21.2424 33.4974 13.6272C33.4474 13.2264 33.3473 12.8256 33.2973 12.4248C32.947 12.8256 32.5967 13.1763 32.2465 13.5771Z" fill="#1A2B6B"></path><path d="M17.6352 0C8.77847 0 1.62305 7.1643 1.62305 16.032C1.62305 16.8336 1.67308 17.6352 1.8232 18.4368C2.97407 10.8216 9.37892 5.1102 17.0347 4.8096C17.2349 4.8096 17.435 4.8096 17.6352 4.8096C21.9885 4.8096 25.9415 7.3146 27.7929 11.2224C28.2933 10.7214 28.7936 10.2204 29.244 9.7194C30.0446 8.8176 30.7451 8.0661 31.1955 7.4148C28.2432 2.8056 23.1394 0 17.6352 0Z" fill="#1A2B6B"></path><path d="M50.7427 23.28C49.6227 23.28 48.5894 23.1 47.6427 22.74C46.696 22.38 45.8694 21.8733 45.1627 21.22C44.4694 20.5533 43.9294 19.78 43.5427 18.9C43.156 18.02 42.9627 17.0533 42.9627 16C42.9627 14.9467 43.156 13.98 43.5427 13.1C43.9294 12.22 44.4694 11.4533 45.1627 10.8C45.8694 10.1333 46.696 9.62 47.6427 9.26C48.5894 8.9 49.6227 8.72 50.7427 8.72C51.876 8.72 52.9094 8.9 53.8427 9.26C54.7894 9.62 55.6094 10.1333 56.3027 10.8C56.996 11.4533 57.536 12.22 57.9227 13.1C58.3227 13.98 58.5227 14.9467 58.5227 16C58.5227 17.0533 58.3227 18.0267 57.9227 18.92C57.536 19.8 56.996 20.5667 56.3027 21.22C55.6094 21.8733 54.7894 22.38 53.8427 22.74C52.9094 23.1 51.876 23.28 50.7427 23.28ZM50.7427 20C51.276 20 51.7694 19.9067 52.2227 19.72C52.6894 19.5333 53.0894 19.2667 53.4227 18.92C53.7694 18.56 54.036 18.1333 54.2227 17.64C54.4227 17.1467 54.5227 16.6 54.5227 16C54.5227 15.3867 54.4227 14.84 54.2227 14.36C54.036 13.8667 53.7694 13.4467 53.4227 13.1C53.0894 12.74 52.6894 12.4667 52.2227 12.28C51.7694 12.0933 51.276 12 50.7427 12C50.2094 12 49.7094 12.0933 49.2427 12.28C48.7894 12.4667 48.3894 12.74 48.0427 13.1C47.7094 13.4467 47.4427 13.8667 47.2427 14.36C47.056 14.84 46.9627 15.3867 46.9627 16C46.9627 16.6 47.056 17.1467 47.2427 17.64C47.4427 18.1333 47.7094 18.56 48.0427 18.92C48.3894 19.2667 48.7894 19.5333 49.2427 19.72C49.7094 19.9067 50.2094 20 50.7427 20ZM61.7968 23V9H65.7568V19.86H72.4368V23H61.7968ZM75.2038 23V9H81.6038C82.8838 9 83.9838 9.20667 84.9038 9.62C85.8371 10.0333 86.5571 10.6333 87.0638 11.42C87.5705 12.1933 87.8238 13.1133 87.8238 14.18C87.8238 15.2333 87.5705 16.1467 87.0638 16.92C86.5571 17.6933 85.8371 18.2933 84.9038 18.72C83.9838 19.1333 82.8838 19.34 81.6038 19.34H77.4038L79.1638 17.62V23H75.2038ZM79.1638 18.04L77.4038 16.22H81.3638C82.1905 16.22 82.8038 16.04 83.2038 15.68C83.6171 15.32 83.8238 14.82 83.8238 14.18C83.8238 13.5267 83.6171 13.02 83.2038 12.66C82.8038 12.3 82.1905 12.12 81.3638 12.12H77.4038L79.1638 10.3V18.04Z" fill="#1A2B6B"></path></svg>