<?xml version="1.0" encoding="UTF-8"?>
<!-- Generator: Adobe Illustrator 26.0.2, SVG Export Plug-In . SVG Version: 6.00 Build 0)  -->
<svg xmlns="http://www.w3.org/2000/svg" xmlns:xlink="http://www.w3.org/1999/xlink" version="1.1" id="Layer_1" x="0px" y="0px" viewBox="0 0 88.1 80" style="enable-background:new 0 0 88.1 80;" xml:space="preserve">
<style type="text/css">
	.st0{fill:#375BD2;}
	.st1{fill:#1A2B6B;}
</style>
<g id="Layer_2_00000101086700165426099520000004276432874306094012_">
	<g id="Layer_1-2">
		<g>
			<path class="st0" d="M77.7,31.1c12.6-13.3,10.6-16.4,9.9-17.5c-1.3-2-4.1-2.4-12.7,0.9C67.3,5.4,56,0,44,0C21.9,0,4,17.9,4,40     c0,2,0.2,4,0.5,6c0.7,4.7,2.3,9.1,4.5,13.2c-8.9,9.2-9.9,12.7-8.4,15c0.6,0.9,1.5,1.5,2.6,1.7C3.6,76,4.1,76,4.5,76     c8.6,0,30.7-11.1,46.2-21.9C60.4,47.3,69.4,39.6,77.7,31.1z M4.1,72c0.2-0.8,1.4-3.3,7.1-9.2c0.7,1,1.3,1.9,2.1,2.8     c3.3-1.3,7.2-3,11.5-5.2C13.5,49.7,13,32,23.6,20.7c4.9-5.2,11.7-8.4,18.9-8.7c0.5,0,1,0,1.4,0c10.8,0,20.7,6.3,25.3,16.1     c1.3-1.3,2.5-2.5,3.6-3.7c2-2.2,3.7-4.1,4.9-5.7c-0.2-0.3-0.4-0.5-0.5-0.8c4.1-1.6,5.9-1.8,6.7-1.8c-1,4.2-15.7,20.8-35.6,34.8     C28.2,65,8,72.8,4.1,72z"></path>
			<path class="st0" d="M83,31.1c-0.8,0.9-1.6,1.8-2.5,2.7L80,34.4c-2.5,2.6-5.2,5.2-8,7.8C70.9,56.3,59.5,67.3,45.4,68h-1.1h-0.4     c-2.2,0-4.5-0.3-6.6-0.8L37,67.4c-4.5,2.5-9.1,4.9-13.5,6.9c18.9,11.4,43.5,5.2,54.9-13.7C82,54.4,84,47.2,84,40     c0-2-0.1-3.9-0.4-5.9C83.4,33.1,83.2,32.1,83,31.1z"></path>
		</g>
		<path class="st0" d="M4.6,76c-0.5,0-1,0-1.4-0.1c-1.1-0.2-2-0.8-2.6-1.6c-1.6-2.5-0.2-6.6,11.8-18.4c0.7-0.8,2-0.9,2.8-0.1    c0.8,0.7,0.9,2,0.1,2.8c0,0-0.1,0.1-0.1,0.1C6,67.7,4.3,71,4.1,72c4,0.8,24.1-7,44.4-21.2C68.3,36.8,83.1,20.2,84,16    c-1.2,0-5,0.7-15.8,5.8c-1,0.5-2.2,0.1-2.7-0.9s-0.1-2.2,0.9-2.7c0,0,0,0,0.1,0c15.3-7.2,19.3-7.1,21-4.6    c0.8,1.2,2.8,4.3-9.9,17.5c-8.2,8.5-17.2,16.2-26.9,23C35.3,64.9,13.2,76,4.6,76z"></path>
		<path class="st0" d="M83.6,34.1c-2.9,19-18.9,33.2-38.1,33.9h-1.1h-0.4c-2.2,0-4.5-0.3-6.6-0.8L37,67.4c-4.5,2.5-9.1,4.9-13.5,6.9    c18.9,11.4,43.5,5.2,54.9-13.7C82,54.4,84,47.2,84,40C84,38,83.9,36.1,83.6,34.1z"></path>
		<path class="st0" d="M24.8,60.3C13.5,49.7,13,32,23.6,20.7c4.9-5.2,11.7-8.4,18.9-8.7C23.3,12.7,7.3,27,4.5,46    c1.1,7.2,4.1,13.9,8.8,19.5C16.5,64.3,20.5,62.5,24.8,60.3z"></path>
		<path class="st1" d="M80.5,33.8L80,34.4c-2.5,2.6-5.2,5.2-8,7.8C70.9,56.3,59.5,67.3,45.4,68c19.2-0.7,35.2-14.9,38.1-33.9    c-0.2-1-0.3-2-0.6-3C82.2,32,81.4,32.9,80.5,33.8z"></path>
		<path class="st1" d="M44,0C21.9,0,4,17.9,4,40c0,2,0.2,4,0.5,6c2.9-19,18.9-33.3,38.1-34c0.5,0,1,0,1.4,0l0,0    c10.8,0,20.7,6.3,25.3,16.1c1.3-1.3,2.5-2.5,3.6-3.7c2-2.2,3.7-4.1,4.9-5.7C70.5,7,57.7,0,44,0z"></path>
	</g>
</g>
</svg>
