<svg xmlns="http://www.w3.org/2000/svg" width="64" height="64" viewBox="0 0 64 64" fill="none"><rect width="64" height="64" rx="24" fill="white"></rect><path d="M25.4375 32.5C25.4375 27.6875 26.9688 23.75 28.9375 23.75C30.8516 23.75 32.4375 27.6875 32.4375 32.5C32.4375 37.3672 30.8516 41.25 28.9375 41.25C26.9688 41.25 25.4375 37.3672 25.4375 32.5ZM37.25 32.5C37.25 40.2656 33.6953 46.5 29.375 46.5C25 46.5 21.5 40.2656 21.5 32.5C21.5 24.7891 25 18.5 29.375 18.5C33.6953 18.5 37.25 24.7891 37.25 32.5ZM32.9844 39.3359C33.75 37.5312 34.1875 35.125 34.1875 32.5C34.1875 29.9297 33.75 27.5234 32.9844 25.6641C32.6562 24.7891 32.1641 23.9141 31.5625 23.2578C30.9062 22.6016 30.0312 22 28.9375 22C27.7891 22 26.9141 22.6016 26.2578 23.2578C25.6562 23.9141 25.1641 24.7891 24.8359 25.6641C24.0703 27.5234 23.6875 29.9297 23.6875 32.5C23.6875 35.125 24.0703 37.5312 24.8359 39.3359C25.1641 40.2656 25.6562 41.1406 26.2578 41.7969C26.9141 42.4531 27.7891 43 28.9375 43C30.0312 43 30.9062 42.4531 31.5625 41.7969C32.1641 41.1406 32.6562 40.2656 32.9844 39.3359ZM33.8594 46.5C34.6797 45.7891 35.4453 44.9141 36.0469 43.875H39.5469C38.3984 45.5703 36.9766 46.5 35.5 46.5H33.8594ZM40.5312 42.125H37.0312C37.7422 40.5938 38.2891 38.8438 38.6172 36.875H42.1172C41.7891 38.8984 41.2422 40.6484 40.5312 42.125ZM38.8359 35.125C38.9453 34.3047 39 33.4297 39 32.5C39 31.625 38.9453 30.75 38.8359 29.875H42.3359C42.4453 30.75 42.5 31.625 42.5 32.5C42.5 33.4297 42.4453 34.3047 42.3359 35.125H38.8359ZM42.1172 28.125H38.6172C38.2891 26.2109 37.7422 24.4609 37.0312 22.875H40.5312C41.2422 24.4062 41.7891 26.1562 42.1172 28.125ZM36.0469 21.125C35.4453 20.1406 34.6797 19.2656 33.8594 18.5H35.5C36.9766 18.5 38.3984 19.4844 39.5469 21.125H36.0469Z" fill="#375BD2"></path></svg>