<svg xmlns="http://www.w3.org/2000/svg" width="42" height="34" viewBox="0 0 42 34" fill="none"><path d="M42 15.5938V17.6562C42 18.2363 41.4844 18.6875 40.9688 18.6875H32.9121L29.3672 25.7773C28.9805 26.5508 28.207 27.002 27.3047 26.873C26.4668 26.8086 25.7578 26.2285 25.5645 25.3906L21.5684 10.9531L17.1855 31.5137C16.9922 32.416 16.1543 33.125 15.252 33.125H15.1875C14.2207 33.125 13.4473 32.5449 13.1895 31.6426L9.45117 18.6875H1.78125C1.20117 18.6875 0.75 18.2363 0.75 17.7207V15.5938C0.75 15.0781 1.20117 14.627 1.78125 14.627H11.0625C11.9648 14.627 12.7383 15.2715 12.9961 16.1738L14.8652 22.6191L19.3125 1.80078C19.5059 0.833984 20.3438 0.189453 21.3105 0.189453C22.2129 0.125 23.1152 0.769531 23.3086 1.67188L28.0781 19.1387L29.8184 15.7871C30.1406 15.0137 30.8496 14.5625 31.6875 14.5625H40.9688C41.4844 14.5625 42 15.0781 42 15.5938Z" fill="#375BD2" fill-opacity="0.5"></path></svg>